%TF.GenerationSoftware,KiCad,Pcbnew,(6.0.4)*%
%TF.CreationDate,2022-07-19T00:56:17+02:00*%
%TF.ProjectId,Controller_Window,436f6e74-726f-46c6-9c65-725f57696e64,rev?*%
%TF.SameCoordinates,Original*%
%TF.FileFunction,Copper,L1,Top*%
%TF.FilePolarity,Positive*%
%FSLAX46Y46*%
G04 Gerber Fmt 4.6, Leading zero omitted, Abs format (unit mm)*
G04 Created by KiCad (PCBNEW (6.0.4)) date 2022-07-19 00:56:17*
%MOMM*%
%LPD*%
G01*
G04 APERTURE LIST*
G04 Aperture macros list*
%AMRoundRect*
0 Rectangle with rounded corners*
0 $1 Rounding radius*
0 $2 $3 $4 $5 $6 $7 $8 $9 X,Y pos of 4 corners*
0 Add a 4 corners polygon primitive as box body*
4,1,4,$2,$3,$4,$5,$6,$7,$8,$9,$2,$3,0*
0 Add four circle primitives for the rounded corners*
1,1,$1+$1,$2,$3*
1,1,$1+$1,$4,$5*
1,1,$1+$1,$6,$7*
1,1,$1+$1,$8,$9*
0 Add four rect primitives between the rounded corners*
20,1,$1+$1,$2,$3,$4,$5,0*
20,1,$1+$1,$4,$5,$6,$7,0*
20,1,$1+$1,$6,$7,$8,$9,0*
20,1,$1+$1,$8,$9,$2,$3,0*%
G04 Aperture macros list end*
%TA.AperFunction,SMDPad,CuDef*%
%ADD10RoundRect,0.140000X-0.170000X0.140000X-0.170000X-0.140000X0.170000X-0.140000X0.170000X0.140000X0*%
%TD*%
%TA.AperFunction,SMDPad,CuDef*%
%ADD11RoundRect,0.140000X-0.140000X-0.170000X0.140000X-0.170000X0.140000X0.170000X-0.140000X0.170000X0*%
%TD*%
%TA.AperFunction,SMDPad,CuDef*%
%ADD12RoundRect,0.140000X0.140000X0.170000X-0.140000X0.170000X-0.140000X-0.170000X0.140000X-0.170000X0*%
%TD*%
%TA.AperFunction,SMDPad,CuDef*%
%ADD13R,0.650000X1.220000*%
%TD*%
%TA.AperFunction,ComponentPad*%
%ADD14RoundRect,0.250000X0.350000X0.625000X-0.350000X0.625000X-0.350000X-0.625000X0.350000X-0.625000X0*%
%TD*%
%TA.AperFunction,ComponentPad*%
%ADD15O,1.200000X1.750000*%
%TD*%
%TA.AperFunction,SMDPad,CuDef*%
%ADD16RoundRect,0.150000X-0.587500X-0.150000X0.587500X-0.150000X0.587500X0.150000X-0.587500X0.150000X0*%
%TD*%
%TA.AperFunction,SMDPad,CuDef*%
%ADD17RoundRect,0.150000X-0.825000X-0.150000X0.825000X-0.150000X0.825000X0.150000X-0.825000X0.150000X0*%
%TD*%
%TA.AperFunction,SMDPad,CuDef*%
%ADD18R,2.200000X1.200000*%
%TD*%
%TA.AperFunction,SMDPad,CuDef*%
%ADD19R,6.400000X5.800000*%
%TD*%
%TA.AperFunction,SMDPad,CuDef*%
%ADD20RoundRect,0.150000X0.150000X-0.825000X0.150000X0.825000X-0.150000X0.825000X-0.150000X-0.825000X0*%
%TD*%
%TA.AperFunction,SMDPad,CuDef*%
%ADD21RoundRect,0.150000X0.150000X-0.587500X0.150000X0.587500X-0.150000X0.587500X-0.150000X-0.587500X0*%
%TD*%
%TA.AperFunction,SMDPad,CuDef*%
%ADD22RoundRect,0.140000X0.170000X-0.140000X0.170000X0.140000X-0.170000X0.140000X-0.170000X-0.140000X0*%
%TD*%
%TA.AperFunction,ComponentPad*%
%ADD23RoundRect,0.250001X1.549999X-0.799999X1.549999X0.799999X-1.549999X0.799999X-1.549999X-0.799999X0*%
%TD*%
%TA.AperFunction,ComponentPad*%
%ADD24O,3.600000X2.100000*%
%TD*%
%TA.AperFunction,ComponentPad*%
%ADD25RoundRect,0.250001X-1.549999X0.799999X-1.549999X-0.799999X1.549999X-0.799999X1.549999X0.799999X0*%
%TD*%
%TA.AperFunction,ViaPad*%
%ADD26C,0.800000*%
%TD*%
%TA.AperFunction,Conductor*%
%ADD27C,0.254000*%
%TD*%
%TA.AperFunction,Conductor*%
%ADD28C,0.500000*%
%TD*%
%TA.AperFunction,Conductor*%
%ADD29C,0.250000*%
%TD*%
G04 APERTURE END LIST*
D10*
%TO.P,R8,1*%
%TO.N,VCCQ*%
X142100000Y-95920000D03*
%TO.P,R8,2*%
%TO.N,G*%
X142100000Y-96880000D03*
%TD*%
D11*
%TO.P,R2,1*%
%TO.N,Net-(Q1-Pad1)*%
X153320000Y-108400000D03*
%TO.P,R2,2*%
%TO.N,GND*%
X154280000Y-108400000D03*
%TD*%
D12*
%TO.P,C5,1*%
%TO.N,+5V*%
X134230000Y-105100000D03*
%TO.P,C5,2*%
%TO.N,GND*%
X133270000Y-105100000D03*
%TD*%
D10*
%TO.P,R9,1*%
%TO.N,VCCQ*%
X144325000Y-92420000D03*
%TO.P,R9,2*%
%TO.N,Net-(Q6-Pad3)*%
X144325000Y-93380000D03*
%TD*%
D13*
%TO.P,Q2,1,B*%
%TO.N,R*%
X147775000Y-97810000D03*
%TO.P,Q2,2,E*%
%TO.N,GND*%
X149675000Y-97810000D03*
%TO.P,Q2,3,C*%
%TO.N,Net-(Q2-Pad3)*%
X148725000Y-95190000D03*
%TD*%
D10*
%TO.P,C4,1*%
%TO.N,+5V*%
X147950000Y-101320000D03*
%TO.P,C4,2*%
%TO.N,GND*%
X147950000Y-102280000D03*
%TD*%
D12*
%TO.P,C3,1*%
%TO.N,+5V*%
X148930000Y-105850000D03*
%TO.P,C3,2*%
%TO.N,GND*%
X147970000Y-105850000D03*
%TD*%
D14*
%TO.P,J3,1,Pin_1*%
%TO.N,VCC*%
X148900000Y-89450000D03*
D15*
%TO.P,J3,2,Pin_2*%
%TO.N,R_OUT*%
X146900000Y-89450000D03*
%TO.P,J3,3,Pin_3*%
%TO.N,G_OUT*%
X144900000Y-89450000D03*
%TO.P,J3,4,Pin_4*%
%TO.N,B_OUT*%
X142900000Y-89450000D03*
%TD*%
D16*
%TO.P,Q1,1,G*%
%TO.N,Net-(Q1-Pad1)*%
X153262500Y-109850000D03*
%TO.P,Q1,2,S*%
%TO.N,VCCQ*%
X153262500Y-111750000D03*
%TO.P,Q1,3,D*%
%TO.N,VCC*%
X155137500Y-110800000D03*
%TD*%
D10*
%TO.P,R3,1*%
%TO.N,VCCQ*%
X146600000Y-95920000D03*
%TO.P,R3,2*%
%TO.N,R*%
X146600000Y-96880000D03*
%TD*%
D13*
%TO.P,Q3,1,B*%
%TO.N,B*%
X138875000Y-97810000D03*
%TO.P,Q3,2,E*%
%TO.N,GND*%
X140775000Y-97810000D03*
%TO.P,Q3,3,C*%
%TO.N,Net-(Q3-Pad3)*%
X139825000Y-95190000D03*
%TD*%
D17*
%TO.P,U3,1,OUTR*%
%TO.N,R*%
X141025000Y-101295000D03*
%TO.P,U3,2,OUTG*%
%TO.N,G*%
X141025000Y-102565000D03*
%TO.P,U3,3,OUTB*%
%TO.N,B*%
X141025000Y-103835000D03*
%TO.P,U3,4,GND*%
%TO.N,GND*%
X141025000Y-105105000D03*
%TO.P,U3,5,DO*%
%TO.N,DI*%
X145975000Y-105105000D03*
%TO.P,U3,6,DIN*%
%TO.N,RO*%
X145975000Y-103835000D03*
%TO.P,U3,7,SET*%
%TO.N,unconnected-(U3-Pad7)*%
X145975000Y-102565000D03*
%TO.P,U3,8,VDD*%
%TO.N,+5V*%
X145975000Y-101295000D03*
%TD*%
D18*
%TO.P,U1,1,IN*%
%TO.N,VCCQ*%
X149300000Y-112380000D03*
D19*
%TO.P,U1,2,GND*%
%TO.N,GND*%
X143000000Y-110100000D03*
D18*
%TO.P,U1,3,OUT*%
%TO.N,+5V*%
X149300000Y-107820000D03*
%TD*%
D10*
%TO.P,C2,1*%
%TO.N,+5V*%
X149900000Y-101320000D03*
%TO.P,C2,2*%
%TO.N,GND*%
X149900000Y-102280000D03*
%TD*%
D20*
%TO.P,U4,1,RO*%
%TO.N,unconnected-(U4-Pad1)*%
X134220000Y-111915000D03*
%TO.P,U4,2,~{RE}*%
%TO.N,+5V*%
X135490000Y-111915000D03*
%TO.P,U4,3,DE*%
X136760000Y-111915000D03*
%TO.P,U4,4,DI*%
%TO.N,DI*%
X138030000Y-111915000D03*
%TO.P,U4,5,GND*%
%TO.N,GND*%
X138030000Y-106965000D03*
%TO.P,U4,6,A*%
%TO.N,TA*%
X136760000Y-106965000D03*
%TO.P,U4,7,B*%
%TO.N,TB*%
X135490000Y-106965000D03*
%TO.P,U4,8,VCC*%
%TO.N,+5V*%
X134220000Y-106965000D03*
%TD*%
D21*
%TO.P,Q7,1,G*%
%TO.N,Net-(Q6-Pad3)*%
X145575000Y-94337500D03*
%TO.P,Q7,2,S*%
%TO.N,GND*%
X147475000Y-94337500D03*
%TO.P,Q7,3,D*%
%TO.N,G_OUT*%
X146525000Y-92462500D03*
%TD*%
D22*
%TO.P,C1,1*%
%TO.N,VCCQ*%
X151500000Y-111780000D03*
%TO.P,C1,2*%
%TO.N,GND*%
X151500000Y-110820000D03*
%TD*%
D10*
%TO.P,R5,1*%
%TO.N,VCCQ*%
X148725000Y-92420000D03*
%TO.P,R5,2*%
%TO.N,Net-(Q2-Pad3)*%
X148725000Y-93380000D03*
%TD*%
D13*
%TO.P,Q6,1,B*%
%TO.N,G*%
X143375000Y-97810000D03*
%TO.P,Q6,2,E*%
%TO.N,GND*%
X145275000Y-97810000D03*
%TO.P,Q6,3,C*%
%TO.N,Net-(Q6-Pad3)*%
X144325000Y-95190000D03*
%TD*%
D11*
%TO.P,R1,1*%
%TO.N,RB*%
X152820000Y-98700000D03*
%TO.P,R1,2*%
%TO.N,RA*%
X153780000Y-98700000D03*
%TD*%
D23*
%TO.P,J1,1,Pin_1*%
%TO.N,VCC*%
X159122500Y-110730000D03*
D24*
%TO.P,J1,2,Pin_2*%
%TO.N,RA*%
X159122500Y-103110000D03*
%TO.P,J1,3,Pin_3*%
%TO.N,RB*%
X159122500Y-95490000D03*
%TO.P,J1,4,Pin_4*%
%TO.N,GND*%
X159122500Y-87870000D03*
%TD*%
D10*
%TO.P,R4,1*%
%TO.N,VCCQ*%
X137500000Y-95920000D03*
%TO.P,R4,2*%
%TO.N,B*%
X137500000Y-96880000D03*
%TD*%
D21*
%TO.P,Q5,1,G*%
%TO.N,Net-(Q3-Pad3)*%
X141175000Y-94337500D03*
%TO.P,Q5,2,S*%
%TO.N,GND*%
X143075000Y-94337500D03*
%TO.P,Q5,3,D*%
%TO.N,B_OUT*%
X142125000Y-92462500D03*
%TD*%
D25*
%TO.P,J2,1,Pin_1*%
%TO.N,VCC*%
X130052500Y-87870000D03*
D24*
%TO.P,J2,2,Pin_2*%
%TO.N,TA*%
X130052500Y-95490000D03*
%TO.P,J2,3,Pin_3*%
%TO.N,TB*%
X130052500Y-103110000D03*
%TO.P,J2,4,Pin_4*%
%TO.N,GND*%
X130052500Y-110730000D03*
%TD*%
D10*
%TO.P,R6,1*%
%TO.N,VCCQ*%
X139825000Y-92420000D03*
%TO.P,R6,2*%
%TO.N,Net-(Q3-Pad3)*%
X139825000Y-93380000D03*
%TD*%
D21*
%TO.P,Q4,1,G*%
%TO.N,Net-(Q2-Pad3)*%
X149975000Y-94337500D03*
%TO.P,Q4,2,S*%
%TO.N,GND*%
X151875000Y-94337500D03*
%TO.P,Q4,3,D*%
%TO.N,R_OUT*%
X150925000Y-92462500D03*
%TD*%
D11*
%TO.P,R7,1*%
%TO.N,TB*%
X135645000Y-104639999D03*
%TO.P,R7,2*%
%TO.N,TA*%
X136605000Y-104639999D03*
%TD*%
D20*
%TO.P,U2,1,RO*%
%TO.N,RO*%
X151395000Y-105875000D03*
%TO.P,U2,2,~{RE}*%
%TO.N,GND*%
X152665000Y-105875000D03*
%TO.P,U2,3,DE*%
X153935000Y-105875000D03*
%TO.P,U2,4,DI*%
%TO.N,unconnected-(U2-Pad4)*%
X155205000Y-105875000D03*
%TO.P,U2,5,GND*%
%TO.N,GND*%
X155205000Y-100925000D03*
%TO.P,U2,6,A*%
%TO.N,RA*%
X153935000Y-100925000D03*
%TO.P,U2,7,B*%
%TO.N,RB*%
X152665000Y-100925000D03*
%TO.P,U2,8,VCC*%
%TO.N,+5V*%
X151395000Y-100925000D03*
%TD*%
D26*
%TO.N,VCCQ*%
X148700000Y-91700000D03*
X151500000Y-112800000D03*
X144300000Y-91700000D03*
X139800000Y-91700000D03*
%TO.N,GND*%
X151500000Y-109900000D03*
X150475000Y-97800000D03*
X141300000Y-111600000D03*
X149900000Y-103000000D03*
X144200000Y-109000000D03*
X138000000Y-105300000D03*
X156100000Y-100900000D03*
X147850500Y-103050000D03*
X151875000Y-95550000D03*
X147475000Y-95550000D03*
X143075000Y-95550000D03*
X153300000Y-107200000D03*
X155000000Y-108400000D03*
X144200000Y-111600000D03*
X132300000Y-105100000D03*
X146025000Y-97800000D03*
X141525000Y-97800000D03*
X139400000Y-105075989D03*
X141300000Y-109000000D03*
%TD*%
D27*
%TO.N,VCCQ*%
X143581099Y-92420000D02*
X144325000Y-92420000D01*
X146600000Y-93800000D02*
X147980000Y-92420000D01*
X137500000Y-94735242D02*
X139815242Y-92420000D01*
D28*
X144325000Y-92420000D02*
X144325000Y-91525000D01*
X139825000Y-92420000D02*
X139825000Y-91525000D01*
D27*
X139815242Y-92420000D02*
X139825000Y-92420000D01*
D28*
X139825000Y-91525000D02*
X139800000Y-91500000D01*
D27*
X147980000Y-92420000D02*
X148725000Y-92420000D01*
X142100000Y-95920000D02*
X142100000Y-93901099D01*
D28*
X144325000Y-91525000D02*
X144300000Y-91500000D01*
X151500000Y-111780000D02*
X151500000Y-112800000D01*
X148725000Y-91725000D02*
X148700000Y-91700000D01*
D27*
X142100000Y-93901099D02*
X143581099Y-92420000D01*
D28*
X148725000Y-92420000D02*
X148725000Y-91725000D01*
X149300000Y-112380000D02*
X149780000Y-112380000D01*
X153262500Y-111750000D02*
X151530000Y-111750000D01*
D27*
X146600000Y-95920000D02*
X146600000Y-93800000D01*
D28*
X151500000Y-111780000D02*
X150380000Y-111780000D01*
D27*
X137500000Y-95920000D02*
X137500000Y-94735242D01*
D28*
X149780000Y-112380000D02*
X150380000Y-111780000D01*
X151530000Y-111750000D02*
X151500000Y-111780000D01*
%TO.N,GND*%
X149900000Y-102280000D02*
X149900000Y-103000000D01*
X141515000Y-97810000D02*
X141525000Y-97800000D01*
X145275000Y-97810000D02*
X146015000Y-97810000D01*
D27*
X154280000Y-108400000D02*
X155000000Y-108400000D01*
D28*
X143075000Y-94337500D02*
X143075000Y-95550000D01*
D27*
X156075000Y-100925000D02*
X156100000Y-100900000D01*
D28*
X150465000Y-97810000D02*
X150475000Y-97800000D01*
D29*
X153935000Y-106565000D02*
X153935000Y-105875000D01*
D28*
X146015000Y-97810000D02*
X146025000Y-97800000D01*
X151500000Y-110820000D02*
X151500000Y-109900000D01*
X151925000Y-95600000D02*
X151875000Y-95550000D01*
X133270000Y-105100000D02*
X132300000Y-105100000D01*
X140995989Y-105075989D02*
X139400000Y-105075989D01*
X147950000Y-102280000D02*
X147950000Y-102950500D01*
X149675000Y-97810000D02*
X150465000Y-97810000D01*
D29*
X152665000Y-105875000D02*
X152665000Y-106565000D01*
X152665000Y-106565000D02*
X153300000Y-107200000D01*
D28*
X151875000Y-94337500D02*
X151875000Y-95550000D01*
X147950000Y-102950500D02*
X147850500Y-103050000D01*
D27*
X155205000Y-100925000D02*
X156075000Y-100925000D01*
D28*
X138030000Y-105330000D02*
X138000000Y-105300000D01*
X141025000Y-105105000D02*
X140995989Y-105075989D01*
X140775000Y-97810000D02*
X141515000Y-97810000D01*
D29*
X153300000Y-107200000D02*
X153935000Y-106565000D01*
D28*
X138030000Y-106965000D02*
X138030000Y-105330000D01*
X147475000Y-94337500D02*
X147475000Y-95550000D01*
%TO.N,+5V*%
X147925000Y-101295000D02*
X147950000Y-101320000D01*
X135490000Y-110490000D02*
X135490000Y-111915000D01*
X134230000Y-105100000D02*
X134230000Y-106955000D01*
X143200000Y-103100000D02*
X143200000Y-105500000D01*
X145005000Y-101295000D02*
X143200000Y-103100000D01*
X148930000Y-107580000D02*
X148930000Y-105850000D01*
X148820000Y-101320000D02*
X147950000Y-101320000D01*
X142774511Y-105925489D02*
X139613008Y-105925489D01*
X134220000Y-108420000D02*
X135300000Y-109500000D01*
X148930000Y-101430000D02*
X148820000Y-101320000D01*
X148930000Y-105850000D02*
X148930000Y-101430000D01*
X134230000Y-106955000D02*
X134220000Y-106965000D01*
X149300000Y-107820000D02*
X149170000Y-107820000D01*
X148820000Y-101320000D02*
X149900000Y-101320000D01*
X137810000Y-109690000D02*
X136310000Y-109690000D01*
X135490000Y-110490000D02*
X135510000Y-110490000D01*
X138825489Y-108674511D02*
X137810000Y-109690000D01*
X138825489Y-106713008D02*
X138825489Y-108674511D01*
X149170000Y-107820000D02*
X148930000Y-107580000D01*
X135510000Y-110490000D02*
X136310000Y-109690000D01*
X145975000Y-101295000D02*
X145005000Y-101295000D01*
X145975000Y-101295000D02*
X147925000Y-101295000D01*
X135490000Y-109690000D02*
X135490000Y-110490000D01*
X135490000Y-111915000D02*
X136760000Y-111915000D01*
X134220000Y-106965000D02*
X134220000Y-108420000D01*
X135300000Y-109500000D02*
X135490000Y-109690000D01*
X149900000Y-101320000D02*
X151000000Y-101320000D01*
X151000000Y-101320000D02*
X151395000Y-100925000D01*
X143200000Y-105500000D02*
X142774511Y-105925489D01*
X136310000Y-109690000D02*
X135490000Y-109690000D01*
X139613008Y-105925489D02*
X138825489Y-106713008D01*
%TO.N,VCC*%
X155137500Y-110800000D02*
X159052500Y-110800000D01*
X159052500Y-110800000D02*
X159122500Y-110730000D01*
%TO.N,RB*%
X155210000Y-95490000D02*
X159122500Y-95490000D01*
X152665000Y-100925000D02*
X152665000Y-98035000D01*
X152665000Y-98035000D02*
X155210000Y-95490000D01*
%TO.N,RA*%
X159122500Y-103110000D02*
X159122500Y-101422500D01*
X159122500Y-101422500D02*
X156400000Y-98700000D01*
X156400000Y-98700000D02*
X153780000Y-98700000D01*
X153935000Y-100925000D02*
X153935000Y-98855000D01*
X153935000Y-98855000D02*
X153780000Y-98700000D01*
%TO.N,TA*%
X136760000Y-106965000D02*
X136760000Y-103565000D01*
X130052500Y-95490000D02*
X130990000Y-95490000D01*
X136800000Y-101300000D02*
X136800000Y-104444999D01*
X136800000Y-104444999D02*
X136605000Y-104639999D01*
X130990000Y-95490000D02*
X136800000Y-101300000D01*
%TO.N,TB*%
X135490000Y-104794999D02*
X135645000Y-104639999D01*
X135490000Y-106965000D02*
X135490000Y-104794999D01*
X134055001Y-103050000D02*
X135645000Y-104639999D01*
X128625000Y-103050000D02*
X134055001Y-103050000D01*
%TO.N,R_OUT*%
X148300499Y-90850499D02*
X149312999Y-90850499D01*
X149312999Y-90850499D02*
X150925000Y-92462500D01*
X146900000Y-89450000D02*
X148300499Y-90850499D01*
%TO.N,G_OUT*%
X146525000Y-91050000D02*
X146525000Y-92462500D01*
X144925000Y-89450000D02*
X146525000Y-91050000D01*
X144900000Y-89450000D02*
X144925000Y-89450000D01*
%TO.N,B_OUT*%
X142900000Y-89450000D02*
X142025000Y-90325000D01*
X142025000Y-92362500D02*
X142125000Y-92462500D01*
X142025000Y-90325000D02*
X142025000Y-92362500D01*
D27*
%TO.N,Net-(Q1-Pad1)*%
X153320000Y-108400000D02*
X153320000Y-109792500D01*
X153320000Y-109792500D02*
X153262500Y-109850000D01*
D28*
%TO.N,Net-(Q2-Pad3)*%
X148862500Y-94337500D02*
X148725000Y-94475000D01*
X148725000Y-94475000D02*
X148725000Y-95190000D01*
X148725000Y-93380000D02*
X148725000Y-94475000D01*
X149975000Y-94337500D02*
X148862500Y-94337500D01*
%TO.N,Net-(Q3-Pad3)*%
X139825000Y-94125000D02*
X139825000Y-95190000D01*
X139825000Y-93380000D02*
X139825000Y-94125000D01*
X140037500Y-94337500D02*
X139825000Y-94125000D01*
X141175000Y-94337500D02*
X140037500Y-94337500D01*
%TO.N,Net-(Q6-Pad3)*%
X145575000Y-94337500D02*
X144337500Y-94337500D01*
X144325000Y-93380000D02*
X144325000Y-94325000D01*
X144325000Y-94325000D02*
X144325000Y-95190000D01*
X144337500Y-94337500D02*
X144325000Y-94325000D01*
%TO.N,R*%
X146845000Y-96880000D02*
X147775000Y-97810000D01*
X147775000Y-98625000D02*
X146700000Y-99700000D01*
X147775000Y-97810000D02*
X147775000Y-98625000D01*
X141705000Y-101295000D02*
X141025000Y-101295000D01*
X143300000Y-99700000D02*
X141705000Y-101295000D01*
X146700000Y-99700000D02*
X143300000Y-99700000D01*
X146600000Y-96880000D02*
X146845000Y-96880000D01*
%TO.N,B*%
X137945000Y-96880000D02*
X138875000Y-97810000D01*
X139785000Y-103835000D02*
X141025000Y-103835000D01*
X137500000Y-96880000D02*
X137945000Y-96880000D01*
X138875000Y-102925000D02*
X139785000Y-103835000D01*
X138875000Y-97810000D02*
X138875000Y-102925000D01*
%TO.N,G*%
X140600000Y-99300000D02*
X139600000Y-100300000D01*
X143375000Y-98125000D02*
X142200000Y-99300000D01*
X142100000Y-96880000D02*
X142445000Y-96880000D01*
X140165000Y-102565000D02*
X141025000Y-102565000D01*
X142445000Y-96880000D02*
X143375000Y-97810000D01*
X139600000Y-100300000D02*
X139600000Y-102000000D01*
X142200000Y-99300000D02*
X140600000Y-99300000D01*
X139600000Y-102000000D02*
X140165000Y-102565000D01*
X143375000Y-97810000D02*
X143375000Y-98125000D01*
D29*
%TO.N,RO*%
X146635000Y-103835000D02*
X145975000Y-103835000D01*
X151395000Y-105875000D02*
X151395000Y-108305000D01*
X150700000Y-109000000D02*
X147900000Y-109000000D01*
X147274520Y-108374520D02*
X147274520Y-104474520D01*
X147900000Y-109000000D02*
X147274520Y-108374520D01*
X147274520Y-104474520D02*
X146635000Y-103835000D01*
X151395000Y-108305000D02*
X150700000Y-109000000D01*
%TO.N,DI*%
X143800000Y-106600000D02*
X139900000Y-106600000D01*
X145295000Y-105105000D02*
X143800000Y-106600000D01*
X139400000Y-110545000D02*
X138030000Y-111915000D01*
X139900000Y-106600000D02*
X139400000Y-107100000D01*
X139400000Y-107100000D02*
X139400000Y-110545000D01*
X145975000Y-105105000D02*
X145295000Y-105105000D01*
%TD*%
%TA.AperFunction,Conductor*%
%TO.N,VCC*%
G36*
X166583621Y-83728502D02*
G01*
X166630114Y-83782158D01*
X166641500Y-83834500D01*
X166641500Y-114165500D01*
X166621498Y-114233621D01*
X166567842Y-114280114D01*
X166515500Y-114291500D01*
X156126000Y-114291500D01*
X156057879Y-114271498D01*
X156011386Y-114217842D01*
X156000000Y-114165500D01*
X156000000Y-111623692D01*
X156013682Y-111577096D01*
X156814500Y-111577096D01*
X156814837Y-111583611D01*
X156824756Y-111679203D01*
X156827650Y-111692602D01*
X156879088Y-111846783D01*
X156885262Y-111859962D01*
X156970563Y-111997807D01*
X156979599Y-112009208D01*
X157094330Y-112123739D01*
X157105741Y-112132751D01*
X157243745Y-112217818D01*
X157256923Y-112223962D01*
X157411216Y-112275139D01*
X157424581Y-112278005D01*
X157518939Y-112287672D01*
X157525355Y-112288000D01*
X158850385Y-112288000D01*
X158865624Y-112283525D01*
X158866829Y-112282135D01*
X158868500Y-112274452D01*
X158868500Y-112269885D01*
X159376500Y-112269885D01*
X159380975Y-112285124D01*
X159382365Y-112286329D01*
X159390048Y-112288000D01*
X160719596Y-112288000D01*
X160726111Y-112287663D01*
X160821703Y-112277744D01*
X160835102Y-112274850D01*
X160989283Y-112223412D01*
X161002462Y-112217238D01*
X161140307Y-112131937D01*
X161151708Y-112122901D01*
X161266239Y-112008170D01*
X161275251Y-111996759D01*
X161360318Y-111858755D01*
X161366462Y-111845577D01*
X161417639Y-111691284D01*
X161420505Y-111677919D01*
X161430172Y-111583561D01*
X161430500Y-111577145D01*
X161430500Y-111002115D01*
X161426025Y-110986876D01*
X161424635Y-110985671D01*
X161416952Y-110984000D01*
X159394615Y-110984000D01*
X159379376Y-110988475D01*
X159378171Y-110989865D01*
X159376500Y-110997548D01*
X159376500Y-112269885D01*
X158868500Y-112269885D01*
X158868500Y-111002115D01*
X158864025Y-110986876D01*
X158862635Y-110985671D01*
X158854952Y-110984000D01*
X156832615Y-110984000D01*
X156817376Y-110988475D01*
X156816171Y-110989865D01*
X156814500Y-110997548D01*
X156814500Y-111577096D01*
X156013682Y-111577096D01*
X156020002Y-111555571D01*
X156061861Y-111515238D01*
X156124677Y-111478089D01*
X156137104Y-111468449D01*
X156243449Y-111362104D01*
X156253089Y-111349678D01*
X156329648Y-111220221D01*
X156335893Y-111205790D01*
X156374939Y-111071395D01*
X156374899Y-111057294D01*
X156367630Y-111054000D01*
X156000000Y-111054000D01*
X156000000Y-110546000D01*
X156361878Y-110546000D01*
X156375409Y-110542027D01*
X156376544Y-110534129D01*
X156354393Y-110457885D01*
X156814500Y-110457885D01*
X156818975Y-110473124D01*
X156820365Y-110474329D01*
X156828048Y-110476000D01*
X158850385Y-110476000D01*
X158865624Y-110471525D01*
X158866829Y-110470135D01*
X158868500Y-110462452D01*
X158868500Y-110457885D01*
X159376500Y-110457885D01*
X159380975Y-110473124D01*
X159382365Y-110474329D01*
X159390048Y-110476000D01*
X161412385Y-110476000D01*
X161427624Y-110471525D01*
X161428829Y-110470135D01*
X161430500Y-110462452D01*
X161430500Y-109882904D01*
X161430163Y-109876389D01*
X161420244Y-109780797D01*
X161417350Y-109767398D01*
X161365912Y-109613217D01*
X161359738Y-109600038D01*
X161274437Y-109462193D01*
X161265401Y-109450792D01*
X161150670Y-109336261D01*
X161139259Y-109327249D01*
X161001255Y-109242182D01*
X160988077Y-109236038D01*
X160833784Y-109184861D01*
X160820419Y-109181995D01*
X160726061Y-109172328D01*
X160719644Y-109172000D01*
X159394615Y-109172000D01*
X159379376Y-109176475D01*
X159378171Y-109177865D01*
X159376500Y-109185548D01*
X159376500Y-110457885D01*
X158868500Y-110457885D01*
X158868500Y-109190115D01*
X158864025Y-109174876D01*
X158862635Y-109173671D01*
X158854952Y-109172000D01*
X157525404Y-109172000D01*
X157518889Y-109172337D01*
X157423297Y-109182256D01*
X157409898Y-109185150D01*
X157255717Y-109236588D01*
X157242538Y-109242762D01*
X157104693Y-109328063D01*
X157093292Y-109337099D01*
X156978761Y-109451830D01*
X156969749Y-109463241D01*
X156884682Y-109601245D01*
X156878538Y-109614423D01*
X156827361Y-109768716D01*
X156824495Y-109782081D01*
X156814828Y-109876439D01*
X156814500Y-109882856D01*
X156814500Y-110457885D01*
X156354393Y-110457885D01*
X156335893Y-110394210D01*
X156329648Y-110379779D01*
X156253089Y-110250322D01*
X156243449Y-110237896D01*
X156137104Y-110131551D01*
X156124677Y-110121911D01*
X156061861Y-110084762D01*
X156013408Y-110032869D01*
X156000000Y-109976308D01*
X156000000Y-106858118D01*
X156005003Y-106822965D01*
X156008768Y-106810008D01*
X156008769Y-106810003D01*
X156010562Y-106803831D01*
X156013500Y-106766502D01*
X156013500Y-106126000D01*
X156033502Y-106057879D01*
X156087158Y-106011386D01*
X156139500Y-106000000D01*
X161000000Y-106000000D01*
X163000000Y-104000000D01*
X163000000Y-94000000D01*
X160000000Y-91000000D01*
X150587371Y-91000000D01*
X150519250Y-90979998D01*
X150498276Y-90963095D01*
X149994401Y-90459220D01*
X149960375Y-90396908D01*
X149963903Y-90330457D01*
X149995138Y-90236290D01*
X149998005Y-90222914D01*
X150007672Y-90128562D01*
X150008000Y-90122146D01*
X150008000Y-89722115D01*
X150003525Y-89706876D01*
X150002135Y-89705671D01*
X149994452Y-89704000D01*
X148772000Y-89704000D01*
X148703879Y-89683998D01*
X148657386Y-89630342D01*
X148646000Y-89578000D01*
X148646000Y-89177885D01*
X149154000Y-89177885D01*
X149158475Y-89193124D01*
X149159865Y-89194329D01*
X149167548Y-89196000D01*
X149989884Y-89196000D01*
X150005123Y-89191525D01*
X150006328Y-89190135D01*
X150007999Y-89182452D01*
X150007999Y-88777905D01*
X150007662Y-88771386D01*
X149997743Y-88675794D01*
X149994851Y-88662400D01*
X149943412Y-88508216D01*
X149937239Y-88495038D01*
X149851937Y-88357193D01*
X149842901Y-88345792D01*
X149728171Y-88231261D01*
X149716760Y-88222249D01*
X149578757Y-88137184D01*
X149565576Y-88131037D01*
X149411290Y-88079862D01*
X149397914Y-88076995D01*
X149303562Y-88067328D01*
X149297145Y-88067000D01*
X149172115Y-88067000D01*
X149156876Y-88071475D01*
X149155671Y-88072865D01*
X149154000Y-88080548D01*
X149154000Y-89177885D01*
X148646000Y-89177885D01*
X148646000Y-88085116D01*
X148641525Y-88069877D01*
X148640135Y-88068672D01*
X148632452Y-88067001D01*
X148502905Y-88067001D01*
X148496386Y-88067338D01*
X148400794Y-88077257D01*
X148387400Y-88080149D01*
X148233216Y-88131588D01*
X148220044Y-88137759D01*
X148192303Y-88154925D01*
X148123850Y-88173762D01*
X148056081Y-88152600D01*
X148010510Y-88098159D01*
X148000000Y-88047780D01*
X148000000Y-88000000D01*
X140000000Y-88000000D01*
X136400000Y-91000000D01*
X134035045Y-92970796D01*
X133969908Y-92999040D01*
X133954382Y-93000000D01*
X122884500Y-93000000D01*
X122816379Y-92979998D01*
X122769886Y-92926342D01*
X122758500Y-92874000D01*
X122758500Y-88717096D01*
X127744500Y-88717096D01*
X127744837Y-88723611D01*
X127754756Y-88819203D01*
X127757650Y-88832602D01*
X127809088Y-88986783D01*
X127815262Y-88999962D01*
X127900563Y-89137807D01*
X127909599Y-89149208D01*
X128024330Y-89263739D01*
X128035741Y-89272751D01*
X128173745Y-89357818D01*
X128186923Y-89363962D01*
X128341216Y-89415139D01*
X128354581Y-89418005D01*
X128448939Y-89427672D01*
X128455355Y-89428000D01*
X129780385Y-89428000D01*
X129795624Y-89423525D01*
X129796829Y-89422135D01*
X129798500Y-89414452D01*
X129798500Y-89409885D01*
X130306500Y-89409885D01*
X130310975Y-89425124D01*
X130312365Y-89426329D01*
X130320048Y-89428000D01*
X131649596Y-89428000D01*
X131656111Y-89427663D01*
X131751703Y-89417744D01*
X131765102Y-89414850D01*
X131919283Y-89363412D01*
X131932462Y-89357238D01*
X132070307Y-89271937D01*
X132081708Y-89262901D01*
X132196239Y-89148170D01*
X132205251Y-89136759D01*
X132290318Y-88998755D01*
X132296462Y-88985577D01*
X132347639Y-88831284D01*
X132350505Y-88817919D01*
X132360172Y-88723561D01*
X132360500Y-88717145D01*
X132360500Y-88142115D01*
X132356025Y-88126876D01*
X132354635Y-88125671D01*
X132346952Y-88124000D01*
X130324615Y-88124000D01*
X130309376Y-88128475D01*
X130308171Y-88129865D01*
X130306500Y-88137548D01*
X130306500Y-89409885D01*
X129798500Y-89409885D01*
X129798500Y-88142115D01*
X129794025Y-88126876D01*
X129792635Y-88125671D01*
X129784952Y-88124000D01*
X127762615Y-88124000D01*
X127747376Y-88128475D01*
X127746171Y-88129865D01*
X127744500Y-88137548D01*
X127744500Y-88717096D01*
X122758500Y-88717096D01*
X122758500Y-87924568D01*
X156809882Y-87924568D01*
X156838708Y-88173699D01*
X156840087Y-88178573D01*
X156840088Y-88178577D01*
X156879026Y-88316181D01*
X156906994Y-88415017D01*
X156909128Y-88419592D01*
X156909130Y-88419599D01*
X157010847Y-88637731D01*
X157012984Y-88642313D01*
X157015826Y-88646494D01*
X157015826Y-88646495D01*
X157151105Y-88845552D01*
X157151108Y-88845556D01*
X157153951Y-88849739D01*
X157157428Y-88853416D01*
X157157429Y-88853417D01*
X157257738Y-88959491D01*
X157326267Y-89031959D01*
X157330293Y-89035037D01*
X157330294Y-89035038D01*
X157521481Y-89181212D01*
X157521485Y-89181215D01*
X157525501Y-89184285D01*
X157529959Y-89186675D01*
X157529960Y-89186676D01*
X157541986Y-89193124D01*
X157746526Y-89302797D01*
X157751307Y-89304443D01*
X157751311Y-89304445D01*
X157904633Y-89357238D01*
X157983656Y-89384448D01*
X158087189Y-89402331D01*
X158226880Y-89426460D01*
X158226886Y-89426461D01*
X158230790Y-89427135D01*
X158234751Y-89427315D01*
X158234752Y-89427315D01*
X158259431Y-89428436D01*
X158259450Y-89428436D01*
X158260850Y-89428500D01*
X159935515Y-89428500D01*
X159938023Y-89428298D01*
X159938028Y-89428298D01*
X160117444Y-89413863D01*
X160117449Y-89413862D01*
X160122485Y-89413457D01*
X160127393Y-89412252D01*
X160127396Y-89412251D01*
X160361125Y-89354841D01*
X160366039Y-89353634D01*
X160370691Y-89351659D01*
X160370695Y-89351658D01*
X160592241Y-89257617D01*
X160592242Y-89257617D01*
X160596896Y-89255641D01*
X160809115Y-89122000D01*
X160997238Y-88956147D01*
X161156424Y-88762351D01*
X161282578Y-88545596D01*
X161305897Y-88484850D01*
X161370643Y-88316181D01*
X161372455Y-88311461D01*
X161391093Y-88222249D01*
X161422706Y-88070921D01*
X161423741Y-88065967D01*
X161435118Y-87815432D01*
X161406292Y-87566301D01*
X161367310Y-87428539D01*
X161339384Y-87329852D01*
X161339383Y-87329850D01*
X161338006Y-87324983D01*
X161335872Y-87320408D01*
X161335870Y-87320401D01*
X161234153Y-87102269D01*
X161234151Y-87102265D01*
X161232016Y-87097687D01*
X161229174Y-87093505D01*
X161093895Y-86894448D01*
X161093892Y-86894444D01*
X161091049Y-86890261D01*
X160990425Y-86783853D01*
X160922213Y-86711721D01*
X160918733Y-86708041D01*
X160914706Y-86704962D01*
X160723519Y-86558788D01*
X160723515Y-86558785D01*
X160719499Y-86555715D01*
X160498474Y-86437203D01*
X160493693Y-86435557D01*
X160493689Y-86435555D01*
X160266133Y-86357201D01*
X160261344Y-86355552D01*
X160157811Y-86337669D01*
X160018120Y-86313540D01*
X160018114Y-86313539D01*
X160014210Y-86312865D01*
X160010249Y-86312685D01*
X160010248Y-86312685D01*
X159985569Y-86311564D01*
X159985550Y-86311564D01*
X159984150Y-86311500D01*
X158309485Y-86311500D01*
X158306977Y-86311702D01*
X158306972Y-86311702D01*
X158127556Y-86326137D01*
X158127551Y-86326138D01*
X158122515Y-86326543D01*
X158117607Y-86327748D01*
X158117604Y-86327749D01*
X157895995Y-86382182D01*
X157878961Y-86386366D01*
X157874309Y-86388341D01*
X157874305Y-86388342D01*
X157665207Y-86477099D01*
X157648104Y-86484359D01*
X157435885Y-86618000D01*
X157247762Y-86783853D01*
X157088576Y-86977649D01*
X156962422Y-87194404D01*
X156872545Y-87428539D01*
X156871512Y-87433485D01*
X156871510Y-87433491D01*
X156833983Y-87613124D01*
X156821259Y-87674033D01*
X156809882Y-87924568D01*
X122758500Y-87924568D01*
X122758500Y-87597885D01*
X127744500Y-87597885D01*
X127748975Y-87613124D01*
X127750365Y-87614329D01*
X127758048Y-87616000D01*
X129780385Y-87616000D01*
X129795624Y-87611525D01*
X129796829Y-87610135D01*
X129798500Y-87602452D01*
X129798500Y-87597885D01*
X130306500Y-87597885D01*
X130310975Y-87613124D01*
X130312365Y-87614329D01*
X130320048Y-87616000D01*
X132342385Y-87616000D01*
X132357624Y-87611525D01*
X132358829Y-87610135D01*
X132360500Y-87602452D01*
X132360500Y-87022904D01*
X132360163Y-87016389D01*
X132350244Y-86920797D01*
X132347350Y-86907398D01*
X132295912Y-86753217D01*
X132289738Y-86740038D01*
X132204437Y-86602193D01*
X132195401Y-86590792D01*
X132080670Y-86476261D01*
X132069259Y-86467249D01*
X131931255Y-86382182D01*
X131918077Y-86376038D01*
X131763784Y-86324861D01*
X131750419Y-86321995D01*
X131656061Y-86312328D01*
X131649644Y-86312000D01*
X130324615Y-86312000D01*
X130309376Y-86316475D01*
X130308171Y-86317865D01*
X130306500Y-86325548D01*
X130306500Y-87597885D01*
X129798500Y-87597885D01*
X129798500Y-86330115D01*
X129794025Y-86314876D01*
X129792635Y-86313671D01*
X129784952Y-86312000D01*
X128455404Y-86312000D01*
X128448889Y-86312337D01*
X128353297Y-86322256D01*
X128339898Y-86325150D01*
X128185717Y-86376588D01*
X128172538Y-86382762D01*
X128034693Y-86468063D01*
X128023292Y-86477099D01*
X127908761Y-86591830D01*
X127899749Y-86603241D01*
X127814682Y-86741245D01*
X127808538Y-86754423D01*
X127757361Y-86908716D01*
X127754495Y-86922081D01*
X127744828Y-87016439D01*
X127744500Y-87022856D01*
X127744500Y-87597885D01*
X122758500Y-87597885D01*
X122758500Y-83834500D01*
X122778502Y-83766379D01*
X122832158Y-83719886D01*
X122884500Y-83708500D01*
X166515500Y-83708500D01*
X166583621Y-83728502D01*
G37*
%TD.AperFunction*%
%TD*%
M02*
