M48
; DRILL file {KiCad (6.0.4)} date Tue Jul 19 00:56:17 2022
; FORMAT={-:-/ absolute / inch / decimal}
; #@! TF.CreationDate,2022-07-19T00:56:17+02:00
; #@! TF.GenerationSoftware,Kicad,Pcbnew,(6.0.4)
; #@! TF.FileFunction,Plated,1,2,PTH
FMAT,2
INCH
; #@! TA.AperFunction,Plated,PTH,ViaDrill
T1C0.0157
; #@! TA.AperFunction,Plated,PTH,ComponentDrill
T2C0.0295
; #@! TA.AperFunction,Plated,PTH,ComponentDrill
T3C0.0551
%
G90
G05
T1
X5.2087Y-4.1378
X5.4331Y-4.1457
X5.4882Y-4.1368
X5.5039Y-3.6102
X5.563Y-4.2913
X5.563Y-4.3937
X5.5719Y-3.8504
X5.6329Y-3.7618
X5.6772Y-4.2913
X5.6772Y-4.3937
X5.6811Y-3.6102
X5.749Y-3.8504
X5.8061Y-3.7618
X5.8209Y-4.0571
X5.8543Y-3.6102
X5.9016Y-4.0551
X5.9242Y-3.8504
X5.9646Y-4.3268
X5.9646Y-4.4409
X5.9793Y-3.7618
X6.0354Y-4.2205
X6.1024Y-4.2677
X6.1457Y-3.9724
T2
X5.626Y-3.5217
X5.7047Y-3.5217
X5.7835Y-3.5217
X5.8622Y-3.5217
T3
X5.1202Y-3.4594
X5.1202Y-3.7594
X5.1202Y-4.0594
X5.1202Y-4.3594
X6.2647Y-3.4594
X6.2647Y-3.7594
X6.2647Y-4.0594
X6.2647Y-4.3594
T0
M30
