%TF.GenerationSoftware,KiCad,Pcbnew,(6.0.4)*%
%TF.CreationDate,2022-07-19T00:56:17+02:00*%
%TF.ProjectId,Controller_Window,436f6e74-726f-46c6-9c65-725f57696e64,rev?*%
%TF.SameCoordinates,Original*%
%TF.FileFunction,Paste,Top*%
%TF.FilePolarity,Positive*%
%FSLAX46Y46*%
G04 Gerber Fmt 4.6, Leading zero omitted, Abs format (unit mm)*
G04 Created by KiCad (PCBNEW (6.0.4)) date 2022-07-19 00:56:17*
%MOMM*%
%LPD*%
G01*
G04 APERTURE LIST*
G04 Aperture macros list*
%AMRoundRect*
0 Rectangle with rounded corners*
0 $1 Rounding radius*
0 $2 $3 $4 $5 $6 $7 $8 $9 X,Y pos of 4 corners*
0 Add a 4 corners polygon primitive as box body*
4,1,4,$2,$3,$4,$5,$6,$7,$8,$9,$2,$3,0*
0 Add four circle primitives for the rounded corners*
1,1,$1+$1,$2,$3*
1,1,$1+$1,$4,$5*
1,1,$1+$1,$6,$7*
1,1,$1+$1,$8,$9*
0 Add four rect primitives between the rounded corners*
20,1,$1+$1,$2,$3,$4,$5,0*
20,1,$1+$1,$4,$5,$6,$7,0*
20,1,$1+$1,$6,$7,$8,$9,0*
20,1,$1+$1,$8,$9,$2,$3,0*%
G04 Aperture macros list end*
%ADD10RoundRect,0.140000X-0.170000X0.140000X-0.170000X-0.140000X0.170000X-0.140000X0.170000X0.140000X0*%
%ADD11RoundRect,0.140000X-0.140000X-0.170000X0.140000X-0.170000X0.140000X0.170000X-0.140000X0.170000X0*%
%ADD12RoundRect,0.140000X0.140000X0.170000X-0.140000X0.170000X-0.140000X-0.170000X0.140000X-0.170000X0*%
%ADD13R,0.650000X1.220000*%
%ADD14RoundRect,0.150000X-0.587500X-0.150000X0.587500X-0.150000X0.587500X0.150000X-0.587500X0.150000X0*%
%ADD15RoundRect,0.150000X-0.825000X-0.150000X0.825000X-0.150000X0.825000X0.150000X-0.825000X0.150000X0*%
%ADD16R,3.050000X2.750000*%
%ADD17R,2.200000X1.200000*%
%ADD18RoundRect,0.150000X0.150000X-0.825000X0.150000X0.825000X-0.150000X0.825000X-0.150000X-0.825000X0*%
%ADD19RoundRect,0.150000X0.150000X-0.587500X0.150000X0.587500X-0.150000X0.587500X-0.150000X-0.587500X0*%
%ADD20RoundRect,0.140000X0.170000X-0.140000X0.170000X0.140000X-0.170000X0.140000X-0.170000X-0.140000X0*%
G04 APERTURE END LIST*
D10*
%TO.C,R8*%
X142100000Y-95920000D03*
X142100000Y-96880000D03*
%TD*%
D11*
%TO.C,R2*%
X153320000Y-108400000D03*
X154280000Y-108400000D03*
%TD*%
D12*
%TO.C,C5*%
X134230000Y-105100000D03*
X133270000Y-105100000D03*
%TD*%
D10*
%TO.C,R9*%
X144325000Y-92420000D03*
X144325000Y-93380000D03*
%TD*%
D13*
%TO.C,Q2*%
X147775000Y-97810000D03*
X149675000Y-97810000D03*
X148725000Y-95190000D03*
%TD*%
D10*
%TO.C,C4*%
X147950000Y-101320000D03*
X147950000Y-102280000D03*
%TD*%
D12*
%TO.C,C3*%
X148930000Y-105850000D03*
X147970000Y-105850000D03*
%TD*%
D14*
%TO.C,Q1*%
X153262500Y-109850000D03*
X153262500Y-111750000D03*
X155137500Y-110800000D03*
%TD*%
D10*
%TO.C,R3*%
X146600000Y-95920000D03*
X146600000Y-96880000D03*
%TD*%
D13*
%TO.C,Q3*%
X138875000Y-97810000D03*
X140775000Y-97810000D03*
X139825000Y-95190000D03*
%TD*%
D15*
%TO.C,U3*%
X141025000Y-101295000D03*
X141025000Y-102565000D03*
X141025000Y-103835000D03*
X141025000Y-105105000D03*
X145975000Y-105105000D03*
X145975000Y-103835000D03*
X145975000Y-102565000D03*
X145975000Y-101295000D03*
%TD*%
D16*
%TO.C,U1*%
X144675000Y-111625000D03*
X141325000Y-111625000D03*
X144675000Y-108575000D03*
X141325000Y-108575000D03*
D17*
X149300000Y-112380000D03*
X149300000Y-107820000D03*
%TD*%
D10*
%TO.C,C2*%
X149900000Y-101320000D03*
X149900000Y-102280000D03*
%TD*%
D18*
%TO.C,U4*%
X134220000Y-111915000D03*
X135490000Y-111915000D03*
X136760000Y-111915000D03*
X138030000Y-111915000D03*
X138030000Y-106965000D03*
X136760000Y-106965000D03*
X135490000Y-106965000D03*
X134220000Y-106965000D03*
%TD*%
D19*
%TO.C,Q7*%
X145575000Y-94337500D03*
X147475000Y-94337500D03*
X146525000Y-92462500D03*
%TD*%
D20*
%TO.C,C1*%
X151500000Y-111780000D03*
X151500000Y-110820000D03*
%TD*%
D10*
%TO.C,R5*%
X148725000Y-92420000D03*
X148725000Y-93380000D03*
%TD*%
D13*
%TO.C,Q6*%
X143375000Y-97810000D03*
X145275000Y-97810000D03*
X144325000Y-95190000D03*
%TD*%
D11*
%TO.C,R1*%
X152820000Y-98700000D03*
X153780000Y-98700000D03*
%TD*%
D10*
%TO.C,R4*%
X137500000Y-95920000D03*
X137500000Y-96880000D03*
%TD*%
D19*
%TO.C,Q5*%
X141175000Y-94337500D03*
X143075000Y-94337500D03*
X142125000Y-92462500D03*
%TD*%
D10*
%TO.C,R6*%
X139825000Y-92420000D03*
X139825000Y-93380000D03*
%TD*%
D19*
%TO.C,Q4*%
X149975000Y-94337500D03*
X151875000Y-94337500D03*
X150925000Y-92462500D03*
%TD*%
D11*
%TO.C,R7*%
X135645000Y-104639999D03*
X136605000Y-104639999D03*
%TD*%
D18*
%TO.C,U2*%
X151395000Y-105875000D03*
X152665000Y-105875000D03*
X153935000Y-105875000D03*
X155205000Y-105875000D03*
X155205000Y-100925000D03*
X153935000Y-100925000D03*
X152665000Y-100925000D03*
X151395000Y-100925000D03*
%TD*%
M02*
