%TF.GenerationSoftware,KiCad,Pcbnew,(6.0.4)*%
%TF.CreationDate,2022-07-19T00:56:17+02:00*%
%TF.ProjectId,Controller_Window,436f6e74-726f-46c6-9c65-725f57696e64,rev?*%
%TF.SameCoordinates,Original*%
%TF.FileFunction,Soldermask,Top*%
%TF.FilePolarity,Negative*%
%FSLAX46Y46*%
G04 Gerber Fmt 4.6, Leading zero omitted, Abs format (unit mm)*
G04 Created by KiCad (PCBNEW (6.0.4)) date 2022-07-19 00:56:17*
%MOMM*%
%LPD*%
G01*
G04 APERTURE LIST*
G04 Aperture macros list*
%AMRoundRect*
0 Rectangle with rounded corners*
0 $1 Rounding radius*
0 $2 $3 $4 $5 $6 $7 $8 $9 X,Y pos of 4 corners*
0 Add a 4 corners polygon primitive as box body*
4,1,4,$2,$3,$4,$5,$6,$7,$8,$9,$2,$3,0*
0 Add four circle primitives for the rounded corners*
1,1,$1+$1,$2,$3*
1,1,$1+$1,$4,$5*
1,1,$1+$1,$6,$7*
1,1,$1+$1,$8,$9*
0 Add four rect primitives between the rounded corners*
20,1,$1+$1,$2,$3,$4,$5,0*
20,1,$1+$1,$4,$5,$6,$7,0*
20,1,$1+$1,$6,$7,$8,$9,0*
20,1,$1+$1,$8,$9,$2,$3,0*%
G04 Aperture macros list end*
%ADD10RoundRect,0.140000X-0.170000X0.140000X-0.170000X-0.140000X0.170000X-0.140000X0.170000X0.140000X0*%
%ADD11RoundRect,0.140000X-0.140000X-0.170000X0.140000X-0.170000X0.140000X0.170000X-0.140000X0.170000X0*%
%ADD12RoundRect,0.140000X0.140000X0.170000X-0.140000X0.170000X-0.140000X-0.170000X0.140000X-0.170000X0*%
%ADD13R,0.650000X1.220000*%
%ADD14RoundRect,0.250000X0.350000X0.625000X-0.350000X0.625000X-0.350000X-0.625000X0.350000X-0.625000X0*%
%ADD15O,1.200000X1.750000*%
%ADD16RoundRect,0.150000X-0.587500X-0.150000X0.587500X-0.150000X0.587500X0.150000X-0.587500X0.150000X0*%
%ADD17RoundRect,0.150000X-0.825000X-0.150000X0.825000X-0.150000X0.825000X0.150000X-0.825000X0.150000X0*%
%ADD18R,2.200000X1.200000*%
%ADD19R,6.400000X5.800000*%
%ADD20RoundRect,0.150000X0.150000X-0.825000X0.150000X0.825000X-0.150000X0.825000X-0.150000X-0.825000X0*%
%ADD21RoundRect,0.150000X0.150000X-0.587500X0.150000X0.587500X-0.150000X0.587500X-0.150000X-0.587500X0*%
%ADD22RoundRect,0.140000X0.170000X-0.140000X0.170000X0.140000X-0.170000X0.140000X-0.170000X-0.140000X0*%
%ADD23RoundRect,0.250001X1.549999X-0.799999X1.549999X0.799999X-1.549999X0.799999X-1.549999X-0.799999X0*%
%ADD24O,3.600000X2.100000*%
%ADD25RoundRect,0.250001X-1.549999X0.799999X-1.549999X-0.799999X1.549999X-0.799999X1.549999X0.799999X0*%
%ADD26C,0.800000*%
G04 APERTURE END LIST*
D10*
%TO.C,R8*%
X142100000Y-95920000D03*
X142100000Y-96880000D03*
%TD*%
D11*
%TO.C,R2*%
X153320000Y-108400000D03*
X154280000Y-108400000D03*
%TD*%
D12*
%TO.C,C5*%
X134230000Y-105100000D03*
X133270000Y-105100000D03*
%TD*%
D10*
%TO.C,R9*%
X144325000Y-92420000D03*
X144325000Y-93380000D03*
%TD*%
D13*
%TO.C,Q2*%
X147775000Y-97810000D03*
X149675000Y-97810000D03*
X148725000Y-95190000D03*
%TD*%
D10*
%TO.C,C4*%
X147950000Y-101320000D03*
X147950000Y-102280000D03*
%TD*%
D12*
%TO.C,C3*%
X148930000Y-105850000D03*
X147970000Y-105850000D03*
%TD*%
D14*
%TO.C,J3*%
X148900000Y-89450000D03*
D15*
X146900000Y-89450000D03*
X144900000Y-89450000D03*
X142900000Y-89450000D03*
%TD*%
D16*
%TO.C,Q1*%
X153262500Y-109850000D03*
X153262500Y-111750000D03*
X155137500Y-110800000D03*
%TD*%
D10*
%TO.C,R3*%
X146600000Y-95920000D03*
X146600000Y-96880000D03*
%TD*%
D13*
%TO.C,Q3*%
X138875000Y-97810000D03*
X140775000Y-97810000D03*
X139825000Y-95190000D03*
%TD*%
D17*
%TO.C,U3*%
X141025000Y-101295000D03*
X141025000Y-102565000D03*
X141025000Y-103835000D03*
X141025000Y-105105000D03*
X145975000Y-105105000D03*
X145975000Y-103835000D03*
X145975000Y-102565000D03*
X145975000Y-101295000D03*
%TD*%
D18*
%TO.C,U1*%
X149300000Y-112380000D03*
D19*
X143000000Y-110100000D03*
D18*
X149300000Y-107820000D03*
%TD*%
D10*
%TO.C,C2*%
X149900000Y-101320000D03*
X149900000Y-102280000D03*
%TD*%
D20*
%TO.C,U4*%
X134220000Y-111915000D03*
X135490000Y-111915000D03*
X136760000Y-111915000D03*
X138030000Y-111915000D03*
X138030000Y-106965000D03*
X136760000Y-106965000D03*
X135490000Y-106965000D03*
X134220000Y-106965000D03*
%TD*%
D21*
%TO.C,Q7*%
X145575000Y-94337500D03*
X147475000Y-94337500D03*
X146525000Y-92462500D03*
%TD*%
D22*
%TO.C,C1*%
X151500000Y-111780000D03*
X151500000Y-110820000D03*
%TD*%
D10*
%TO.C,R5*%
X148725000Y-92420000D03*
X148725000Y-93380000D03*
%TD*%
D13*
%TO.C,Q6*%
X143375000Y-97810000D03*
X145275000Y-97810000D03*
X144325000Y-95190000D03*
%TD*%
D11*
%TO.C,R1*%
X152820000Y-98700000D03*
X153780000Y-98700000D03*
%TD*%
D23*
%TO.C,J1*%
X159122500Y-110730000D03*
D24*
X159122500Y-103110000D03*
X159122500Y-95490000D03*
X159122500Y-87870000D03*
%TD*%
D10*
%TO.C,R4*%
X137500000Y-95920000D03*
X137500000Y-96880000D03*
%TD*%
D21*
%TO.C,Q5*%
X141175000Y-94337500D03*
X143075000Y-94337500D03*
X142125000Y-92462500D03*
%TD*%
D25*
%TO.C,J2*%
X130052500Y-87870000D03*
D24*
X130052500Y-95490000D03*
X130052500Y-103110000D03*
X130052500Y-110730000D03*
%TD*%
D10*
%TO.C,R6*%
X139825000Y-92420000D03*
X139825000Y-93380000D03*
%TD*%
D21*
%TO.C,Q4*%
X149975000Y-94337500D03*
X151875000Y-94337500D03*
X150925000Y-92462500D03*
%TD*%
D11*
%TO.C,R7*%
X135645000Y-104639999D03*
X136605000Y-104639999D03*
%TD*%
D20*
%TO.C,U2*%
X151395000Y-105875000D03*
X152665000Y-105875000D03*
X153935000Y-105875000D03*
X155205000Y-105875000D03*
X155205000Y-100925000D03*
X153935000Y-100925000D03*
X152665000Y-100925000D03*
X151395000Y-100925000D03*
%TD*%
D26*
X148700000Y-91700000D03*
X151500000Y-112800000D03*
X144300000Y-91700000D03*
X139800000Y-91700000D03*
X151500000Y-109900000D03*
X150475000Y-97800000D03*
X141300000Y-111600000D03*
X149900000Y-103000000D03*
X144200000Y-109000000D03*
X138000000Y-105300000D03*
X156100000Y-100900000D03*
X147850500Y-103050000D03*
X151875000Y-95550000D03*
X147475000Y-95550000D03*
X143075000Y-95550000D03*
X153300000Y-107200000D03*
X155000000Y-108400000D03*
X144200000Y-111600000D03*
X132300000Y-105100000D03*
X146025000Y-97800000D03*
X141525000Y-97800000D03*
X139400000Y-105075989D03*
X141300000Y-109000000D03*
M02*
