%TF.GenerationSoftware,KiCad,Pcbnew,(6.0.4)*%
%TF.CreationDate,2022-07-19T00:25:02+02:00*%
%TF.ProjectId,Controller_Room,436f6e74-726f-46c6-9c65-725f526f6f6d,rev?*%
%TF.SameCoordinates,Original*%
%TF.FileFunction,Soldermask,Top*%
%TF.FilePolarity,Negative*%
%FSLAX46Y46*%
G04 Gerber Fmt 4.6, Leading zero omitted, Abs format (unit mm)*
G04 Created by KiCad (PCBNEW (6.0.4)) date 2022-07-19 00:25:02*
%MOMM*%
%LPD*%
G01*
G04 APERTURE LIST*
G04 Aperture macros list*
%AMRoundRect*
0 Rectangle with rounded corners*
0 $1 Rounding radius*
0 $2 $3 $4 $5 $6 $7 $8 $9 X,Y pos of 4 corners*
0 Add a 4 corners polygon primitive as box body*
4,1,4,$2,$3,$4,$5,$6,$7,$8,$9,$2,$3,0*
0 Add four circle primitives for the rounded corners*
1,1,$1+$1,$2,$3*
1,1,$1+$1,$4,$5*
1,1,$1+$1,$6,$7*
1,1,$1+$1,$8,$9*
0 Add four rect primitives between the rounded corners*
20,1,$1+$1,$2,$3,$4,$5,0*
20,1,$1+$1,$4,$5,$6,$7,0*
20,1,$1+$1,$6,$7,$8,$9,0*
20,1,$1+$1,$8,$9,$2,$3,0*%
%AMRotRect*
0 Rectangle, with rotation*
0 The origin of the aperture is its center*
0 $1 length*
0 $2 width*
0 $3 Rotation angle, in degrees counterclockwise*
0 Add horizontal line*
21,1,$1,$2,0,0,$3*%
G04 Aperture macros list end*
%ADD10C,3.250000*%
%ADD11R,1.900000X1.900000*%
%ADD12C,1.900000*%
%ADD13C,2.100000*%
%ADD14C,2.600000*%
%ADD15R,0.950000X1.230000*%
%ADD16R,0.630000X0.500000*%
%ADD17R,1.230000X0.950000*%
%ADD18R,0.500000X0.630000*%
%ADD19R,1.100000X1.300000*%
%ADD20RoundRect,0.250001X1.549999X-0.799999X1.549999X0.799999X-1.549999X0.799999X-1.549999X-0.799999X0*%
%ADD21O,3.600000X2.100000*%
%ADD22RoundRect,0.140000X-0.140000X-0.170000X0.140000X-0.170000X0.140000X0.170000X-0.140000X0.170000X0*%
%ADD23O,3.500000X2.000000*%
%ADD24O,2.000000X4.000000*%
%ADD25C,3.000000*%
%ADD26C,1.700000*%
%ADD27RoundRect,0.147500X0.147500X0.172500X-0.147500X0.172500X-0.147500X-0.172500X0.147500X-0.172500X0*%
%ADD28C,3.200000*%
%ADD29RoundRect,0.135000X-0.185000X0.135000X-0.185000X-0.135000X0.185000X-0.135000X0.185000X0.135000X0*%
%ADD30RoundRect,0.140000X0.021213X-0.219203X0.219203X-0.021213X-0.021213X0.219203X-0.219203X0.021213X0*%
%ADD31RoundRect,0.140000X-0.170000X0.140000X-0.170000X-0.140000X0.170000X-0.140000X0.170000X0.140000X0*%
%ADD32RoundRect,0.250000X0.625000X-0.350000X0.625000X0.350000X-0.625000X0.350000X-0.625000X-0.350000X0*%
%ADD33O,1.750000X1.200000*%
%ADD34RoundRect,0.135000X0.185000X-0.135000X0.185000X0.135000X-0.185000X0.135000X-0.185000X-0.135000X0*%
%ADD35RoundRect,0.140000X0.140000X0.170000X-0.140000X0.170000X-0.140000X-0.170000X0.140000X-0.170000X0*%
%ADD36RoundRect,0.250000X0.550000X-1.250000X0.550000X1.250000X-0.550000X1.250000X-0.550000X-1.250000X0*%
%ADD37R,1.700000X1.700000*%
%ADD38O,1.700000X1.700000*%
%ADD39RoundRect,0.140000X-0.021213X0.219203X-0.219203X0.021213X0.021213X-0.219203X0.219203X-0.021213X0*%
%ADD40R,1.700000X1.000000*%
%ADD41RoundRect,0.140000X-0.219203X-0.021213X-0.021213X-0.219203X0.219203X0.021213X0.021213X0.219203X0*%
%ADD42RoundRect,0.140000X0.170000X-0.140000X0.170000X0.140000X-0.170000X0.140000X-0.170000X-0.140000X0*%
%ADD43RoundRect,0.140000X0.219203X0.021213X0.021213X0.219203X-0.219203X-0.021213X-0.021213X-0.219203X0*%
%ADD44RoundRect,0.135000X0.135000X0.185000X-0.135000X0.185000X-0.135000X-0.185000X0.135000X-0.185000X0*%
%ADD45RoundRect,0.147500X-0.172500X0.147500X-0.172500X-0.147500X0.172500X-0.147500X0.172500X0.147500X0*%
%ADD46RoundRect,0.150000X0.512500X0.150000X-0.512500X0.150000X-0.512500X-0.150000X0.512500X-0.150000X0*%
%ADD47RoundRect,0.150000X-0.150000X0.825000X-0.150000X-0.825000X0.150000X-0.825000X0.150000X0.825000X0*%
%ADD48R,2.000000X0.900000*%
%ADD49R,0.900000X2.000000*%
%ADD50R,5.000000X5.000000*%
%ADD51R,2.350000X3.500000*%
%ADD52R,1.000000X1.700000*%
%ADD53RoundRect,0.150000X0.587500X0.150000X-0.587500X0.150000X-0.587500X-0.150000X0.587500X-0.150000X0*%
%ADD54RoundRect,0.062500X-0.203293X-0.291682X0.291682X0.203293X0.203293X0.291682X-0.291682X-0.203293X0*%
%ADD55RoundRect,0.062500X0.203293X-0.291682X0.291682X-0.203293X-0.203293X0.291682X-0.291682X0.203293X0*%
%ADD56RotRect,2.600000X2.600000X45.000000*%
%ADD57C,0.600000*%
%ADD58C,0.800000*%
%ADD59C,0.400000*%
G04 APERTURE END LIST*
D10*
%TO.C,J2*%
X140175000Y-119610000D03*
X140175000Y-108180000D03*
D11*
X146525000Y-109450000D03*
D12*
X149065000Y-110720000D03*
X146525000Y-111990000D03*
X149065000Y-113260000D03*
X146525000Y-114530000D03*
X149065000Y-115800000D03*
X146525000Y-117070000D03*
X149065000Y-118340000D03*
D13*
X135275000Y-107270000D03*
X135275000Y-109810000D03*
X135275000Y-117980000D03*
X135275000Y-120520000D03*
D14*
X143225000Y-121640000D03*
X143225000Y-106150000D03*
%TD*%
D15*
%TO.C,M2*%
X157360000Y-80415000D03*
D16*
X157940000Y-80055000D03*
X157940000Y-80695000D03*
D15*
X156410000Y-80415000D03*
X157360000Y-81635000D03*
D16*
X157940000Y-81355000D03*
X157940000Y-81995000D03*
D15*
X156410000Y-81635000D03*
D16*
X155060000Y-81995000D03*
X155060000Y-81355000D03*
X155060000Y-80695000D03*
X155060000Y-80055000D03*
%TD*%
D17*
%TO.C,M1*%
X148310000Y-91735000D03*
D18*
X148670000Y-92315000D03*
X148030000Y-92315000D03*
D17*
X148310000Y-90785000D03*
X147090000Y-91735000D03*
D18*
X147370000Y-92315000D03*
X146730000Y-92315000D03*
D17*
X147090000Y-90785000D03*
D18*
X146730000Y-89435000D03*
X147370000Y-89435000D03*
X148030000Y-89435000D03*
X148670000Y-89435000D03*
%TD*%
D19*
%TO.C,X1*%
X164425000Y-113725000D03*
X164425000Y-111625000D03*
X166075000Y-111625000D03*
X166075000Y-113725000D03*
%TD*%
D20*
%TO.C,J6*%
X196120500Y-116078000D03*
D21*
X196120500Y-108458000D03*
X196120500Y-100838000D03*
X196120500Y-93218000D03*
%TD*%
D22*
%TO.C,C18*%
X165570000Y-110050000D03*
X166530000Y-110050000D03*
%TD*%
D23*
%TO.C,J1*%
X135575000Y-97200000D03*
X140275000Y-97200000D03*
X140275000Y-87500000D03*
X135575000Y-87500000D03*
D24*
X136075000Y-92350000D03*
D25*
X143775000Y-92350000D03*
D26*
X132825000Y-92350000D03*
%TD*%
D22*
%TO.C,C15*%
X152195000Y-108350000D03*
X153155000Y-108350000D03*
%TD*%
D27*
%TO.C,D4*%
X146940000Y-86925000D03*
X147910000Y-86925000D03*
%TD*%
D28*
%TO.C,H1*%
X134275000Y-81425000D03*
%TD*%
D29*
%TO.C,R7*%
X185325000Y-92080001D03*
X185325000Y-93100001D03*
%TD*%
D22*
%TO.C,R21*%
X152170000Y-111375000D03*
X153130000Y-111375000D03*
%TD*%
D30*
%TO.C,C9*%
X160760589Y-112264411D03*
X161439411Y-111585589D03*
%TD*%
D31*
%TO.C,R13*%
X191675000Y-119140000D03*
X191675000Y-120100000D03*
%TD*%
D32*
%TO.C,J4*%
X174825000Y-97050000D03*
D33*
X174825000Y-95050000D03*
X174825000Y-93050000D03*
X174825000Y-91050000D03*
%TD*%
D22*
%TO.C,R26*%
X164603000Y-87630000D03*
X163643000Y-87630000D03*
%TD*%
%TO.C,C16*%
X164420001Y-115250000D03*
X165380001Y-115250000D03*
%TD*%
D31*
%TO.C,C1*%
X150650000Y-89030000D03*
X150650000Y-88070000D03*
%TD*%
D22*
%TO.C,C14*%
X152200000Y-107200000D03*
X153160000Y-107200000D03*
%TD*%
D34*
%TO.C,R8*%
X185300000Y-96135000D03*
X185300000Y-95115000D03*
%TD*%
D35*
%TO.C,R12*%
X165455000Y-123550000D03*
X164495000Y-123550000D03*
%TD*%
%TO.C,R20*%
X153155000Y-116950000D03*
X152195000Y-116950000D03*
%TD*%
D36*
%TO.C,C2*%
X149900000Y-81050000D03*
X149900000Y-85450000D03*
%TD*%
D29*
%TO.C,R10*%
X156125000Y-90085000D03*
X156125000Y-89065000D03*
%TD*%
D37*
%TO.C,J7*%
X142805000Y-129775000D03*
D38*
X145345000Y-129775000D03*
X147885000Y-129775000D03*
X150425000Y-129775000D03*
X152965000Y-129775000D03*
X155505000Y-129775000D03*
%TD*%
D34*
%TO.C,R2*%
X143675000Y-83990000D03*
X143675000Y-85010000D03*
%TD*%
D39*
%TO.C,C11*%
X159514411Y-117385589D03*
X158835589Y-118064411D03*
%TD*%
D29*
%TO.C,R6*%
X153750000Y-82285000D03*
X153750000Y-81265000D03*
%TD*%
D37*
%TO.C,J8*%
X181450000Y-103125000D03*
D38*
X178910000Y-103125000D03*
%TD*%
D40*
%TO.C,SW2*%
X190500000Y-126125000D03*
X196800000Y-126125000D03*
X190500000Y-122325000D03*
X196800000Y-122325000D03*
%TD*%
D41*
%TO.C,C13*%
X156010589Y-117585589D03*
X156689411Y-118264411D03*
%TD*%
D39*
%TO.C,R16*%
X162339411Y-112460589D03*
X161660589Y-113139411D03*
%TD*%
D34*
%TO.C,R11*%
X157275000Y-89065000D03*
X157275000Y-90085000D03*
%TD*%
D28*
%TO.C,H4*%
X202575000Y-128800000D03*
%TD*%
D32*
%TO.C,J5*%
X181300000Y-97100000D03*
D33*
X181300000Y-95100000D03*
X181300000Y-93100000D03*
X181300000Y-91100000D03*
%TD*%
D39*
%TO.C,C10*%
X160271015Y-118149264D03*
X159592193Y-118828086D03*
%TD*%
%TO.C,R18*%
X160589411Y-110760589D03*
X159910589Y-111439411D03*
%TD*%
D42*
%TO.C,C8*%
X190500000Y-120100000D03*
X190500000Y-119140000D03*
%TD*%
D43*
%TO.C,R14*%
X160914411Y-117314411D03*
X160235589Y-116635589D03*
%TD*%
D22*
%TO.C,R17*%
X152195000Y-119400000D03*
X153155000Y-119400000D03*
%TD*%
D28*
%TO.C,H3*%
X134275000Y-128800000D03*
%TD*%
D44*
%TO.C,R9*%
X189535000Y-103349999D03*
X188515000Y-103349999D03*
%TD*%
%TO.C,R4*%
X145915000Y-88050000D03*
X146935000Y-88050000D03*
%TD*%
D22*
%TO.C,C7*%
X164495001Y-124725000D03*
X165455001Y-124725000D03*
%TD*%
D45*
%TO.C,D2*%
X143675000Y-82610000D03*
X143675000Y-81640000D03*
%TD*%
D22*
%TO.C,R24*%
X152170000Y-112750000D03*
X153130000Y-112750000D03*
%TD*%
D31*
%TO.C,C5*%
X159375000Y-96105000D03*
X159375000Y-95145000D03*
%TD*%
D22*
%TO.C,R23*%
X152170000Y-114275000D03*
X153130000Y-114275000D03*
%TD*%
D46*
%TO.C,IC1*%
X152262500Y-89000000D03*
X152262500Y-88050000D03*
X152262500Y-87100000D03*
X154537500Y-87100000D03*
X154537500Y-88050000D03*
X154537500Y-89000000D03*
%TD*%
D36*
%TO.C,C6*%
X161675000Y-89250000D03*
X161675000Y-93650000D03*
%TD*%
D28*
%TO.C,H2*%
X202575000Y-81425000D03*
%TD*%
D47*
%TO.C,U3*%
X190930000Y-96525000D03*
X189660000Y-96525000D03*
X188390000Y-96525000D03*
X187120000Y-96525000D03*
X187120000Y-101475000D03*
X188390000Y-101475000D03*
X189660000Y-101475000D03*
X190930000Y-101475000D03*
%TD*%
D35*
%TO.C,R19*%
X153155000Y-118300000D03*
X152195000Y-118300000D03*
%TD*%
D43*
%TO.C,R15*%
X162089411Y-116164411D03*
X161410589Y-115485589D03*
%TD*%
D48*
%TO.C,U1*%
X187300000Y-124480000D03*
X187300000Y-123210000D03*
X187300000Y-121940000D03*
X187300000Y-120670000D03*
X187300000Y-119400000D03*
X187300000Y-118130000D03*
X187300000Y-116860000D03*
X187300000Y-115590000D03*
X187300000Y-114320000D03*
X187300000Y-113050000D03*
X187300000Y-111780000D03*
X187300000Y-110510000D03*
X187300000Y-109240000D03*
X187300000Y-107970000D03*
D49*
X184515000Y-106970000D03*
X183245000Y-106970000D03*
X181975000Y-106970000D03*
X180705000Y-106970000D03*
X179435000Y-106970000D03*
X178165000Y-106970000D03*
X176895000Y-106970000D03*
X175625000Y-106970000D03*
X174355000Y-106970000D03*
X173085000Y-106970000D03*
D48*
X170300000Y-107970000D03*
X170300000Y-109240000D03*
X170300000Y-110510000D03*
X170300000Y-111780000D03*
X170300000Y-113050000D03*
X170300000Y-114320000D03*
X170300000Y-115590000D03*
X170300000Y-116860000D03*
X170300000Y-118130000D03*
X170300000Y-119400000D03*
X170300000Y-120670000D03*
X170300000Y-121940000D03*
X170300000Y-123210000D03*
X170300000Y-124480000D03*
D50*
X179800000Y-116980000D03*
%TD*%
D34*
%TO.C,R1*%
X142450000Y-83990000D03*
X142450000Y-85010000D03*
%TD*%
%TO.C,R5*%
X157450000Y-85475000D03*
X157450000Y-86495000D03*
%TD*%
D41*
%TO.C,C12*%
X155246914Y-118342193D03*
X155925736Y-119021015D03*
%TD*%
D42*
%TO.C,C3*%
X192450000Y-101480000D03*
X192450000Y-100520000D03*
%TD*%
D51*
%TO.C,L1*%
X156975000Y-94450000D03*
X150925000Y-94450000D03*
%TD*%
D31*
%TO.C,C17*%
X165800000Y-88580000D03*
X165800000Y-87620000D03*
%TD*%
D37*
%TO.C,J10*%
X190875000Y-107850000D03*
D38*
X190875000Y-110390000D03*
X190875000Y-112930000D03*
X190875000Y-115470000D03*
%TD*%
D45*
%TO.C,D3*%
X144900000Y-82610000D03*
X144900000Y-81640000D03*
%TD*%
D47*
%TO.C,U4*%
X163488000Y-85533000D03*
X162218000Y-85533000D03*
X160948000Y-85533000D03*
X159678000Y-85533000D03*
X159678000Y-80583000D03*
X160948000Y-80583000D03*
X162218000Y-80583000D03*
X163488000Y-80583000D03*
%TD*%
D35*
%TO.C,L2*%
X153155000Y-106050000D03*
X152195000Y-106050000D03*
%TD*%
%TO.C,R25*%
X153130000Y-115825000D03*
X152170000Y-115825000D03*
%TD*%
D22*
%TO.C,R22*%
X152185000Y-109650000D03*
X153145000Y-109650000D03*
%TD*%
D35*
%TO.C,C4*%
X152920000Y-90375000D03*
X153880000Y-90375000D03*
%TD*%
D34*
%TO.C,R3*%
X144900000Y-83990000D03*
X144900000Y-85010000D03*
%TD*%
D52*
%TO.C,SW1*%
X158925000Y-124175000D03*
X158925000Y-130475000D03*
X162725000Y-130475000D03*
X162725000Y-124175000D03*
%TD*%
D45*
%TO.C,D1*%
X142450000Y-82610000D03*
X142450000Y-81640000D03*
%TD*%
D53*
%TO.C,Q1*%
X153887500Y-84525000D03*
X155762500Y-83575000D03*
X155762500Y-85475000D03*
%TD*%
D54*
%TO.C,U2*%
X155271097Y-114786136D03*
X155624651Y-115139689D03*
X155978204Y-115493243D03*
X156331757Y-115846796D03*
X156685311Y-116200349D03*
X157038864Y-116553903D03*
D55*
X158011136Y-116553903D03*
X158364689Y-116200349D03*
X158718243Y-115846796D03*
X159071796Y-115493243D03*
X159425349Y-115139689D03*
X159778903Y-114786136D03*
D54*
X159778903Y-113813864D03*
X159425349Y-113460311D03*
X159071796Y-113106757D03*
X158718243Y-112753204D03*
X158364689Y-112399651D03*
X158011136Y-112046097D03*
D55*
X157038864Y-112046097D03*
X156685311Y-112399651D03*
X156331757Y-112753204D03*
X155978204Y-113106757D03*
X155624651Y-113460311D03*
X155271097Y-113813864D03*
D56*
X157525000Y-114300000D03*
%TD*%
D57*
X167300000Y-110050000D03*
D58*
X168000000Y-91000000D03*
X167925000Y-87875000D03*
D59*
X154225000Y-115375000D03*
D57*
X151450000Y-114275000D03*
X151450000Y-108325000D03*
X151450000Y-112750000D03*
X151450000Y-111375000D03*
X172150000Y-119075000D03*
X158760294Y-119444989D03*
X172125000Y-118150000D03*
X161000000Y-119025000D03*
X172050000Y-117300000D03*
X161017628Y-116305194D03*
X159800000Y-116450000D03*
X172075000Y-116350000D03*
X163250001Y-117119017D03*
X165228143Y-117124560D03*
X168425000Y-115600000D03*
X159671714Y-109468092D03*
X160015097Y-110190097D03*
X167725000Y-116100000D03*
X162075000Y-113950000D03*
X158636230Y-110286230D03*
X160750001Y-113499999D03*
X168325000Y-123650000D03*
D58*
X142450000Y-80650000D03*
X143675000Y-80625000D03*
X165800000Y-89550000D03*
X159675000Y-87275000D03*
D57*
X157525000Y-113475000D03*
D58*
X158225000Y-90075000D03*
D57*
X158603936Y-114298500D03*
D58*
X145900000Y-87025000D03*
D57*
X187125000Y-103025000D03*
X178075000Y-118100000D03*
X156533837Y-114298500D03*
D58*
X150650000Y-89900000D03*
D57*
X184500000Y-105250000D03*
X179875000Y-116925000D03*
X189525000Y-119775000D03*
X156675000Y-118950000D03*
D58*
X192450000Y-99550000D03*
X160025000Y-130475000D03*
D57*
X166150000Y-115275000D03*
D58*
X166400000Y-124725000D03*
D57*
X161950000Y-111099500D03*
X158813256Y-118647242D03*
X159325000Y-97000000D03*
X154140573Y-108278149D03*
X181525000Y-118100000D03*
D58*
X148375000Y-81026000D03*
D57*
X181525000Y-115800000D03*
X154125000Y-107175000D03*
D58*
X155741000Y-84575500D03*
X160225000Y-89250000D03*
D57*
X193650000Y-125150000D03*
X178075000Y-115800000D03*
D58*
X160125000Y-124175000D03*
X155900000Y-88050000D03*
D57*
X167000000Y-111625000D03*
X185775000Y-124475000D03*
D58*
X148375000Y-80010000D03*
D57*
X161575000Y-100425000D03*
X188875000Y-123200000D03*
X164950000Y-116375000D03*
X192450000Y-102400000D03*
X162025000Y-99975000D03*
X162325000Y-96700000D03*
X162578023Y-116685833D03*
X191675000Y-118325000D03*
X162325000Y-96000000D03*
X163200000Y-111650000D03*
X151743003Y-120043003D03*
X173625000Y-108525000D03*
X171675001Y-109200000D03*
X147625000Y-86000000D03*
X142425000Y-85938994D03*
M02*
