M48
; DRILL file {KiCad (6.0.4)} date Tue Jul 19 00:25:02 2022
; FORMAT={-:-/ absolute / inch / decimal}
; #@! TF.CreationDate,2022-07-19T00:25:02+02:00
; #@! TF.GenerationSoftware,Kicad,Pcbnew,(6.0.4)
; #@! TF.FileFunction,Plated,1,2,PTH
FMAT,2
INCH
; #@! TA.AperFunction,Plated,PTH,ViaDrill
T1C0.0079
; #@! TA.AperFunction,Plated,PTH,ViaDrill
T2C0.0118
; #@! TA.AperFunction,Plated,PTH,ViaDrill
T3C0.0157
; #@! TA.AperFunction,Plated,PTH,ComponentDrill
T4C0.0295
; #@! TA.AperFunction,Plated,PTH,ComponentDrill
T5C0.0315
; #@! TA.AperFunction,Plated,PTH,ComponentDrill
T6C0.0354
; #@! TA.AperFunction,Plated,PTH,ComponentDrill
T7C0.0394
; #@! TA.AperFunction,Plated,PTH,ComponentDrill
T8C0.0433
; #@! TA.AperFunction,Plated,PTH,ComponentDrill
T9C0.0551
; #@! TA.AperFunction,Plated,PTH,ComponentDrill
T10C0.0591
; #@! TA.AperFunction,Plated,PTH,ComponentDrill
T11C0.0630
%
G90
G05
T1
X6.0719Y-4.5423
T2
X5.6073Y-3.3834
X5.812Y-3.3858
X5.9626Y-4.2648
X5.9626Y-4.3848
X5.9626Y-4.439
X5.9626Y-4.499
X5.9741Y-4.7261
X6.0679Y-4.2195
X6.0685Y-4.2629
X6.1627Y-4.4999
X6.1683Y-4.6831
X6.2018Y-4.4675
X6.2442Y-4.4999
X6.2455Y-4.342
X6.2504Y-4.7026
X6.2525Y-4.6712
X6.2726Y-3.8189
X6.2863Y-4.3098
X6.2913Y-4.5846
X6.2998Y-4.3382
X6.3287Y-4.4685
X6.3386Y-4.686
X6.3393Y-4.5789
X6.3612Y-3.9537
X6.376Y-4.374
X6.3789Y-3.936
X6.3809Y-4.4862
X6.3907Y-3.7795
X6.3907Y-3.8071
X6.4007Y-4.5939
X6.4252Y-4.3957
X6.4272Y-4.611
X6.4941Y-4.5817
X6.505Y-4.6112
X6.5413Y-4.5384
X6.5748Y-4.3947
X6.5866Y-4.3327
X6.6033Y-4.5709
X6.627Y-4.8681
X6.6309Y-4.5512
X6.7589Y-4.2992
X6.7736Y-4.6181
X6.7746Y-4.5807
X6.7766Y-4.6516
X6.7776Y-4.688
X6.8356Y-4.2726
X7.0108Y-4.5591
X7.0108Y-4.6496
X7.0817Y-4.6033
X7.1467Y-4.5591
X7.1467Y-4.6496
X7.2638Y-4.1437
X7.314Y-4.9006
X7.3671Y-4.0561
X7.436Y-4.8504
X7.4616Y-4.7156
X7.5463Y-4.6585
X7.5768Y-4.0315
X7.624Y-4.9272
T3
X5.6083Y-3.1752
X5.6565Y-3.1742
X5.7441Y-3.4262
X5.8415Y-3.15
X5.8415Y-3.19
X5.9311Y-3.5394
X6.1315Y-3.3297
X6.1378Y-3.4665
X6.2293Y-3.5463
X6.2864Y-3.436
X6.3002Y-5.1368
X6.3041Y-4.8888
X6.3081Y-3.5138
X6.5276Y-3.5256
X6.5512Y-4.9104
X6.6112Y-3.4596
X6.6142Y-3.5827
X7.5768Y-3.9193
T4
X6.8829Y-3.5846
X6.8829Y-3.6634
X6.8829Y-3.7421
X6.8829Y-3.8209
X7.1378Y-3.5866
X7.1378Y-3.6654
X7.1378Y-3.7441
X7.1378Y-3.8228
T6
X5.7687Y-4.3091
X5.7687Y-4.4091
X5.7687Y-4.5091
X5.7687Y-4.6091
X5.8687Y-4.3591
X5.8687Y-4.4591
X5.8687Y-4.5591
X5.8687Y-4.6591
T7
X5.6222Y-5.1093
X5.7222Y-5.1093
X5.8222Y-5.1093
X5.9222Y-5.1093
X6.0222Y-5.1093
X6.1222Y-5.1093
X7.0437Y-4.06
X7.1437Y-4.06
X7.5148Y-4.2461
X7.5148Y-4.3461
X7.5148Y-4.4461
X7.5148Y-4.5461
T8
X5.3258Y-4.2232
X5.3258Y-4.3232
X5.3258Y-4.6449
X5.3258Y-4.7449
T9
X7.7213Y-3.67
X7.7213Y-3.97
X7.7213Y-4.27
X7.7213Y-4.57
T10
X5.6604Y-3.6358
T11
X5.6388Y-4.1791
X5.6388Y-4.789
T5
G00X5.3573Y-3.5925
M15
G01X5.3573Y-3.6791
M16
G05
T7
G00X5.3671Y-3.4449
M15
G01X5.3081Y-3.4449
M16
G05
G00X5.3671Y-3.8268
M15
G01X5.3081Y-3.8268
M16
G05
G00X5.5522Y-3.4449
M15
G01X5.4931Y-3.4449
M16
G05
G00X5.5522Y-3.8268
M15
G01X5.4931Y-3.8268
M16
G05
T0
M30
