%TF.GenerationSoftware,KiCad,Pcbnew,(6.0.4)*%
%TF.CreationDate,2022-07-19T00:25:02+02:00*%
%TF.ProjectId,Controller_Room,436f6e74-726f-46c6-9c65-725f526f6f6d,rev?*%
%TF.SameCoordinates,Original*%
%TF.FileFunction,Other,Comment*%
%FSLAX46Y46*%
G04 Gerber Fmt 4.6, Leading zero omitted, Abs format (unit mm)*
G04 Created by KiCad (PCBNEW (6.0.4)) date 2022-07-19 00:25:02*
%MOMM*%
%LPD*%
G01*
G04 APERTURE LIST*
%ADD10C,0.100000*%
%ADD11C,0.150000*%
G04 APERTURE END LIST*
D10*
%TO.C,U1*%
X170726190Y-136038095D02*
X170726190Y-136276190D01*
X170964285Y-136300000D01*
X170940476Y-136276190D01*
X170916666Y-136228571D01*
X170916666Y-136109523D01*
X170940476Y-136061904D01*
X170964285Y-136038095D01*
X171011904Y-136014285D01*
X171130952Y-136014285D01*
X171178571Y-136038095D01*
X171202380Y-136061904D01*
X171226190Y-136109523D01*
X171226190Y-136228571D01*
X171202380Y-136276190D01*
X171178571Y-136300000D01*
X171226190Y-135419047D02*
X170892857Y-135419047D01*
X170940476Y-135419047D02*
X170916666Y-135395238D01*
X170892857Y-135347619D01*
X170892857Y-135276190D01*
X170916666Y-135228571D01*
X170964285Y-135204761D01*
X171226190Y-135204761D01*
X170964285Y-135204761D02*
X170916666Y-135180952D01*
X170892857Y-135133333D01*
X170892857Y-135061904D01*
X170916666Y-135014285D01*
X170964285Y-134990476D01*
X171226190Y-134990476D01*
X171226190Y-134752380D02*
X170892857Y-134752380D01*
X170940476Y-134752380D02*
X170916666Y-134728571D01*
X170892857Y-134680952D01*
X170892857Y-134609523D01*
X170916666Y-134561904D01*
X170964285Y-134538095D01*
X171226190Y-134538095D01*
X170964285Y-134538095D02*
X170916666Y-134514285D01*
X170892857Y-134466666D01*
X170892857Y-134395238D01*
X170916666Y-134347619D01*
X170964285Y-134323809D01*
X171226190Y-134323809D01*
X189261904Y-130326190D02*
X189023809Y-130326190D01*
X189000000Y-130564285D01*
X189023809Y-130540476D01*
X189071428Y-130516666D01*
X189190476Y-130516666D01*
X189238095Y-130540476D01*
X189261904Y-130564285D01*
X189285714Y-130611904D01*
X189285714Y-130730952D01*
X189261904Y-130778571D01*
X189238095Y-130802380D01*
X189190476Y-130826190D01*
X189071428Y-130826190D01*
X189023809Y-130802380D01*
X189000000Y-130778571D01*
X189880952Y-130826190D02*
X189880952Y-130492857D01*
X189880952Y-130540476D02*
X189904761Y-130516666D01*
X189952380Y-130492857D01*
X190023809Y-130492857D01*
X190071428Y-130516666D01*
X190095238Y-130564285D01*
X190095238Y-130826190D01*
X190095238Y-130564285D02*
X190119047Y-130516666D01*
X190166666Y-130492857D01*
X190238095Y-130492857D01*
X190285714Y-130516666D01*
X190309523Y-130564285D01*
X190309523Y-130826190D01*
X190547619Y-130826190D02*
X190547619Y-130492857D01*
X190547619Y-130540476D02*
X190571428Y-130516666D01*
X190619047Y-130492857D01*
X190690476Y-130492857D01*
X190738095Y-130516666D01*
X190761904Y-130564285D01*
X190761904Y-130826190D01*
X190761904Y-130564285D02*
X190785714Y-130516666D01*
X190833333Y-130492857D01*
X190904761Y-130492857D01*
X190952380Y-130516666D01*
X190976190Y-130564285D01*
X190976190Y-130826190D01*
D11*
X172728571Y-135677380D02*
X172728571Y-134677380D01*
X173300000Y-135677380D02*
X172871428Y-135105952D01*
X173300000Y-134677380D02*
X172728571Y-135248809D01*
X173728571Y-135153571D02*
X174061904Y-135153571D01*
X174204761Y-135677380D02*
X173728571Y-135677380D01*
X173728571Y-134677380D01*
X174204761Y-134677380D01*
X174633333Y-135153571D02*
X174966666Y-135153571D01*
X175109523Y-135677380D02*
X174633333Y-135677380D01*
X174633333Y-134677380D01*
X175109523Y-134677380D01*
X175538095Y-135677380D02*
X175538095Y-134677380D01*
X175919047Y-134677380D01*
X176014285Y-134725000D01*
X176061904Y-134772619D01*
X176109523Y-134867857D01*
X176109523Y-135010714D01*
X176061904Y-135105952D01*
X176014285Y-135153571D01*
X175919047Y-135201190D01*
X175538095Y-135201190D01*
X176538095Y-135296428D02*
X177300000Y-135296428D01*
X177966666Y-134677380D02*
X178157142Y-134677380D01*
X178252380Y-134725000D01*
X178347619Y-134820238D01*
X178395238Y-135010714D01*
X178395238Y-135344047D01*
X178347619Y-135534523D01*
X178252380Y-135629761D01*
X178157142Y-135677380D01*
X177966666Y-135677380D01*
X177871428Y-135629761D01*
X177776190Y-135534523D01*
X177728571Y-135344047D01*
X177728571Y-135010714D01*
X177776190Y-134820238D01*
X177871428Y-134725000D01*
X177966666Y-134677380D01*
X178823809Y-134677380D02*
X178823809Y-135486904D01*
X178871428Y-135582142D01*
X178919047Y-135629761D01*
X179014285Y-135677380D01*
X179204761Y-135677380D01*
X179300000Y-135629761D01*
X179347619Y-135582142D01*
X179395238Y-135486904D01*
X179395238Y-134677380D01*
X179728571Y-134677380D02*
X180300000Y-134677380D01*
X180014285Y-135677380D02*
X180014285Y-134677380D01*
X181300000Y-134677380D02*
X181966666Y-134677380D01*
X181300000Y-135677380D01*
X181966666Y-135677380D01*
X182538095Y-134677380D02*
X182728571Y-134677380D01*
X182823809Y-134725000D01*
X182919047Y-134820238D01*
X182966666Y-135010714D01*
X182966666Y-135344047D01*
X182919047Y-135534523D01*
X182823809Y-135629761D01*
X182728571Y-135677380D01*
X182538095Y-135677380D01*
X182442857Y-135629761D01*
X182347619Y-135534523D01*
X182300000Y-135344047D01*
X182300000Y-135010714D01*
X182347619Y-134820238D01*
X182442857Y-134725000D01*
X182538095Y-134677380D01*
X183395238Y-135677380D02*
X183395238Y-134677380D01*
X183966666Y-135677380D01*
X183966666Y-134677380D01*
X184442857Y-135153571D02*
X184776190Y-135153571D01*
X184919047Y-135677380D02*
X184442857Y-135677380D01*
X184442857Y-134677380D01*
X184919047Y-134677380D01*
X176038095Y-129391666D02*
X176514285Y-129391666D01*
X175942857Y-129677380D02*
X176276190Y-128677380D01*
X176609523Y-129677380D01*
X176942857Y-129010714D02*
X176942857Y-129677380D01*
X176942857Y-129105952D02*
X176990476Y-129058333D01*
X177085714Y-129010714D01*
X177228571Y-129010714D01*
X177323809Y-129058333D01*
X177371428Y-129153571D01*
X177371428Y-129677380D01*
X177704761Y-129010714D02*
X178085714Y-129010714D01*
X177847619Y-128677380D02*
X177847619Y-129534523D01*
X177895238Y-129629761D01*
X177990476Y-129677380D01*
X178085714Y-129677380D01*
X178800000Y-129629761D02*
X178704761Y-129677380D01*
X178514285Y-129677380D01*
X178419047Y-129629761D01*
X178371428Y-129534523D01*
X178371428Y-129153571D01*
X178419047Y-129058333D01*
X178514285Y-129010714D01*
X178704761Y-129010714D01*
X178800000Y-129058333D01*
X178847619Y-129153571D01*
X178847619Y-129248809D01*
X178371428Y-129344047D01*
X179276190Y-129010714D02*
X179276190Y-129677380D01*
X179276190Y-129105952D02*
X179323809Y-129058333D01*
X179419047Y-129010714D01*
X179561904Y-129010714D01*
X179657142Y-129058333D01*
X179704761Y-129153571D01*
X179704761Y-129677380D01*
X180180952Y-129010714D02*
X180180952Y-129677380D01*
X180180952Y-129105952D02*
X180228571Y-129058333D01*
X180323809Y-129010714D01*
X180466666Y-129010714D01*
X180561904Y-129058333D01*
X180609523Y-129153571D01*
X180609523Y-129677380D01*
X181514285Y-129677380D02*
X181514285Y-129153571D01*
X181466666Y-129058333D01*
X181371428Y-129010714D01*
X181180952Y-129010714D01*
X181085714Y-129058333D01*
X181514285Y-129629761D02*
X181419047Y-129677380D01*
X181180952Y-129677380D01*
X181085714Y-129629761D01*
X181038095Y-129534523D01*
X181038095Y-129439285D01*
X181085714Y-129344047D01*
X181180952Y-129296428D01*
X181419047Y-129296428D01*
X181514285Y-129248809D01*
D10*
X166261904Y-130326190D02*
X166023809Y-130326190D01*
X166000000Y-130564285D01*
X166023809Y-130540476D01*
X166071428Y-130516666D01*
X166190476Y-130516666D01*
X166238095Y-130540476D01*
X166261904Y-130564285D01*
X166285714Y-130611904D01*
X166285714Y-130730952D01*
X166261904Y-130778571D01*
X166238095Y-130802380D01*
X166190476Y-130826190D01*
X166071428Y-130826190D01*
X166023809Y-130802380D01*
X166000000Y-130778571D01*
X166880952Y-130826190D02*
X166880952Y-130492857D01*
X166880952Y-130540476D02*
X166904761Y-130516666D01*
X166952380Y-130492857D01*
X167023809Y-130492857D01*
X167071428Y-130516666D01*
X167095238Y-130564285D01*
X167095238Y-130826190D01*
X167095238Y-130564285D02*
X167119047Y-130516666D01*
X167166666Y-130492857D01*
X167238095Y-130492857D01*
X167285714Y-130516666D01*
X167309523Y-130564285D01*
X167309523Y-130826190D01*
X167547619Y-130826190D02*
X167547619Y-130492857D01*
X167547619Y-130540476D02*
X167571428Y-130516666D01*
X167619047Y-130492857D01*
X167690476Y-130492857D01*
X167738095Y-130516666D01*
X167761904Y-130564285D01*
X167761904Y-130826190D01*
X167761904Y-130564285D02*
X167785714Y-130516666D01*
X167833333Y-130492857D01*
X167904761Y-130492857D01*
X167952380Y-130516666D01*
X167976190Y-130564285D01*
X167976190Y-130826190D01*
D11*
%TO.C,H1*%
X137475000Y-81425000D02*
G75*
G03*
X137475000Y-81425000I-3200000J0D01*
G01*
%TO.C,H4*%
X205775000Y-128800000D02*
G75*
G03*
X205775000Y-128800000I-3200000J0D01*
G01*
%TO.C,H3*%
X137475000Y-128800000D02*
G75*
G03*
X137475000Y-128800000I-3200000J0D01*
G01*
%TO.C,H2*%
X205775000Y-81425000D02*
G75*
G03*
X205775000Y-81425000I-3200000J0D01*
G01*
D10*
%TO.C,U1*%
X170400000Y-132225000D02*
X170400000Y-136825000D01*
X169600000Y-130100000D02*
X169400000Y-130300000D01*
X169600000Y-130100000D02*
X169400000Y-129900000D01*
X192600000Y-130100000D02*
X192400000Y-130300000D01*
X192600000Y-130100000D02*
X188000000Y-130100000D01*
X170400000Y-132225000D02*
X170200000Y-132425000D01*
X170400000Y-132225000D02*
X170600000Y-132425000D01*
X188000000Y-130100000D02*
X188200000Y-129900000D01*
X165000000Y-130100000D02*
X165200000Y-130300000D01*
X188000000Y-130100000D02*
X188200000Y-130300000D01*
X165000000Y-130100000D02*
X165200000Y-129900000D01*
X192600000Y-130100000D02*
X192400000Y-129900000D01*
X169600000Y-130100000D02*
X165000000Y-130100000D01*
X170400000Y-136825000D02*
X170600000Y-136625000D01*
X170400000Y-136825000D02*
X170200000Y-136625000D01*
%TD*%
M02*
