%TF.GenerationSoftware,KiCad,Pcbnew,(6.0.4)*%
%TF.CreationDate,2022-07-19T00:25:02+02:00*%
%TF.ProjectId,Controller_Room,436f6e74-726f-46c6-9c65-725f526f6f6d,rev?*%
%TF.SameCoordinates,Original*%
%TF.FileFunction,Copper,L1,Top*%
%TF.FilePolarity,Positive*%
%FSLAX46Y46*%
G04 Gerber Fmt 4.6, Leading zero omitted, Abs format (unit mm)*
G04 Created by KiCad (PCBNEW (6.0.4)) date 2022-07-19 00:25:02*
%MOMM*%
%LPD*%
G01*
G04 APERTURE LIST*
G04 Aperture macros list*
%AMRoundRect*
0 Rectangle with rounded corners*
0 $1 Rounding radius*
0 $2 $3 $4 $5 $6 $7 $8 $9 X,Y pos of 4 corners*
0 Add a 4 corners polygon primitive as box body*
4,1,4,$2,$3,$4,$5,$6,$7,$8,$9,$2,$3,0*
0 Add four circle primitives for the rounded corners*
1,1,$1+$1,$2,$3*
1,1,$1+$1,$4,$5*
1,1,$1+$1,$6,$7*
1,1,$1+$1,$8,$9*
0 Add four rect primitives between the rounded corners*
20,1,$1+$1,$2,$3,$4,$5,0*
20,1,$1+$1,$4,$5,$6,$7,0*
20,1,$1+$1,$6,$7,$8,$9,0*
20,1,$1+$1,$8,$9,$2,$3,0*%
%AMRotRect*
0 Rectangle, with rotation*
0 The origin of the aperture is its center*
0 $1 length*
0 $2 width*
0 $3 Rotation angle, in degrees counterclockwise*
0 Add horizontal line*
21,1,$1,$2,0,0,$3*%
G04 Aperture macros list end*
%TA.AperFunction,ComponentPad*%
%ADD10R,1.900000X1.900000*%
%TD*%
%TA.AperFunction,ComponentPad*%
%ADD11C,1.900000*%
%TD*%
%TA.AperFunction,ComponentPad*%
%ADD12C,2.100000*%
%TD*%
%TA.AperFunction,ComponentPad*%
%ADD13C,2.600000*%
%TD*%
%TA.AperFunction,SMDPad,CuDef*%
%ADD14R,0.950000X1.230000*%
%TD*%
%TA.AperFunction,SMDPad,CuDef*%
%ADD15R,0.630000X0.500000*%
%TD*%
%TA.AperFunction,SMDPad,CuDef*%
%ADD16R,1.230000X0.950000*%
%TD*%
%TA.AperFunction,SMDPad,CuDef*%
%ADD17R,0.500000X0.630000*%
%TD*%
%TA.AperFunction,SMDPad,CuDef*%
%ADD18R,1.100000X1.300000*%
%TD*%
%TA.AperFunction,ComponentPad*%
%ADD19RoundRect,0.250001X1.549999X-0.799999X1.549999X0.799999X-1.549999X0.799999X-1.549999X-0.799999X0*%
%TD*%
%TA.AperFunction,ComponentPad*%
%ADD20O,3.600000X2.100000*%
%TD*%
%TA.AperFunction,SMDPad,CuDef*%
%ADD21RoundRect,0.140000X-0.140000X-0.170000X0.140000X-0.170000X0.140000X0.170000X-0.140000X0.170000X0*%
%TD*%
%TA.AperFunction,ComponentPad*%
%ADD22O,3.500000X2.000000*%
%TD*%
%TA.AperFunction,ComponentPad*%
%ADD23O,2.000000X4.000000*%
%TD*%
%TA.AperFunction,ComponentPad*%
%ADD24C,3.000000*%
%TD*%
%TA.AperFunction,WasherPad*%
%ADD25C,1.700000*%
%TD*%
%TA.AperFunction,SMDPad,CuDef*%
%ADD26RoundRect,0.147500X0.147500X0.172500X-0.147500X0.172500X-0.147500X-0.172500X0.147500X-0.172500X0*%
%TD*%
%TA.AperFunction,SMDPad,CuDef*%
%ADD27RoundRect,0.135000X-0.185000X0.135000X-0.185000X-0.135000X0.185000X-0.135000X0.185000X0.135000X0*%
%TD*%
%TA.AperFunction,SMDPad,CuDef*%
%ADD28RoundRect,0.140000X0.021213X-0.219203X0.219203X-0.021213X-0.021213X0.219203X-0.219203X0.021213X0*%
%TD*%
%TA.AperFunction,SMDPad,CuDef*%
%ADD29RoundRect,0.140000X-0.170000X0.140000X-0.170000X-0.140000X0.170000X-0.140000X0.170000X0.140000X0*%
%TD*%
%TA.AperFunction,ComponentPad*%
%ADD30RoundRect,0.250000X0.625000X-0.350000X0.625000X0.350000X-0.625000X0.350000X-0.625000X-0.350000X0*%
%TD*%
%TA.AperFunction,ComponentPad*%
%ADD31O,1.750000X1.200000*%
%TD*%
%TA.AperFunction,SMDPad,CuDef*%
%ADD32RoundRect,0.135000X0.185000X-0.135000X0.185000X0.135000X-0.185000X0.135000X-0.185000X-0.135000X0*%
%TD*%
%TA.AperFunction,SMDPad,CuDef*%
%ADD33RoundRect,0.140000X0.140000X0.170000X-0.140000X0.170000X-0.140000X-0.170000X0.140000X-0.170000X0*%
%TD*%
%TA.AperFunction,SMDPad,CuDef*%
%ADD34RoundRect,0.250000X0.550000X-1.250000X0.550000X1.250000X-0.550000X1.250000X-0.550000X-1.250000X0*%
%TD*%
%TA.AperFunction,ComponentPad*%
%ADD35R,1.700000X1.700000*%
%TD*%
%TA.AperFunction,ComponentPad*%
%ADD36O,1.700000X1.700000*%
%TD*%
%TA.AperFunction,SMDPad,CuDef*%
%ADD37RoundRect,0.140000X-0.021213X0.219203X-0.219203X0.021213X0.021213X-0.219203X0.219203X-0.021213X0*%
%TD*%
%TA.AperFunction,SMDPad,CuDef*%
%ADD38R,1.700000X1.000000*%
%TD*%
%TA.AperFunction,SMDPad,CuDef*%
%ADD39RoundRect,0.140000X-0.219203X-0.021213X-0.021213X-0.219203X0.219203X0.021213X0.021213X0.219203X0*%
%TD*%
%TA.AperFunction,SMDPad,CuDef*%
%ADD40RoundRect,0.140000X0.170000X-0.140000X0.170000X0.140000X-0.170000X0.140000X-0.170000X-0.140000X0*%
%TD*%
%TA.AperFunction,SMDPad,CuDef*%
%ADD41RoundRect,0.140000X0.219203X0.021213X0.021213X0.219203X-0.219203X-0.021213X-0.021213X-0.219203X0*%
%TD*%
%TA.AperFunction,SMDPad,CuDef*%
%ADD42RoundRect,0.135000X0.135000X0.185000X-0.135000X0.185000X-0.135000X-0.185000X0.135000X-0.185000X0*%
%TD*%
%TA.AperFunction,SMDPad,CuDef*%
%ADD43RoundRect,0.147500X-0.172500X0.147500X-0.172500X-0.147500X0.172500X-0.147500X0.172500X0.147500X0*%
%TD*%
%TA.AperFunction,SMDPad,CuDef*%
%ADD44RoundRect,0.150000X0.512500X0.150000X-0.512500X0.150000X-0.512500X-0.150000X0.512500X-0.150000X0*%
%TD*%
%TA.AperFunction,SMDPad,CuDef*%
%ADD45RoundRect,0.150000X-0.150000X0.825000X-0.150000X-0.825000X0.150000X-0.825000X0.150000X0.825000X0*%
%TD*%
%TA.AperFunction,SMDPad,CuDef*%
%ADD46R,2.000000X0.900000*%
%TD*%
%TA.AperFunction,SMDPad,CuDef*%
%ADD47R,0.900000X2.000000*%
%TD*%
%TA.AperFunction,SMDPad,CuDef*%
%ADD48R,5.000000X5.000000*%
%TD*%
%TA.AperFunction,SMDPad,CuDef*%
%ADD49R,2.350000X3.500000*%
%TD*%
%TA.AperFunction,SMDPad,CuDef*%
%ADD50R,1.000000X1.700000*%
%TD*%
%TA.AperFunction,SMDPad,CuDef*%
%ADD51RoundRect,0.150000X0.587500X0.150000X-0.587500X0.150000X-0.587500X-0.150000X0.587500X-0.150000X0*%
%TD*%
%TA.AperFunction,SMDPad,CuDef*%
%ADD52RoundRect,0.062500X-0.203293X-0.291682X0.291682X0.203293X0.203293X0.291682X-0.291682X-0.203293X0*%
%TD*%
%TA.AperFunction,SMDPad,CuDef*%
%ADD53RoundRect,0.062500X0.203293X-0.291682X0.291682X-0.203293X-0.203293X0.291682X-0.291682X0.203293X0*%
%TD*%
%TA.AperFunction,SMDPad,CuDef*%
%ADD54RotRect,2.600000X2.600000X45.000000*%
%TD*%
%TA.AperFunction,ViaPad*%
%ADD55C,0.600000*%
%TD*%
%TA.AperFunction,ViaPad*%
%ADD56C,0.800000*%
%TD*%
%TA.AperFunction,ViaPad*%
%ADD57C,0.400000*%
%TD*%
%TA.AperFunction,Conductor*%
%ADD58C,0.254000*%
%TD*%
%TA.AperFunction,Conductor*%
%ADD59C,0.250000*%
%TD*%
%TA.AperFunction,Conductor*%
%ADD60C,0.500000*%
%TD*%
%TA.AperFunction,Conductor*%
%ADD61C,0.200000*%
%TD*%
%TA.AperFunction,Conductor*%
%ADD62C,0.127000*%
%TD*%
G04 APERTURE END LIST*
D10*
%TO.P,J2,1,TD+*%
%TO.N,TXP*%
X146525000Y-109450000D03*
D11*
%TO.P,J2,2,TD-*%
%TO.N,TXN*%
X149065000Y-110720000D03*
%TO.P,J2,3,RD+*%
%TO.N,RXP*%
X146525000Y-111990000D03*
%TO.P,J2,4,TCT*%
%TO.N,GND*%
X149065000Y-113260000D03*
%TO.P,J2,5,RCT*%
X146525000Y-114530000D03*
%TO.P,J2,6,RD-*%
%TO.N,RXN*%
X149065000Y-115800000D03*
%TO.P,J2,7,NC*%
%TO.N,unconnected-(J2-Pad7)*%
X146525000Y-117070000D03*
%TO.P,J2,8,GND*%
%TO.N,GND*%
X149065000Y-118340000D03*
D12*
%TO.P,J2,L1,LEDY_A*%
%TO.N,+3.3VA*%
X135275000Y-107270000D03*
%TO.P,J2,L2,LEDY_K*%
%TO.N,ETHLEDYel*%
X135275000Y-109810000D03*
%TO.P,J2,L3,LEDG_A*%
%TO.N,+3.3VA*%
X135275000Y-117980000D03*
%TO.P,J2,L4,LEDG_K*%
%TO.N,ETHLEDGreen*%
X135275000Y-120520000D03*
D13*
%TO.P,J2,SH,SHIELD*%
%TO.N,unconnected-(J2-PadSH)*%
X143225000Y-121640000D03*
X143225000Y-106150000D03*
%TD*%
D14*
%TO.P,M2,5,D*%
%TO.N,Net-(M2-Pad5)*%
X157360000Y-80415000D03*
D15*
X157940000Y-80055000D03*
X157940000Y-80695000D03*
D14*
X156410000Y-80415000D03*
X157360000Y-81635000D03*
D15*
X157940000Y-81355000D03*
X157940000Y-81995000D03*
D14*
X156410000Y-81635000D03*
D15*
%TO.P,M2,4,G*%
%TO.N,Net-(M2-Pad4)*%
X155060000Y-81995000D03*
%TO.P,M2,3,S*%
%TO.N,VCC*%
X155060000Y-81355000D03*
%TO.P,M2,2,S*%
X155060000Y-80695000D03*
%TO.P,M2,1,S*%
X155060000Y-80055000D03*
%TD*%
D16*
%TO.P,M1,5,D*%
%TO.N,Net-(J1-Pad1)*%
X148310000Y-91735000D03*
D17*
X148670000Y-92315000D03*
X148030000Y-92315000D03*
D16*
X148310000Y-90785000D03*
X147090000Y-91735000D03*
D17*
X147370000Y-92315000D03*
X146730000Y-92315000D03*
D16*
X147090000Y-90785000D03*
D17*
%TO.P,M1,4,G*%
%TO.N,Net-(D4-Pad2)*%
X146730000Y-89435000D03*
%TO.P,M1,3,S*%
%TO.N,VCC*%
X147370000Y-89435000D03*
%TO.P,M1,2,S*%
X148030000Y-89435000D03*
%TO.P,M1,1,S*%
X148670000Y-89435000D03*
%TD*%
D18*
%TO.P,X1,4,Vdd*%
%TO.N,+3V3*%
X164425000Y-113725000D03*
%TO.P,X1,3,OUT*%
%TO.N,CLK50M*%
X164425000Y-111625000D03*
%TO.P,X1,2,GND*%
%TO.N,GND*%
X166075000Y-111625000D03*
%TO.P,X1,1,EN*%
%TO.N,IO16_OSC_EN*%
X166075000Y-113725000D03*
%TD*%
D19*
%TO.P,J6,1,Pin_1*%
%TO.N,+VSW*%
X196120500Y-116078000D03*
D20*
%TO.P,J6,2,Pin_2*%
%TO.N,A*%
X196120500Y-108458000D03*
%TO.P,J6,3,Pin_3*%
%TO.N,B*%
X196120500Y-100838000D03*
%TO.P,J6,4,Pin_4*%
%TO.N,GND*%
X196120500Y-93218000D03*
%TD*%
D21*
%TO.P,C18,1*%
%TO.N,CLK50M*%
X165570000Y-110050000D03*
%TO.P,C18,2*%
%TO.N,GND*%
X166530000Y-110050000D03*
%TD*%
D22*
%TO.P,J1,MP*%
%TO.N,N/C*%
X135575000Y-97200000D03*
X140275000Y-97200000D03*
X140275000Y-87500000D03*
X135575000Y-87500000D03*
D23*
%TO.P,J1,2*%
%TO.N,GND*%
X136075000Y-92350000D03*
D24*
%TO.P,J1,1*%
%TO.N,Net-(J1-Pad1)*%
X143775000Y-92350000D03*
D25*
%TO.P,J1,*%
%TO.N,*%
X132825000Y-92350000D03*
%TD*%
D21*
%TO.P,C15,1*%
%TO.N,+3.3VA*%
X152195000Y-108350000D03*
%TO.P,C15,2*%
%TO.N,GND*%
X153155000Y-108350000D03*
%TD*%
D26*
%TO.P,D4,2,A*%
%TO.N,Net-(D4-Pad2)*%
X146940000Y-86925000D03*
%TO.P,D4,1,K*%
%TO.N,VCC*%
X147910000Y-86925000D03*
%TD*%
D27*
%TO.P,R7,1*%
%TO.N,+3V3*%
X185325000Y-92080001D03*
%TO.P,R7,2*%
%TO.N,SCL*%
X185325000Y-93100001D03*
%TD*%
D21*
%TO.P,R21,1*%
%TO.N,+3.3VA*%
X152170000Y-111375000D03*
%TO.P,R21,2*%
%TO.N,TXP*%
X153130000Y-111375000D03*
%TD*%
D28*
%TO.P,C9,1*%
%TO.N,nRST*%
X160760589Y-112264411D03*
%TO.P,C9,2*%
%TO.N,GND*%
X161439411Y-111585589D03*
%TD*%
D29*
%TO.P,R13,1*%
%TO.N,+3V3*%
X191675000Y-119140000D03*
%TO.P,R13,2*%
%TO.N,UserButton*%
X191675000Y-120100000D03*
%TD*%
D30*
%TO.P,J4,1,Pin_1*%
%TO.N,+3V3*%
X174825000Y-97050000D03*
D31*
%TO.P,J4,2,Pin_2*%
%TO.N,SDA*%
X174825000Y-95050000D03*
%TO.P,J4,3,Pin_3*%
%TO.N,SCL*%
X174825000Y-93050000D03*
%TO.P,J4,4,Pin_4*%
%TO.N,GND*%
X174825000Y-91050000D03*
%TD*%
D21*
%TO.P,R26,2*%
%TO.N,PowerMES*%
X164603000Y-87630000D03*
%TO.P,R26,1*%
%TO.N,Net-(R26-Pad1)*%
X163643000Y-87630000D03*
%TD*%
%TO.P,C16,1*%
%TO.N,+3V3*%
X164420001Y-115250000D03*
%TO.P,C16,2*%
%TO.N,GND*%
X165380001Y-115250000D03*
%TD*%
D29*
%TO.P,C1,2*%
%TO.N,GND*%
X150650000Y-89030000D03*
%TO.P,C1,1*%
%TO.N,VCC*%
X150650000Y-88070000D03*
%TD*%
D21*
%TO.P,C14,1*%
%TO.N,+3.3VA*%
X152200000Y-107200000D03*
%TO.P,C14,2*%
%TO.N,GND*%
X153160000Y-107200000D03*
%TD*%
D32*
%TO.P,R8,1*%
%TO.N,+3V3*%
X185300000Y-96135000D03*
%TO.P,R8,2*%
%TO.N,SDA*%
X185300000Y-95115000D03*
%TD*%
D33*
%TO.P,R12,1*%
%TO.N,+3V3*%
X165455000Y-123550000D03*
%TO.P,R12,2*%
%TO.N,EN*%
X164495000Y-123550000D03*
%TD*%
%TO.P,R20,1*%
%TO.N,Net-(R20-Pad1)*%
X153155000Y-116950000D03*
%TO.P,R20,2*%
%TO.N,ETHLEDYel*%
X152195000Y-116950000D03*
%TD*%
D34*
%TO.P,C2,2*%
%TO.N,GND*%
X149900000Y-81050000D03*
%TO.P,C2,1*%
%TO.N,VCC*%
X149900000Y-85450000D03*
%TD*%
D27*
%TO.P,R10,2*%
%TO.N,+3V3*%
X156125000Y-90085000D03*
%TO.P,R10,1*%
%TO.N,Net-(IC1-Pad3)*%
X156125000Y-89065000D03*
%TD*%
D35*
%TO.P,J7,1,Pin_1*%
%TO.N,+3V3*%
X142805000Y-129775000D03*
D36*
%TO.P,J7,2,Pin_2*%
%TO.N,GND*%
X145345000Y-129775000D03*
%TO.P,J7,3,Pin_3*%
%TO.N,TX*%
X147885000Y-129775000D03*
%TO.P,J7,4,Pin_4*%
%TO.N,RX*%
X150425000Y-129775000D03*
%TO.P,J7,5,Pin_5*%
%TO.N,IO0*%
X152965000Y-129775000D03*
%TO.P,J7,6,Pin_6*%
%TO.N,EN*%
X155505000Y-129775000D03*
%TD*%
D32*
%TO.P,R2,2*%
%TO.N,Net-(D2-Pad2)*%
X143675000Y-83990000D03*
%TO.P,R2,1*%
%TO.N,+3V3*%
X143675000Y-85010000D03*
%TD*%
D37*
%TO.P,C11,1*%
%TO.N,+3V3*%
X159514411Y-117385589D03*
%TO.P,C11,2*%
%TO.N,GND*%
X158835589Y-118064411D03*
%TD*%
D27*
%TO.P,R6,2*%
%TO.N,Net-(M2-Pad4)*%
X153750000Y-82285000D03*
%TO.P,R6,1*%
%TO.N,VCC*%
X153750000Y-81265000D03*
%TD*%
D35*
%TO.P,J8,1,Pin_1*%
%TO.N,Net-(J8-Pad1)*%
X181450000Y-103125000D03*
D36*
%TO.P,J8,2,Pin_2*%
%TO.N,Net-(J8-Pad2)*%
X178910000Y-103125000D03*
%TD*%
D38*
%TO.P,SW2,1,1*%
%TO.N,GND*%
X190500000Y-126125000D03*
X196800000Y-126125000D03*
%TO.P,SW2,2,2*%
%TO.N,UserButton*%
X190500000Y-122325000D03*
X196800000Y-122325000D03*
%TD*%
D39*
%TO.P,C13,1*%
%TO.N,+3V3*%
X156010589Y-117585589D03*
%TO.P,C13,2*%
%TO.N,GND*%
X156689411Y-118264411D03*
%TD*%
D37*
%TO.P,R16,1*%
%TO.N,CLK50M*%
X162339411Y-112460589D03*
%TO.P,R16,2*%
%TO.N,IO0*%
X161660589Y-113139411D03*
%TD*%
D32*
%TO.P,R11,2*%
%TO.N,Net-(IC1-Pad3)*%
X157275000Y-89065000D03*
%TO.P,R11,1*%
%TO.N,GND*%
X157275000Y-90085000D03*
%TD*%
D30*
%TO.P,J5,1,Pin_1*%
%TO.N,+3V3*%
X181300000Y-97100000D03*
D31*
%TO.P,J5,2,Pin_2*%
%TO.N,SDA*%
X181300000Y-95100000D03*
%TO.P,J5,3,Pin_3*%
%TO.N,SCL*%
X181300000Y-93100000D03*
%TO.P,J5,4,Pin_4*%
%TO.N,GND*%
X181300000Y-91100000D03*
%TD*%
D37*
%TO.P,C10,1*%
%TO.N,+3V3*%
X160271015Y-118149264D03*
%TO.P,C10,2*%
%TO.N,GND*%
X159592193Y-118828086D03*
%TD*%
%TO.P,R18,1*%
%TO.N,+3V3*%
X160589411Y-110760589D03*
%TO.P,R18,2*%
%TO.N,nRST*%
X159910589Y-111439411D03*
%TD*%
D40*
%TO.P,C8,1*%
%TO.N,UserButton*%
X190500000Y-120100000D03*
%TO.P,C8,2*%
%TO.N,GND*%
X190500000Y-119140000D03*
%TD*%
D41*
%TO.P,R14,1*%
%TO.N,+3V3*%
X160914411Y-117314411D03*
%TO.P,R14,2*%
%TO.N,IO13_RXER*%
X160235589Y-116635589D03*
%TD*%
D21*
%TO.P,R17,1*%
%TO.N,CLK50M*%
X152195000Y-119400000D03*
%TO.P,R17,2*%
%TO.N,OSCIN*%
X153155000Y-119400000D03*
%TD*%
D42*
%TO.P,R9,1*%
%TO.N,B*%
X189535000Y-103349999D03*
%TO.P,R9,2*%
%TO.N,A*%
X188515000Y-103349999D03*
%TD*%
%TO.P,R4,2*%
%TO.N,GND*%
X145915000Y-88050000D03*
%TO.P,R4,1*%
%TO.N,Net-(D4-Pad2)*%
X146935000Y-88050000D03*
%TD*%
D21*
%TO.P,C7,1*%
%TO.N,EN*%
X164495001Y-124725000D03*
%TO.P,C7,2*%
%TO.N,GND*%
X165455001Y-124725000D03*
%TD*%
D43*
%TO.P,D2,2,A*%
%TO.N,Net-(D2-Pad2)*%
X143675000Y-82610000D03*
%TO.P,D2,1,K*%
%TO.N,GND*%
X143675000Y-81640000D03*
%TD*%
D21*
%TO.P,R24,1*%
%TO.N,+3.3VA*%
X152170000Y-112750000D03*
%TO.P,R24,2*%
%TO.N,RXN*%
X153130000Y-112750000D03*
%TD*%
D29*
%TO.P,C5,2*%
%TO.N,GND*%
X159375000Y-96105000D03*
%TO.P,C5,1*%
%TO.N,+3V3*%
X159375000Y-95145000D03*
%TD*%
D21*
%TO.P,R23,1*%
%TO.N,+3.3VA*%
X152170000Y-114275000D03*
%TO.P,R23,2*%
%TO.N,RXP*%
X153130000Y-114275000D03*
%TD*%
D44*
%TO.P,IC1,6,SW*%
%TO.N,Net-(C4-Pad2)*%
X152262500Y-89000000D03*
%TO.P,IC1,5,IN*%
%TO.N,VCC*%
X152262500Y-88050000D03*
%TO.P,IC1,4,EN*%
%TO.N,unconnected-(IC1-Pad4)*%
X152262500Y-87100000D03*
%TO.P,IC1,3,FB*%
%TO.N,Net-(IC1-Pad3)*%
X154537500Y-87100000D03*
%TO.P,IC1,2,GND*%
%TO.N,GND*%
X154537500Y-88050000D03*
%TO.P,IC1,1,CB*%
%TO.N,Net-(C4-Pad1)*%
X154537500Y-89000000D03*
%TD*%
D34*
%TO.P,C6,2*%
%TO.N,GND*%
X161675000Y-89250000D03*
%TO.P,C6,1*%
%TO.N,+3V3*%
X161675000Y-93650000D03*
%TD*%
D45*
%TO.P,U3,1,RO*%
%TO.N,unconnected-(U3-Pad1)*%
X190930000Y-96525000D03*
%TO.P,U3,2,~{RE}*%
%TO.N,+3V3*%
X189660000Y-96525000D03*
%TO.P,U3,3,DE*%
X188390000Y-96525000D03*
%TO.P,U3,4,DI*%
%TO.N,WS28_Out*%
X187120000Y-96525000D03*
%TO.P,U3,5,GND*%
%TO.N,GND*%
X187120000Y-101475000D03*
%TO.P,U3,6,A*%
%TO.N,A*%
X188390000Y-101475000D03*
%TO.P,U3,7,B*%
%TO.N,B*%
X189660000Y-101475000D03*
%TO.P,U3,8,VCC*%
%TO.N,+3V3*%
X190930000Y-101475000D03*
%TD*%
D33*
%TO.P,R19,1*%
%TO.N,Net-(R19-Pad1)*%
X153155000Y-118300000D03*
%TO.P,R19,2*%
%TO.N,ETHLEDGreen*%
X152195000Y-118300000D03*
%TD*%
D41*
%TO.P,R15,1*%
%TO.N,+3V3*%
X162089411Y-116164411D03*
%TO.P,R15,2*%
%TO.N,IO18_MDIO*%
X161410589Y-115485589D03*
%TD*%
D46*
%TO.P,U1,1,GND*%
%TO.N,GND*%
X187300000Y-124480000D03*
%TO.P,U1,2,VDD*%
%TO.N,+3V3*%
X187300000Y-123210000D03*
%TO.P,U1,3,EN*%
%TO.N,EN*%
X187300000Y-121940000D03*
%TO.P,U1,4,SENSOR_VP*%
%TO.N,UserButton*%
X187300000Y-120670000D03*
%TO.P,U1,5,SENSOR_VN*%
%TO.N,PowerMES*%
X187300000Y-119400000D03*
%TO.P,U1,6,IO34*%
%TO.N,IO34*%
X187300000Y-118130000D03*
%TO.P,U1,7,IO35*%
%TO.N,IO35*%
X187300000Y-116860000D03*
%TO.P,U1,8,IO32*%
%TO.N,IO32*%
X187300000Y-115590000D03*
%TO.P,U1,9,IO33*%
%TO.N,IO33*%
X187300000Y-114320000D03*
%TO.P,U1,10,IO25*%
%TO.N,IO25_RXD0*%
X187300000Y-113050000D03*
%TO.P,U1,11,IO26*%
%TO.N,IO26_RXD1*%
X187300000Y-111780000D03*
%TO.P,U1,12,IO27*%
%TO.N,IO27_CRS_DV*%
X187300000Y-110510000D03*
%TO.P,U1,13,IO14*%
%TO.N,PowerSW*%
X187300000Y-109240000D03*
%TO.P,U1,14,IO12*%
%TO.N,Net-(J8-Pad1)*%
X187300000Y-107970000D03*
D47*
%TO.P,U1,15,GND*%
%TO.N,GND*%
X184515000Y-106970000D03*
%TO.P,U1,16,IO13*%
%TO.N,IO13_RXER*%
X183245000Y-106970000D03*
%TO.P,U1,17,SHD/SD2*%
%TO.N,unconnected-(U1-Pad17)*%
X181975000Y-106970000D03*
%TO.P,U1,18,SWP/SD3*%
%TO.N,unconnected-(U1-Pad18)*%
X180705000Y-106970000D03*
%TO.P,U1,19,SCS/CMD*%
%TO.N,unconnected-(U1-Pad19)*%
X179435000Y-106970000D03*
%TO.P,U1,20,SCK/CLK*%
%TO.N,unconnected-(U1-Pad20)*%
X178165000Y-106970000D03*
%TO.P,U1,21,SDO/SD0*%
%TO.N,unconnected-(U1-Pad21)*%
X176895000Y-106970000D03*
%TO.P,U1,22,SDI/SD1*%
%TO.N,unconnected-(U1-Pad22)*%
X175625000Y-106970000D03*
%TO.P,U1,23,IO15*%
%TO.N,Net-(J8-Pad2)*%
X174355000Y-106970000D03*
%TO.P,U1,24,IO2*%
%TO.N,WS28_Out*%
X173085000Y-106970000D03*
D46*
%TO.P,U1,25,IO0*%
%TO.N,IO0*%
X170300000Y-107970000D03*
%TO.P,U1,26,IO4*%
%TO.N,SCL*%
X170300000Y-109240000D03*
%TO.P,U1,27,IO16*%
%TO.N,IO16_OSC_EN*%
X170300000Y-110510000D03*
%TO.P,U1,28,IO17*%
%TO.N,StateLED*%
X170300000Y-111780000D03*
%TO.P,U1,29,IO5*%
%TO.N,SDA*%
X170300000Y-113050000D03*
%TO.P,U1,30,IO18*%
%TO.N,IO18_MDIO*%
X170300000Y-114320000D03*
%TO.P,U1,31,IO19*%
%TO.N,IO19_TXD0*%
X170300000Y-115590000D03*
%TO.P,U1,32,NC*%
%TO.N,unconnected-(U1-Pad32)*%
X170300000Y-116860000D03*
%TO.P,U1,33,IO21*%
%TO.N,IO21_TXEN*%
X170300000Y-118130000D03*
%TO.P,U1,34,RXD0/IO3*%
%TO.N,RX*%
X170300000Y-119400000D03*
%TO.P,U1,35,TXD0/IO1*%
%TO.N,TX*%
X170300000Y-120670000D03*
%TO.P,U1,36,IO22*%
%TO.N,IO22_TXD1*%
X170300000Y-121940000D03*
%TO.P,U1,37,IO23*%
%TO.N,IO23_MDC*%
X170300000Y-123210000D03*
%TO.P,U1,38,GND*%
%TO.N,GND*%
X170300000Y-124480000D03*
D48*
%TO.P,U1,39,GND*%
X179800000Y-116980000D03*
%TD*%
D32*
%TO.P,R1,2*%
%TO.N,Net-(D1-Pad2)*%
X142450000Y-83990000D03*
%TO.P,R1,1*%
%TO.N,VCC*%
X142450000Y-85010000D03*
%TD*%
%TO.P,R5,2*%
%TO.N,Net-(Q1-Pad1)*%
X157450000Y-85475000D03*
%TO.P,R5,1*%
%TO.N,PowerSW*%
X157450000Y-86495000D03*
%TD*%
D39*
%TO.P,C12,1*%
%TO.N,+3V3*%
X155246914Y-118342193D03*
%TO.P,C12,2*%
%TO.N,GND*%
X155925736Y-119021015D03*
%TD*%
D40*
%TO.P,C3,1*%
%TO.N,+3V3*%
X192450000Y-101480000D03*
%TO.P,C3,2*%
%TO.N,GND*%
X192450000Y-100520000D03*
%TD*%
D49*
%TO.P,L1,2,2*%
%TO.N,+3V3*%
X156975000Y-94450000D03*
%TO.P,L1,1,1*%
%TO.N,Net-(C4-Pad2)*%
X150925000Y-94450000D03*
%TD*%
D29*
%TO.P,C17,2*%
%TO.N,GND*%
X165800000Y-88580000D03*
%TO.P,C17,1*%
%TO.N,PowerMES*%
X165800000Y-87620000D03*
%TD*%
D35*
%TO.P,J10,1,Pin_1*%
%TO.N,IO33*%
X190875000Y-107850000D03*
D36*
%TO.P,J10,2,Pin_2*%
%TO.N,IO32*%
X190875000Y-110390000D03*
%TO.P,J10,3,Pin_3*%
%TO.N,IO35*%
X190875000Y-112930000D03*
%TO.P,J10,4,Pin_4*%
%TO.N,IO34*%
X190875000Y-115470000D03*
%TD*%
D43*
%TO.P,D3,2,A*%
%TO.N,Net-(D3-Pad2)*%
X144900000Y-82610000D03*
%TO.P,D3,1,K*%
%TO.N,StateLED*%
X144900000Y-81640000D03*
%TD*%
D45*
%TO.P,U4,8,VCC*%
%TO.N,+3V3*%
X163488000Y-85533000D03*
%TO.P,U4,7,VIOUT*%
%TO.N,Net-(R26-Pad1)*%
X162218000Y-85533000D03*
%TO.P,U4,6,~{FAULT}*%
%TO.N,unconnected-(U4-Pad6)*%
X160948000Y-85533000D03*
%TO.P,U4,5,GND*%
%TO.N,GND*%
X159678000Y-85533000D03*
%TO.P,U4,4,IP-*%
%TO.N,Net-(M2-Pad5)*%
X159678000Y-80583000D03*
%TO.P,U4,3,IP-*%
X160948000Y-80583000D03*
%TO.P,U4,2,IP+*%
%TO.N,+VSW*%
X162218000Y-80583000D03*
%TO.P,U4,1,IP+*%
X163488000Y-80583000D03*
%TD*%
D33*
%TO.P,L2,1,1*%
%TO.N,+3V3*%
X153155000Y-106050000D03*
%TO.P,L2,2,2*%
%TO.N,+3.3VA*%
X152195000Y-106050000D03*
%TD*%
%TO.P,R25,1*%
%TO.N,Net-(R25-Pad1)*%
X153130000Y-115825000D03*
%TO.P,R25,2*%
%TO.N,GND*%
X152170000Y-115825000D03*
%TD*%
D21*
%TO.P,R22,1*%
%TO.N,+3.3VA*%
X152185000Y-109650000D03*
%TO.P,R22,2*%
%TO.N,TXN*%
X153145000Y-109650000D03*
%TD*%
D33*
%TO.P,C4,2*%
%TO.N,Net-(C4-Pad2)*%
X152920000Y-90375000D03*
%TO.P,C4,1*%
%TO.N,Net-(C4-Pad1)*%
X153880000Y-90375000D03*
%TD*%
D32*
%TO.P,R3,2*%
%TO.N,Net-(D3-Pad2)*%
X144900000Y-83990000D03*
%TO.P,R3,1*%
%TO.N,+3V3*%
X144900000Y-85010000D03*
%TD*%
D50*
%TO.P,SW1,1,1*%
%TO.N,GND*%
X158925000Y-124175000D03*
X158925000Y-130475000D03*
%TO.P,SW1,2,2*%
%TO.N,EN*%
X162725000Y-130475000D03*
X162725000Y-124175000D03*
%TD*%
D43*
%TO.P,D1,2,A*%
%TO.N,Net-(D1-Pad2)*%
X142450000Y-82610000D03*
%TO.P,D1,1,K*%
%TO.N,GND*%
X142450000Y-81640000D03*
%TD*%
D51*
%TO.P,Q1,3,C*%
%TO.N,Net-(M2-Pad4)*%
X153887500Y-84525000D03*
%TO.P,Q1,2,E*%
%TO.N,GND*%
X155762500Y-83575000D03*
%TO.P,Q1,1,B*%
%TO.N,Net-(Q1-Pad1)*%
X155762500Y-85475000D03*
%TD*%
D52*
%TO.P,U2,1,VDD2A*%
%TO.N,+3.3VA*%
X155271097Y-114786136D03*
%TO.P,U2,2,LED2/nINTSEL*%
%TO.N,Net-(R20-Pad1)*%
X155624651Y-115139689D03*
%TO.P,U2,3,LED1/REGOFF*%
%TO.N,Net-(R19-Pad1)*%
X155978204Y-115493243D03*
%TO.P,U2,4,XTAL2*%
%TO.N,unconnected-(U2-Pad4)*%
X156331757Y-115846796D03*
%TO.P,U2,5,XTAL1/CLKIN*%
%TO.N,OSCIN*%
X156685311Y-116200349D03*
%TO.P,U2,6,VDDCR*%
%TO.N,+3V3*%
X157038864Y-116553903D03*
D53*
%TO.P,U2,7,RXD1/MODE1*%
%TO.N,IO26_RXD1*%
X158011136Y-116553903D03*
%TO.P,U2,8,RXD0/MODE0*%
%TO.N,IO25_RXD0*%
X158364689Y-116200349D03*
%TO.P,U2,9,VDDIO*%
%TO.N,+3V3*%
X158718243Y-115846796D03*
%TO.P,U2,10,RXER/PHYAD0*%
%TO.N,IO13_RXER*%
X159071796Y-115493243D03*
%TO.P,U2,11,CRS_DV/MODE2*%
%TO.N,IO27_CRS_DV*%
X159425349Y-115139689D03*
%TO.P,U2,12,MDIO*%
%TO.N,IO18_MDIO*%
X159778903Y-114786136D03*
D52*
%TO.P,U2,13,MDC*%
%TO.N,IO23_MDC*%
X159778903Y-113813864D03*
%TO.P,U2,14,INT/REFCLKO*%
%TO.N,IO0*%
X159425349Y-113460311D03*
%TO.P,U2,15,RST*%
%TO.N,nRST*%
X159071796Y-113106757D03*
%TO.P,U2,16,TXEN*%
%TO.N,IO21_TXEN*%
X158718243Y-112753204D03*
%TO.P,U2,17,TXD0*%
%TO.N,IO19_TXD0*%
X158364689Y-112399651D03*
%TO.P,U2,18,TXD1*%
%TO.N,IO22_TXD1*%
X158011136Y-112046097D03*
D53*
%TO.P,U2,19,VDD1A*%
%TO.N,+3.3VA*%
X157038864Y-112046097D03*
%TO.P,U2,20,TXN*%
%TO.N,TXN*%
X156685311Y-112399651D03*
%TO.P,U2,21,TXP*%
%TO.N,TXP*%
X156331757Y-112753204D03*
%TO.P,U2,22,RXN*%
%TO.N,RXN*%
X155978204Y-113106757D03*
%TO.P,U2,23,RXP*%
%TO.N,RXP*%
X155624651Y-113460311D03*
%TO.P,U2,24,RBIAS*%
%TO.N,Net-(R25-Pad1)*%
X155271097Y-113813864D03*
D54*
%TO.P,U2,25,VSS*%
%TO.N,GND*%
X157525000Y-114300000D03*
%TD*%
D55*
%TO.N,GND*%
X167300000Y-110050000D03*
D56*
%TO.N,+3V3*%
X168000000Y-91000000D03*
X167925000Y-87875000D03*
D57*
%TO.N,+3.3VA*%
X154225000Y-115375000D03*
D55*
X151450000Y-114275000D03*
X151450000Y-108325000D03*
X151450000Y-112750000D03*
X151450000Y-111375000D03*
%TO.N,IO25_RXD0*%
X172150000Y-119075000D03*
X158760294Y-119444989D03*
%TO.N,IO26_RXD1*%
X172125000Y-118150000D03*
X161000000Y-119025000D03*
%TO.N,IO27_CRS_DV*%
X172050000Y-117300000D03*
X161017628Y-116305194D03*
%TO.N,IO13_RXER*%
X159800000Y-116450000D03*
X172075000Y-116350000D03*
%TO.N,IO18_MDIO*%
X163250001Y-117119017D03*
X165228143Y-117124560D03*
%TO.N,IO19_TXD0*%
X168425000Y-115600000D03*
X159671714Y-109468092D03*
%TO.N,IO21_TXEN*%
X160015097Y-110190097D03*
X167725000Y-116100000D03*
%TO.N,IO22_TXD1*%
X162075000Y-113950000D03*
X158636230Y-110286230D03*
%TO.N,IO0*%
X160750001Y-113499999D03*
%TO.N,GND*%
X168325000Y-123650000D03*
D56*
X142450000Y-80650000D03*
X143675000Y-80625000D03*
X165800000Y-89550000D03*
X159675000Y-87275000D03*
D55*
X157525000Y-113475000D03*
D56*
X158225000Y-90075000D03*
D55*
X158603936Y-114298500D03*
D56*
X145900000Y-87025000D03*
D55*
X187125000Y-103025000D03*
X178075000Y-118100000D03*
X156533837Y-114298500D03*
D56*
X150650000Y-89900000D03*
D55*
X184500000Y-105250000D03*
X179875000Y-116925000D03*
X189525000Y-119775000D03*
X156675000Y-118950000D03*
D56*
X192450000Y-99550000D03*
X160025000Y-130475000D03*
D55*
X166150000Y-115275000D03*
D56*
X166400000Y-124725000D03*
D55*
X161950000Y-111099500D03*
X158813256Y-118647242D03*
X159325000Y-97000000D03*
X154140573Y-108278149D03*
X181525000Y-118100000D03*
D56*
X148375000Y-81026000D03*
D55*
X181525000Y-115800000D03*
X154125000Y-107175000D03*
D56*
X155741000Y-84575500D03*
X160225000Y-89250000D03*
D55*
X193650000Y-125150000D03*
X178075000Y-115800000D03*
D56*
X160125000Y-124175000D03*
X155900000Y-88050000D03*
D55*
X167000000Y-111625000D03*
X185775000Y-124475000D03*
D56*
X148375000Y-80010000D03*
D55*
%TO.N,+3V3*%
X161575000Y-100425000D03*
X188875000Y-123200000D03*
X164950000Y-116375000D03*
X192450000Y-102400000D03*
X162025000Y-99975000D03*
X162325000Y-96700000D03*
X162578023Y-116685833D03*
X191675000Y-118325000D03*
X162325000Y-96000000D03*
%TO.N,CLK50M*%
X163200000Y-111650000D03*
X151743003Y-120043003D03*
%TO.N,SDA*%
X173625000Y-108525000D03*
%TO.N,SCL*%
X171675001Y-109200000D03*
%TO.N,VCC*%
X147625000Y-86000000D03*
X142425000Y-85938994D03*
%TD*%
D58*
%TO.N,+3.3VA*%
X133375000Y-115900000D02*
X133625000Y-116150000D01*
X133375000Y-109100000D02*
X133375000Y-115900000D01*
X147400000Y-104275000D02*
X138200000Y-104275000D01*
X151450000Y-108325000D02*
X147400000Y-104275000D01*
X138200000Y-104275000D02*
X133375000Y-109100000D01*
D59*
X135275000Y-117980000D02*
X133625000Y-116330000D01*
X133625000Y-116330000D02*
X133625000Y-116150000D01*
%TO.N,ETHLEDYel*%
X145081511Y-119616511D02*
X145541511Y-119616511D01*
X135275000Y-109810000D02*
X145081511Y-119616511D01*
D58*
X145541511Y-119616511D02*
X145241511Y-119616511D01*
X149593749Y-119616511D02*
X145541511Y-119616511D01*
X150341511Y-118868749D02*
X149593749Y-119616511D01*
X150341511Y-118843749D02*
X150341511Y-118868749D01*
X152195000Y-116990260D02*
X150341511Y-118843749D01*
X152195000Y-116950000D02*
X152195000Y-116990260D01*
%TO.N,ETHLEDGreen*%
X141950000Y-117375000D02*
X139350000Y-117375000D01*
X150270000Y-120225000D02*
X144800000Y-120225000D01*
X152195000Y-118300000D02*
X150270000Y-120225000D01*
X144800000Y-120225000D02*
X141950000Y-117375000D01*
D59*
X138420000Y-117375000D02*
X139350000Y-117375000D01*
X135275000Y-120520000D02*
X138420000Y-117375000D01*
D58*
X139350000Y-117375000D02*
X139235000Y-117375000D01*
D60*
%TO.N,+3V3*%
X138400000Y-101025000D02*
X153100000Y-101025000D01*
X132325000Y-107100000D02*
X138400000Y-101025000D01*
X137125000Y-125175000D02*
X132325000Y-120375000D01*
X140225000Y-125175000D02*
X137125000Y-125175000D01*
X132325000Y-120375000D02*
X132325000Y-107100000D01*
D58*
%TO.N,GND*%
X149975000Y-80200000D02*
X149785000Y-80010000D01*
X149785000Y-80010000D02*
X148375000Y-80010000D01*
X149975000Y-80975000D02*
X149975000Y-80200000D01*
X149900000Y-81050000D02*
X149975000Y-80975000D01*
D59*
%TO.N,B*%
X195237000Y-100838000D02*
X192725001Y-103349999D01*
X192725001Y-103349999D02*
X189535000Y-103349999D01*
%TO.N,CLK50M*%
X164425000Y-110725000D02*
X164425000Y-111625000D01*
X165100000Y-110050000D02*
X164425000Y-110725000D01*
X165570000Y-110050000D02*
X165100000Y-110050000D01*
%TO.N,GND*%
X166530000Y-110050000D02*
X167300000Y-110050000D01*
D61*
%TO.N,IO13_RXER*%
X172100000Y-116350000D02*
X172075000Y-116350000D01*
X181625000Y-109900000D02*
X178550000Y-109900000D01*
X183245000Y-106970000D02*
X183245000Y-108280000D01*
X183245000Y-108280000D02*
X181625000Y-109900000D01*
X178550000Y-109900000D02*
X172100000Y-116350000D01*
D60*
%TO.N,+3V3*%
X165075000Y-97050000D02*
X174825000Y-97050000D01*
D58*
%TO.N,StateLED*%
X171554000Y-111780000D02*
X170300000Y-111780000D01*
X172301501Y-111032499D02*
X171554000Y-111780000D01*
X172301501Y-107076501D02*
X172301501Y-111032499D01*
X163725000Y-98500000D02*
X172301501Y-107076501D01*
X141050000Y-94700000D02*
X144850000Y-98500000D01*
X144850000Y-98500000D02*
X163725000Y-98500000D01*
X141600000Y-80450000D02*
X141600000Y-86000000D01*
X141600000Y-86000000D02*
X142700000Y-87100000D01*
X144400000Y-79850000D02*
X142200000Y-79850000D01*
X144900000Y-80350000D02*
X144400000Y-79850000D01*
X141050000Y-90500000D02*
X141050000Y-94700000D01*
X142700000Y-88850000D02*
X141050000Y-90500000D01*
X142200000Y-79850000D02*
X141600000Y-80450000D01*
X142700000Y-87100000D02*
X142700000Y-88850000D01*
X144900000Y-81640000D02*
X144900000Y-80350000D01*
%TO.N,+3V3*%
X141600000Y-94600000D02*
X141600000Y-90650000D01*
X142750000Y-95750000D02*
X141600000Y-94600000D01*
X142750000Y-95750000D02*
X141800000Y-94800000D01*
D59*
X142125000Y-90125000D02*
X141800000Y-90450000D01*
D58*
X141600000Y-90650000D02*
X142125000Y-90125000D01*
X143000000Y-96000000D02*
X142750000Y-95750000D01*
D59*
X144315000Y-87935000D02*
X142125000Y-90125000D01*
D58*
%TO.N,VCC*%
X142450000Y-85913994D02*
X142425000Y-85938994D01*
X142450000Y-85010000D02*
X142450000Y-85913994D01*
%TO.N,+3V3*%
X143000000Y-96000000D02*
X142475000Y-95475000D01*
X145000000Y-98000000D02*
X143000000Y-96000000D01*
X142475000Y-95475000D02*
X142000000Y-95000000D01*
X142475000Y-95475000D02*
X141992978Y-94992978D01*
D59*
X144315000Y-85010000D02*
X144315000Y-87935000D01*
D58*
X145600000Y-98000000D02*
X145000000Y-98000000D01*
X145600000Y-98000000D02*
X145200000Y-98000000D01*
X156400000Y-98000000D02*
X145600000Y-98000000D01*
X157125000Y-97275000D02*
X156400000Y-98000000D01*
X157125000Y-94500000D02*
X157125000Y-97275000D01*
D59*
%TO.N,StateLED*%
X141900000Y-87350000D02*
X141800000Y-87450000D01*
D60*
%TO.N,+3V3*%
X160975000Y-101025000D02*
X161575000Y-100425000D01*
X153100000Y-101025000D02*
X160975000Y-101025000D01*
D58*
%TO.N,PowerSW*%
X188435000Y-109240000D02*
X187300000Y-109240000D01*
X189250000Y-108425000D02*
X188435000Y-109240000D01*
X189250000Y-106725000D02*
X189250000Y-108425000D01*
X186075000Y-100275000D02*
X186075000Y-103550000D01*
X186075000Y-103550000D02*
X189250000Y-106725000D01*
X188200000Y-98150000D02*
X186075000Y-100275000D01*
X191350000Y-98150000D02*
X188200000Y-98150000D01*
X192150000Y-97350000D02*
X191350000Y-98150000D01*
X192150000Y-94825000D02*
X192150000Y-97350000D01*
X165325000Y-91525000D02*
X167650000Y-89200000D01*
X159250000Y-90225000D02*
X160550000Y-91525000D01*
X159250000Y-88275000D02*
X159250000Y-90225000D01*
X157470000Y-86495000D02*
X159250000Y-88275000D01*
X186525000Y-89200000D02*
X192150000Y-94825000D01*
X160550000Y-91525000D02*
X165325000Y-91525000D01*
X157450000Y-86495000D02*
X157470000Y-86495000D01*
X167650000Y-89200000D02*
X186525000Y-89200000D01*
D59*
%TO.N,PowerMES*%
X167625000Y-88725000D02*
X195125000Y-88725000D01*
%TO.N,+3V3*%
X163488000Y-85533000D02*
X165583000Y-85533000D01*
D58*
X168000000Y-91000000D02*
X165350000Y-93650000D01*
X165350000Y-93650000D02*
X161675000Y-93650000D01*
X167025000Y-86975000D02*
X167925000Y-87875000D01*
X165583000Y-85533000D02*
X167025000Y-86975000D01*
D59*
%TO.N,Net-(C4-Pad1)*%
X154537500Y-89000000D02*
X154537500Y-89717500D01*
X154537500Y-89717500D02*
X153880000Y-90375000D01*
D61*
%TO.N,TXP*%
X146520000Y-109927076D02*
X148583413Y-111990489D01*
X153130000Y-111375000D02*
X154953553Y-111375000D01*
X152514511Y-111990489D02*
X153130000Y-111375000D01*
X146520000Y-109430000D02*
X146520000Y-109927076D01*
X154953553Y-111375000D02*
X156331757Y-112753204D01*
X148583413Y-111990489D02*
X152514511Y-111990489D01*
%TO.N,TXN*%
X156685311Y-112399651D02*
X153935660Y-109650000D01*
X149168512Y-110591488D02*
X152203512Y-110591488D01*
X149060000Y-110700000D02*
X149168512Y-110591488D01*
X153935660Y-109650000D02*
X153145000Y-109650000D01*
X152203512Y-110591488D02*
X153145000Y-109650000D01*
%TO.N,RXP*%
X153130000Y-114270000D02*
X154425000Y-112975000D01*
X155139340Y-112975000D02*
X155624651Y-113460311D01*
X154425000Y-112975000D02*
X155139340Y-112975000D01*
X151825000Y-115050000D02*
X149825000Y-117050000D01*
X149825000Y-117050000D02*
X148562924Y-117050000D01*
X153130000Y-114275000D02*
X153130000Y-114270000D01*
X152355000Y-115050000D02*
X151825000Y-115050000D01*
X153130000Y-114275000D02*
X152355000Y-115050000D01*
X147769511Y-116256587D02*
X147769511Y-113219511D01*
X148562924Y-117050000D02*
X147769511Y-116256587D01*
X147769511Y-113219511D02*
X146520000Y-111970000D01*
%TO.N,RXN*%
X155121447Y-112250000D02*
X153630000Y-112250000D01*
X153630000Y-112250000D02*
X153130000Y-112750000D01*
X151290000Y-113550000D02*
X149060000Y-115780000D01*
X152330000Y-113550000D02*
X151290000Y-113550000D01*
X153130000Y-112750000D02*
X152330000Y-113550000D01*
X155978204Y-113106757D02*
X155121447Y-112250000D01*
D58*
%TO.N,+3.3VA*%
X152195000Y-108350000D02*
X152195000Y-108370000D01*
X152185000Y-108360000D02*
X152195000Y-108350000D01*
X152170000Y-112750000D02*
X151450000Y-112750000D01*
X152185000Y-109650000D02*
X152185000Y-108985000D01*
X152195000Y-106050000D02*
X152195000Y-108350000D01*
X152186520Y-108986520D02*
X153979287Y-108986520D01*
X154227948Y-115372052D02*
X154225000Y-115375000D01*
X152185000Y-108985000D02*
X152185000Y-108360000D01*
X152170000Y-111375000D02*
X151450000Y-111375000D01*
X152185000Y-108985000D02*
X152186520Y-108986520D01*
X153979287Y-108986520D02*
X157038864Y-112046097D01*
X155271097Y-114786136D02*
X154685181Y-115372052D01*
X151475000Y-108350000D02*
X151450000Y-108325000D01*
X152170000Y-114275000D02*
X151450000Y-114275000D01*
X152195000Y-108350000D02*
X151475000Y-108350000D01*
X154685181Y-115372052D02*
X154227948Y-115372052D01*
D59*
%TO.N,EN*%
X164495001Y-124731930D02*
X164495001Y-124725000D01*
X160225000Y-129000000D02*
X161700000Y-130475000D01*
D62*
X165613071Y-125850000D02*
X181325000Y-125850000D01*
D59*
X155505000Y-129775000D02*
X156280000Y-129000000D01*
X164495000Y-124724999D02*
X164494999Y-124220000D01*
D62*
X164495001Y-124731930D02*
X165613071Y-125850000D01*
X185235000Y-121940000D02*
X187300000Y-121940000D01*
X181325000Y-125850000D02*
X185235000Y-121940000D01*
D59*
X161700000Y-130475000D02*
X162725000Y-130475000D01*
X162725000Y-124175000D02*
X162725000Y-130475000D01*
X156280000Y-129000000D02*
X160225000Y-129000000D01*
X164494999Y-124220000D02*
X164495000Y-123550000D01*
X164450000Y-124175001D02*
X164494999Y-124220000D01*
X162725000Y-124175001D02*
X164450000Y-124175001D01*
%TO.N,UserButton*%
X190500000Y-120675000D02*
X190495000Y-120670000D01*
X190504999Y-120095001D02*
X190500000Y-120100000D01*
X191675000Y-120095001D02*
X191024999Y-120095001D01*
X190495000Y-120670000D02*
X187300000Y-120670000D01*
X190500000Y-120675000D02*
X190500000Y-122325000D01*
D60*
X196800000Y-122325000D02*
X190500000Y-122325000D01*
D59*
X191024999Y-120095001D02*
X190504999Y-120095001D01*
X190500000Y-120100000D02*
X190500000Y-120675000D01*
D58*
%TO.N,IO25_RXD0*%
X158494989Y-119444989D02*
X158760294Y-119444989D01*
X158691838Y-117158162D02*
X158073499Y-117776501D01*
X158364689Y-116200349D02*
X158691838Y-116527498D01*
D61*
X178130978Y-113050000D02*
X172150000Y-119030978D01*
X172150000Y-119030978D02*
X172150000Y-119075000D01*
D58*
X158073499Y-119023499D02*
X158494989Y-119444989D01*
X158073499Y-117776501D02*
X158073499Y-119023499D01*
X158691838Y-116527498D02*
X158691838Y-117158162D01*
D61*
X187300000Y-113050000D02*
X178130978Y-113050000D01*
D58*
%TO.N,IO26_RXD1*%
X158011136Y-116553903D02*
X157619988Y-116945051D01*
X157619988Y-116945051D02*
X157619988Y-119369988D01*
D61*
X187300000Y-111780000D02*
X178495000Y-111780000D01*
D58*
X159953511Y-120071489D02*
X161000000Y-119025000D01*
X157619988Y-119369988D02*
X158321489Y-120071489D01*
D61*
X178495000Y-111780000D02*
X172125000Y-118150000D01*
D58*
X158321489Y-120071489D02*
X159953511Y-120071489D01*
D61*
%TO.N,IO27_CRS_DV*%
X172050000Y-117350000D02*
X172050000Y-117300000D01*
X187300000Y-110510000D02*
X178890000Y-110510000D01*
D58*
X160662301Y-115949867D02*
X161017628Y-116305194D01*
D61*
X178890000Y-110510000D02*
X172050000Y-117350000D01*
D58*
X160235527Y-115949867D02*
X160662301Y-115949867D01*
X159425349Y-115139689D02*
X160235527Y-115949867D01*
%TO.N,IO13_RXER*%
X160235589Y-116635589D02*
X160214142Y-116635589D01*
X160214142Y-116635589D02*
X159071796Y-115493243D01*
D59*
%TO.N,A*%
X188515000Y-103349999D02*
X190340001Y-105175000D01*
X192837500Y-105175000D02*
X196120500Y-108458000D01*
X195158000Y-108458000D02*
X196120500Y-108458000D01*
X190340001Y-105175000D02*
X192837500Y-105175000D01*
X188515000Y-103349999D02*
X188515000Y-101600000D01*
X188515000Y-101600000D02*
X188390000Y-101475000D01*
X188390000Y-103225000D02*
X188515000Y-103350000D01*
D58*
%TO.N,IO18_MDIO*%
X162303863Y-115478689D02*
X163250001Y-116424827D01*
X163250001Y-116424827D02*
X163250001Y-117119017D01*
D61*
X168032703Y-114320000D02*
X165228143Y-117124560D01*
X170300000Y-114320000D02*
X168032703Y-114320000D01*
D58*
X161410589Y-115485589D02*
X160478357Y-115485589D01*
X159778903Y-114786136D02*
X160183884Y-115191116D01*
X160183884Y-115191116D02*
X160400000Y-115407233D01*
X161417489Y-115478689D02*
X162303863Y-115478689D01*
X160478357Y-115485589D02*
X160183884Y-115191116D01*
X161410589Y-115485589D02*
X161417489Y-115478689D01*
%TO.N,IO19_TXD0*%
X159388596Y-110419868D02*
X159388596Y-109751210D01*
X158364689Y-112399651D02*
X158771356Y-111992984D01*
X158771356Y-111037109D02*
X159388596Y-110419868D01*
X159388596Y-109751210D02*
X159671714Y-109468092D01*
X158771356Y-111992984D02*
X158771356Y-111037109D01*
D61*
X170300000Y-115590000D02*
X168435000Y-115590000D01*
X168435000Y-115590000D02*
X168425000Y-115600000D01*
D58*
%TO.N,IO21_TXEN*%
X158718243Y-112753204D02*
X159224867Y-112246580D01*
D61*
X169005000Y-118130000D02*
X167725000Y-116850000D01*
X167725000Y-116850000D02*
X167725000Y-116100000D01*
D58*
X159224867Y-111224959D02*
X160000000Y-110449826D01*
X160000000Y-110449826D02*
X160000000Y-110441362D01*
D61*
X170300000Y-118130000D02*
X169005000Y-118130000D01*
D58*
X159224867Y-112246580D02*
X159224867Y-111224959D01*
%TO.N,IO22_TXD1*%
X158011136Y-112046097D02*
X158296493Y-111760740D01*
D61*
X168718726Y-121940000D02*
X164303012Y-117524286D01*
D58*
X158296493Y-110625967D02*
X158636230Y-110286230D01*
X158296493Y-111760740D02*
X158296493Y-110853507D01*
X158296493Y-110853507D02*
X158296493Y-110625967D01*
D61*
X164303012Y-117524286D02*
X164303012Y-116178012D01*
X164303012Y-116178012D02*
X162075000Y-113950000D01*
X170300000Y-121940000D02*
X168718726Y-121940000D01*
D58*
%TO.N,IO23_MDC*%
X163876501Y-116409965D02*
X163876501Y-118054679D01*
X163876501Y-118054679D02*
X169031822Y-123210000D01*
X162113025Y-114646489D02*
X163876501Y-116409965D01*
X169031822Y-123210000D02*
X170300000Y-123210000D01*
X159778903Y-113813864D02*
X160611528Y-114646489D01*
X160611528Y-114646489D02*
X162113025Y-114646489D01*
D59*
%TO.N,B*%
X189535000Y-103085000D02*
X189535000Y-103349999D01*
X196120500Y-100838000D02*
X195237000Y-100838000D01*
X196120500Y-100838000D02*
X196162000Y-100838000D01*
X189660000Y-103225000D02*
X189535000Y-103350000D01*
X189660000Y-101475000D02*
X189660000Y-102960000D01*
X189660000Y-102960000D02*
X189535000Y-103085000D01*
X196162000Y-100838000D02*
X196200000Y-100800000D01*
D58*
%TO.N,IO0*%
X159425349Y-113460311D02*
X159752498Y-113133162D01*
D61*
X170300000Y-107970000D02*
X165960996Y-107970000D01*
D58*
X159752498Y-113133162D02*
X160383162Y-113133162D01*
X161585589Y-113214411D02*
X161585589Y-113089411D01*
D61*
X161650000Y-112280996D02*
X161650000Y-113128822D01*
D58*
X160750000Y-113500000D02*
X160750001Y-113499999D01*
X161300000Y-113500000D02*
X161585589Y-113214411D01*
D61*
X161650000Y-113128822D02*
X161660589Y-113139411D01*
X165960996Y-107970000D02*
X161650000Y-112280996D01*
D58*
X160383162Y-113133162D02*
X160750000Y-113500000D01*
X160750000Y-113500000D02*
X161300000Y-113500000D01*
%TO.N,OSCIN*%
X153475000Y-119400000D02*
X153155000Y-119400000D01*
X153850000Y-118650000D02*
X153850000Y-119025000D01*
X155700000Y-116800000D02*
X153850000Y-118650000D01*
X156085660Y-116800000D02*
X155700000Y-116800000D01*
X153850000Y-119025000D02*
X153475000Y-119400000D01*
X156685311Y-116200349D02*
X156085660Y-116800000D01*
%TO.N,nRST*%
X159910589Y-112267964D02*
X159910589Y-111935589D01*
X160757036Y-112267964D02*
X160760589Y-112264411D01*
X159910589Y-111935589D02*
X160192964Y-112217964D01*
X160192964Y-112267964D02*
X160757036Y-112267964D01*
X160192964Y-112217964D02*
X160192964Y-112267964D01*
X159910589Y-111935589D02*
X159910589Y-111439411D01*
X159910589Y-112267964D02*
X160192964Y-112267964D01*
X159071796Y-113106757D02*
X159910589Y-112267964D01*
D59*
%TO.N,PowerMES*%
X166520000Y-87620000D02*
X165800000Y-87620000D01*
X198975000Y-109025000D02*
X198975000Y-92575000D01*
X198975000Y-92575000D02*
X195125000Y-88725000D01*
X187300000Y-119400000D02*
X188975000Y-119400000D01*
X188975000Y-119400000D02*
X192350000Y-116025000D01*
X192825000Y-110600000D02*
X197400000Y-110600000D01*
X192350000Y-116025000D02*
X192350000Y-111075000D01*
X192350000Y-111075000D02*
X192825000Y-110600000D01*
X167625000Y-88725000D02*
X166520000Y-87620000D01*
X164603000Y-87630000D02*
X165790000Y-87630000D01*
X197400000Y-110600000D02*
X198975000Y-109025000D01*
X165790000Y-87630000D02*
X165800000Y-87620000D01*
D58*
%TO.N,IO33*%
X188767978Y-109957022D02*
X188767978Y-114106022D01*
X188554000Y-114320000D02*
X187300000Y-114320000D01*
X188767978Y-114106022D02*
X188554000Y-114320000D01*
X190875000Y-107850000D02*
X188767978Y-109957022D01*
%TO.N,IO32*%
X189221489Y-112043511D02*
X190875000Y-110390000D01*
X188554000Y-115590000D02*
X189221489Y-114922511D01*
X189221489Y-114922511D02*
X189221489Y-112043511D01*
X187300000Y-115590000D02*
X188554000Y-115590000D01*
%TO.N,IO35*%
X188940000Y-116860000D02*
X189675000Y-116125000D01*
X189675000Y-114130000D02*
X190875000Y-112930000D01*
X187300000Y-116860000D02*
X188940000Y-116860000D01*
X189675000Y-116125000D02*
X189675000Y-114130000D01*
%TO.N,IO34*%
X190875000Y-116536468D02*
X190875000Y-115470000D01*
X189281468Y-118130000D02*
X190875000Y-116536468D01*
X187300000Y-118130000D02*
X189281468Y-118130000D01*
%TO.N,Net-(J8-Pad1)*%
X184558022Y-103125000D02*
X181450000Y-103125000D01*
X184558022Y-103125000D02*
X187300000Y-105866978D01*
X187300000Y-105866978D02*
X187300000Y-107970000D01*
%TO.N,Net-(J8-Pad2)*%
X174355000Y-104970000D02*
X176200000Y-103125000D01*
X176200000Y-103125000D02*
X178910000Y-103125000D01*
X174355000Y-106970000D02*
X174355000Y-104970000D01*
D61*
%TO.N,IO16_OSC_EN*%
X168965000Y-110510000D02*
X168075000Y-111400000D01*
X168075000Y-112825000D02*
X167175000Y-113725000D01*
X168075000Y-111400000D02*
X168075000Y-112825000D01*
X170300000Y-110510000D02*
X168965000Y-110510000D01*
X167175000Y-113725000D02*
X166075000Y-113725000D01*
D60*
%TO.N,GND*%
X191030019Y-125944981D02*
X190680019Y-125944981D01*
D58*
X156603985Y-119021015D02*
X156675000Y-118950000D01*
D60*
X196800000Y-126125000D02*
X196425000Y-126125000D01*
D58*
X158813256Y-118086744D02*
X158813256Y-118647242D01*
D59*
X158215000Y-90085000D02*
X158225000Y-90075000D01*
D58*
X159375000Y-96950000D02*
X159325000Y-97000000D01*
X190500000Y-119140000D02*
X190160000Y-119140000D01*
X153160000Y-107200000D02*
X154100000Y-107200000D01*
D59*
X158925000Y-124175000D02*
X160125000Y-124175000D01*
D58*
X153155000Y-108350000D02*
X154068722Y-108350000D01*
D59*
X157275000Y-90085000D02*
X158215000Y-90085000D01*
X158925000Y-130475000D02*
X160025000Y-130475000D01*
D58*
X154100000Y-107200000D02*
X154125000Y-107175000D01*
D59*
X187120000Y-101475000D02*
X187120000Y-103020000D01*
D58*
X158835589Y-118064411D02*
X158813256Y-118086744D01*
X155762500Y-84554000D02*
X155741000Y-84575500D01*
D61*
X165380000Y-115400000D02*
X165505000Y-115275000D01*
D60*
X191825000Y-125150000D02*
X191030019Y-125944981D01*
D59*
X142450000Y-81640000D02*
X142450000Y-80650000D01*
D61*
X161439411Y-111585589D02*
X161925500Y-111099500D01*
D59*
X154537500Y-88050000D02*
X155900000Y-88050000D01*
D61*
X185780000Y-124480000D02*
X185775000Y-124475000D01*
D58*
X159375000Y-96105000D02*
X159375000Y-96950000D01*
D59*
X192450000Y-100520000D02*
X192450000Y-99550000D01*
X145915000Y-88050000D02*
X145915000Y-87040000D01*
D60*
X196425000Y-126125000D02*
X195450000Y-125150000D01*
D58*
X161675000Y-89250000D02*
X160225000Y-89250000D01*
X156689411Y-118264411D02*
X156689411Y-118935589D01*
X149060000Y-118320000D02*
X149675000Y-118320000D01*
X184515000Y-105265000D02*
X184500000Y-105250000D01*
D60*
X193650000Y-125150000D02*
X191825000Y-125150000D01*
D59*
X165455001Y-124725000D02*
X166400000Y-124725000D01*
X187120000Y-103020000D02*
X187125000Y-103025000D01*
D58*
X158835589Y-118064411D02*
X158835589Y-118071482D01*
X154068722Y-108350000D02*
X154140573Y-108278149D01*
D59*
X165800000Y-88580000D02*
X165800000Y-89550000D01*
D58*
X155762500Y-83575000D02*
X155762500Y-84554000D01*
D61*
X161925500Y-111099500D02*
X161950000Y-111099500D01*
D58*
X184515000Y-106970000D02*
X184515000Y-105265000D01*
X190160000Y-119140000D02*
X189525000Y-119775000D01*
X150650000Y-89030000D02*
X150650000Y-89900000D01*
X149675000Y-118320000D02*
X152170000Y-115825000D01*
X158994100Y-118828086D02*
X158813256Y-118647242D01*
D59*
X143675000Y-81640000D02*
X143675000Y-80625000D01*
D58*
X159678000Y-87272000D02*
X159675000Y-87275000D01*
X156689411Y-118935589D02*
X156675000Y-118950000D01*
D61*
X165505000Y-115275000D02*
X166150000Y-115275000D01*
X166075000Y-111625000D02*
X167000000Y-111625000D01*
D58*
X148399000Y-81050000D02*
X148375000Y-81026000D01*
X155925736Y-119021015D02*
X156603985Y-119021015D01*
D61*
X170300000Y-124480000D02*
X169155000Y-124480000D01*
D60*
X195450000Y-125150000D02*
X193650000Y-125150000D01*
D59*
X145915000Y-87040000D02*
X145900000Y-87025000D01*
D58*
X149900000Y-81050000D02*
X148399000Y-81050000D01*
D61*
X169155000Y-124480000D02*
X168325000Y-123650000D01*
D58*
X159678000Y-85533000D02*
X159678000Y-87272000D01*
D61*
X187300000Y-124480000D02*
X185780000Y-124480000D01*
D58*
X159592193Y-118828086D02*
X158994100Y-118828086D01*
%TO.N,+3V3*%
X160271015Y-117957807D02*
X160914411Y-117314411D01*
X188865000Y-123210000D02*
X188875000Y-123200000D01*
X186175000Y-93775000D02*
X186175000Y-94100000D01*
D60*
X142805000Y-125470000D02*
X142805000Y-125805000D01*
D58*
X186500000Y-94100000D02*
X186525000Y-94100000D01*
D59*
X143675000Y-85010000D02*
X144315000Y-85010000D01*
D58*
X162089411Y-116164411D02*
X162089411Y-116197221D01*
D60*
X142175000Y-125175000D02*
X142075000Y-125175000D01*
X181300000Y-97100000D02*
X174875000Y-97100000D01*
D62*
X164680000Y-122775000D02*
X157975000Y-122775000D01*
D58*
X189025000Y-96175000D02*
X188700000Y-96500000D01*
X189025000Y-96525000D02*
X189025000Y-96175000D01*
D62*
X153500000Y-131350000D02*
X144380000Y-131350000D01*
D58*
X162089411Y-116197221D02*
X162578023Y-116685833D01*
X185300000Y-96135000D02*
X184335000Y-97100000D01*
D59*
X157125000Y-91085000D02*
X157125000Y-94500000D01*
D58*
X186175000Y-94525000D02*
X186175000Y-95260000D01*
X155912500Y-119962500D02*
X155575000Y-119625000D01*
X186175000Y-92930001D02*
X186175000Y-93775000D01*
X160914411Y-117314411D02*
X161700000Y-118100000D01*
X159145349Y-116273902D02*
X159145349Y-117023598D01*
D61*
X153155000Y-106050000D02*
X153100000Y-105995000D01*
D62*
X165455000Y-123550000D02*
X164680000Y-122775000D01*
D61*
X158700000Y-106050000D02*
X160614598Y-107964598D01*
D58*
X189025000Y-96175000D02*
X189025000Y-95125000D01*
D59*
X144315000Y-85010000D02*
X144900000Y-85010000D01*
X190930000Y-101475000D02*
X192445000Y-101475000D01*
D58*
X155240014Y-119290014D02*
X155240014Y-118349093D01*
X160939411Y-117314411D02*
X162089411Y-116164411D01*
X189025000Y-96525000D02*
X189400000Y-96525000D01*
X156212500Y-120262500D02*
X156062500Y-120112500D01*
X155662500Y-119712500D02*
X155662500Y-120112500D01*
D60*
X165075000Y-97050000D02*
X161675000Y-93650000D01*
D58*
X159145349Y-117023598D02*
X160271015Y-118149264D01*
D60*
X140225000Y-125175000D02*
X142075000Y-125175000D01*
D58*
X191675000Y-119140000D02*
X191675000Y-118325000D01*
X160625000Y-120525000D02*
X156475000Y-120525000D01*
X156062500Y-120112500D02*
X155662500Y-120112500D01*
X155575000Y-119625000D02*
X155240014Y-119290014D01*
D60*
X142820000Y-125805000D02*
X143450000Y-125175000D01*
X143525000Y-125175000D02*
X150600000Y-125175000D01*
D61*
X153155000Y-106050000D02*
X158700000Y-106050000D01*
D60*
X142805000Y-125805000D02*
X142175000Y-125175000D01*
D58*
X189375000Y-96525000D02*
X189400000Y-96525000D01*
X155240014Y-118349093D02*
X155246914Y-118342193D01*
D62*
X154250000Y-130600000D02*
X153500000Y-131350000D01*
D58*
X160271015Y-118149264D02*
X160271015Y-117957807D01*
D62*
X144380000Y-131350000D02*
X142805000Y-129775000D01*
D58*
X189025000Y-95125000D02*
X188000000Y-94100000D01*
X164420001Y-115504417D02*
X164950000Y-116034416D01*
D59*
X156125000Y-90085000D02*
X157125000Y-91085000D01*
D60*
X142805000Y-125805000D02*
X142820000Y-125805000D01*
D58*
X186175000Y-94425000D02*
X186175000Y-94525000D01*
D60*
X142805000Y-125805000D02*
X142805000Y-129775000D01*
D58*
X188700000Y-96525000D02*
X189025000Y-96525000D01*
X160914411Y-117314411D02*
X160939411Y-117314411D01*
X188000000Y-94100000D02*
X186525000Y-94100000D01*
X185325000Y-92080001D02*
X186175000Y-92930001D01*
X159384758Y-95145000D02*
X159375000Y-95145000D01*
D60*
X142075000Y-125175000D02*
X143100000Y-125175000D01*
D59*
X181250000Y-97050000D02*
X181300000Y-97100000D01*
D58*
X161700000Y-118100000D02*
X161700000Y-119450000D01*
X188390000Y-96525000D02*
X188700000Y-96525000D01*
D61*
X160614598Y-107964598D02*
X160614598Y-110438420D01*
D59*
X174875000Y-97100000D02*
X174825000Y-97050000D01*
D58*
X189025000Y-96175000D02*
X189375000Y-96525000D01*
X156475000Y-120525000D02*
X156212500Y-120262500D01*
D62*
X154250000Y-126500000D02*
X154250000Y-130600000D01*
D58*
X158718243Y-115846796D02*
X159145349Y-116273902D01*
X184335000Y-97100000D02*
X181300000Y-97100000D01*
X155575000Y-119625000D02*
X155662500Y-119712500D01*
X161700000Y-119450000D02*
X160625000Y-120525000D01*
D61*
X164425000Y-113725000D02*
X164424999Y-115395000D01*
D58*
X186175000Y-95260000D02*
X185300000Y-96135000D01*
X161675000Y-93650000D02*
X161675000Y-94924758D01*
D60*
X150600000Y-125175000D02*
X155662500Y-120112500D01*
D61*
X153100000Y-105995000D02*
X153100000Y-101025000D01*
D58*
X186500000Y-94100000D02*
X186175000Y-94425000D01*
X164420001Y-115250000D02*
X164420001Y-115504417D01*
X160325000Y-96085242D02*
X159384758Y-95145000D01*
D61*
X160589411Y-110463607D02*
X160589411Y-110760589D01*
D58*
X189400000Y-96525000D02*
X189660000Y-96525000D01*
X164950000Y-116034416D02*
X164950000Y-116375000D01*
X186175000Y-93775000D02*
X186500000Y-94100000D01*
X187300000Y-123210000D02*
X188865000Y-123210000D01*
D59*
X192450000Y-101480000D02*
X192450000Y-102400000D01*
D58*
X188700000Y-96500000D02*
X188700000Y-96525000D01*
D60*
X155662500Y-120112500D02*
X155775000Y-120000000D01*
X139950000Y-125175000D02*
X140225000Y-125175000D01*
D59*
X192445000Y-101475000D02*
X192450000Y-101480000D01*
D58*
X155250574Y-118342193D02*
X157038864Y-116553903D01*
X156212500Y-120262500D02*
X155912500Y-119962500D01*
D61*
X164424999Y-115395000D02*
X164419999Y-115400000D01*
D58*
X186175000Y-94100000D02*
X186175000Y-94525000D01*
D60*
X143450000Y-125175000D02*
X143525000Y-125175000D01*
D62*
X157975000Y-122775000D02*
X154250000Y-126500000D01*
D60*
X143100000Y-125175000D02*
X143525000Y-125175000D01*
D58*
X155246914Y-118342193D02*
X155250574Y-118342193D01*
X186525000Y-94100000D02*
X186175000Y-94100000D01*
D61*
X160614598Y-110438420D02*
X160589411Y-110463607D01*
D59*
%TO.N,Net-(D1-Pad2)*%
X142450000Y-82610000D02*
X142450000Y-83990000D01*
%TO.N,Net-(D2-Pad2)*%
X143675000Y-82610000D02*
X143675000Y-83990000D01*
%TO.N,Net-(D3-Pad2)*%
X144900000Y-82610000D02*
X144900000Y-83990000D01*
%TO.N,Net-(D4-Pad2)*%
X146950000Y-86935000D02*
X146940000Y-86925000D01*
X146950000Y-89425000D02*
X146950000Y-86935000D01*
D62*
%TO.N,RX*%
X170300000Y-119400000D02*
X171500000Y-119400000D01*
X168586733Y-125523489D02*
X165511733Y-122448489D01*
X172500000Y-124717778D02*
X171694289Y-125523489D01*
X171500000Y-119400000D02*
X172500000Y-120400000D01*
X165511733Y-122448489D02*
X157751511Y-122448489D01*
X172500000Y-120400000D02*
X172500000Y-124717778D01*
X171694289Y-125523489D02*
X168586733Y-125523489D01*
X157751511Y-122448489D02*
X150425000Y-129775000D01*
%TO.N,TX*%
X171427000Y-120670000D02*
X172125000Y-121368000D01*
X168721978Y-125196978D02*
X165646978Y-122121978D01*
X172125000Y-121368000D02*
X172125000Y-124631022D01*
X172125000Y-124631022D02*
X171559044Y-125196978D01*
X155538022Y-122121978D02*
X147885000Y-129775000D01*
X170300000Y-120670000D02*
X171427000Y-120670000D01*
X165646978Y-122121978D02*
X155538022Y-122121978D01*
X171559044Y-125196978D02*
X168721978Y-125196978D01*
D61*
%TO.N,CLK50M*%
X152195000Y-119400000D02*
X151743003Y-119851997D01*
X162264411Y-112410589D02*
X162439411Y-112410589D01*
X164425000Y-111625000D02*
X163225000Y-111625000D01*
X162439411Y-112410589D02*
X163200000Y-111650000D01*
X151743003Y-119851997D02*
X151743003Y-120043003D01*
X163225000Y-111625000D02*
X163200000Y-111650000D01*
D59*
%TO.N,Net-(IC1-Pad3)*%
X154537500Y-87100000D02*
X156225000Y-87100000D01*
X156660000Y-87535000D02*
X156660000Y-89065000D01*
X156660000Y-89065000D02*
X157275000Y-89065000D01*
X156125000Y-89065000D02*
X156660000Y-89065000D01*
X156225000Y-87100000D02*
X156660000Y-87535000D01*
D60*
%TO.N,SDA*%
X185285000Y-95100000D02*
X185300000Y-95115000D01*
D58*
X171600000Y-113050000D02*
X173625000Y-111025000D01*
X170300000Y-113050000D02*
X171600000Y-113050000D01*
X173625000Y-111025000D02*
X173625000Y-108525000D01*
D60*
X181300000Y-95100000D02*
X185285000Y-95100000D01*
X174825000Y-95050000D02*
X181250000Y-95050000D01*
X181250000Y-95050000D02*
X181300000Y-95100000D01*
D61*
%TO.N,SCL*%
X171675001Y-109200000D02*
X170340000Y-109200000D01*
D58*
X170300000Y-109240000D02*
X170365000Y-109175000D01*
D61*
X170340000Y-109200000D02*
X170300000Y-109240000D01*
D60*
X181300000Y-93100000D02*
X185325000Y-93100001D01*
X174825000Y-93050000D02*
X181250000Y-93050000D01*
X181250000Y-93050000D02*
X181300000Y-93100000D01*
D58*
%TO.N,Net-(M2-Pad4)*%
X154260000Y-81775000D02*
X153750000Y-82285000D01*
X153750000Y-84387500D02*
X153887500Y-84525000D01*
X153750000Y-82285000D02*
X153750000Y-84387500D01*
X155050000Y-81775000D02*
X154260000Y-81775000D01*
%TO.N,VCC*%
X153750000Y-81265000D02*
X155040000Y-81265000D01*
D59*
X152262500Y-88050000D02*
X150670000Y-88050000D01*
X150670000Y-88050000D02*
X150650000Y-88070000D01*
D58*
X155040000Y-81265000D02*
X155050000Y-81275000D01*
X147910000Y-86925000D02*
X147910000Y-86285000D01*
X147910000Y-86285000D02*
X147625000Y-86000000D01*
%TO.N,Net-(Q1-Pad1)*%
X155762500Y-85475000D02*
X157450000Y-85475000D01*
%TO.N,WS28_Out*%
X173085000Y-106970000D02*
X173085000Y-104065000D01*
X173085000Y-104065000D02*
X177925000Y-99225000D01*
X177925000Y-99225000D02*
X185750000Y-99225000D01*
X185750000Y-99225000D02*
X187120000Y-97855000D01*
X187120000Y-97855000D02*
X187120000Y-96525000D01*
%TO.N,Net-(R19-Pad1)*%
X155961757Y-115493243D02*
X153602500Y-117852500D01*
X155978204Y-115493243D02*
X155961757Y-115493243D01*
X153602500Y-117852500D02*
X153421447Y-118033553D01*
X153155000Y-118300000D02*
X153602500Y-117852500D01*
%TO.N,Net-(R20-Pad1)*%
X153814340Y-116950000D02*
X155624651Y-115139689D01*
X153155000Y-116950000D02*
X153814340Y-116950000D01*
%TO.N,Net-(R25-Pad1)*%
X153130000Y-115825000D02*
X153130000Y-115579483D01*
X153130000Y-115579483D02*
X155083358Y-113626125D01*
X155083358Y-113626125D02*
X155271097Y-113813864D01*
D59*
%TO.N,Net-(R26-Pad1)*%
X162218000Y-85533000D02*
X162218000Y-86205000D01*
X162218000Y-86205000D02*
X163643000Y-87630000D01*
%TD*%
%TA.AperFunction,Conductor*%
%TO.N,Net-(M2-Pad5)*%
G36*
X161347306Y-78250306D02*
G01*
X161564694Y-78467694D01*
X161583000Y-78511888D01*
X161583000Y-82524112D01*
X161564694Y-82568306D01*
X161347306Y-82785694D01*
X161303112Y-82804000D01*
X155766888Y-82804000D01*
X155722694Y-82785694D01*
X155505306Y-82568306D01*
X155487000Y-82524112D01*
X155487000Y-82444710D01*
X155505306Y-82400516D01*
X155514143Y-82393264D01*
X155514438Y-82392969D01*
X155519552Y-82389552D01*
X155563867Y-82323231D01*
X155575500Y-82264748D01*
X155575500Y-81725252D01*
X155567929Y-81687191D01*
X155567929Y-81662809D01*
X155575500Y-81624748D01*
X155575500Y-81085252D01*
X155565940Y-81037191D01*
X155565940Y-81012809D01*
X155575500Y-80964748D01*
X155575500Y-80425252D01*
X155567929Y-80387191D01*
X155567929Y-80362809D01*
X155575500Y-80324748D01*
X155575500Y-79785252D01*
X155563867Y-79726769D01*
X155519552Y-79660448D01*
X155514438Y-79657031D01*
X155510082Y-79652675D01*
X155511062Y-79651695D01*
X155488201Y-79617485D01*
X155487000Y-79605290D01*
X155487000Y-78511888D01*
X155505306Y-78467694D01*
X155722694Y-78250306D01*
X155766888Y-78232000D01*
X161303112Y-78232000D01*
X161347306Y-78250306D01*
G37*
%TD.AperFunction*%
%TD*%
%TA.AperFunction,Conductor*%
%TO.N,VCC*%
G36*
X151525000Y-86627118D02*
G01*
X151504998Y-86695239D01*
X151488173Y-86716136D01*
X151460707Y-86743650D01*
X151409464Y-86848482D01*
X151399500Y-86916782D01*
X151399500Y-87283218D01*
X151409642Y-87352112D01*
X151461068Y-87456855D01*
X151543650Y-87539293D01*
X151648482Y-87590536D01*
X151678973Y-87594984D01*
X151712256Y-87599840D01*
X151712260Y-87599840D01*
X151716782Y-87600500D01*
X152808218Y-87600500D01*
X152812768Y-87599830D01*
X152812771Y-87599830D01*
X152867426Y-87591784D01*
X152867427Y-87591784D01*
X152877112Y-87590358D01*
X152886683Y-87585659D01*
X152918470Y-87570053D01*
X152988433Y-87557985D01*
X153053814Y-87585659D01*
X153093855Y-87644287D01*
X153100000Y-87683156D01*
X153100000Y-88144573D01*
X153079998Y-88212694D01*
X153059141Y-88237454D01*
X152836130Y-88441881D01*
X152772399Y-88473168D01*
X152750989Y-88475000D01*
X149825000Y-88475000D01*
X149818147Y-88482331D01*
X148787351Y-89585043D01*
X148726221Y-89621148D01*
X148695305Y-89625000D01*
X147395417Y-89625000D01*
X147327296Y-89604998D01*
X147280803Y-89551342D01*
X147271331Y-89477122D01*
X147274544Y-89458899D01*
X147274544Y-89458895D01*
X147275500Y-89453475D01*
X147275500Y-88556159D01*
X147295502Y-88488038D01*
X147312405Y-88467064D01*
X147349065Y-88430404D01*
X147399068Y-88323173D01*
X147405500Y-88274316D01*
X147405500Y-87825684D01*
X147399068Y-87776827D01*
X147349065Y-87669596D01*
X147312405Y-87632936D01*
X147278379Y-87570624D01*
X147275500Y-87543841D01*
X147275500Y-87453909D01*
X147295502Y-87385788D01*
X147312327Y-87364891D01*
X147367372Y-87309750D01*
X147367372Y-87309749D01*
X147374730Y-87302379D01*
X147425608Y-87198294D01*
X147435500Y-87130486D01*
X147435500Y-86719514D01*
X147425431Y-86651116D01*
X147405069Y-86609642D01*
X147378962Y-86556469D01*
X147374372Y-86547120D01*
X147292379Y-86465270D01*
X147188294Y-86414392D01*
X147178615Y-86412980D01*
X147125013Y-86405160D01*
X147125007Y-86405160D01*
X147120486Y-86404500D01*
X146901000Y-86404500D01*
X146832879Y-86384498D01*
X146786386Y-86330842D01*
X146775000Y-86278500D01*
X146775000Y-84100000D01*
X147425000Y-83500000D01*
X151525000Y-83500000D01*
X151525000Y-86627118D01*
G37*
%TD.AperFunction*%
%TD*%
%TA.AperFunction,Conductor*%
%TO.N,VCC*%
G36*
X155335625Y-78268306D02*
G01*
X155353931Y-78312500D01*
X155343398Y-78347224D01*
X155315449Y-78389052D01*
X155297143Y-78433246D01*
X155281500Y-78511888D01*
X155281500Y-79605290D01*
X155282489Y-79625431D01*
X155283690Y-79637626D01*
X155317340Y-79731664D01*
X155319475Y-79734859D01*
X155319476Y-79734861D01*
X155335461Y-79758781D01*
X155340201Y-79765874D01*
X155341508Y-79765001D01*
X155348684Y-79772381D01*
X155349005Y-79772892D01*
X155349481Y-79774088D01*
X155348686Y-79774619D01*
X155351173Y-79778340D01*
X155351174Y-79778344D01*
X155359467Y-79790755D01*
X155370000Y-79825478D01*
X155370000Y-80298353D01*
X155368799Y-80310546D01*
X155366378Y-80322717D01*
X155362429Y-80362809D01*
X155362429Y-80387191D01*
X155366378Y-80427283D01*
X155366677Y-80428785D01*
X155368799Y-80439454D01*
X155370000Y-80451647D01*
X155370000Y-80938355D01*
X155368799Y-80950548D01*
X155364389Y-80972718D01*
X155360440Y-81012809D01*
X155360440Y-81037191D01*
X155364389Y-81077282D01*
X155364688Y-81078784D01*
X155368799Y-81099452D01*
X155370000Y-81111645D01*
X155370000Y-81476604D01*
X155351694Y-81520798D01*
X155307500Y-81539104D01*
X155267324Y-81524481D01*
X155267277Y-81524442D01*
X155263760Y-81520250D01*
X155259023Y-81517515D01*
X155168475Y-81465237D01*
X155168473Y-81465236D01*
X155163739Y-81462503D01*
X155098712Y-81451037D01*
X155081330Y-81447972D01*
X155081328Y-81447972D01*
X155078652Y-81447500D01*
X154277025Y-81447500D01*
X154271577Y-81447262D01*
X154270967Y-81447209D01*
X154231016Y-81443713D01*
X154191684Y-81454252D01*
X154186361Y-81455432D01*
X154151647Y-81461553D01*
X154151646Y-81461554D01*
X154146261Y-81462503D01*
X154140712Y-81465707D01*
X154125644Y-81471948D01*
X154119457Y-81473606D01*
X154114979Y-81476741D01*
X154114980Y-81476741D01*
X154086108Y-81496957D01*
X154081513Y-81499885D01*
X154046240Y-81520250D01*
X154042726Y-81524438D01*
X154020066Y-81551443D01*
X154016382Y-81555463D01*
X153940151Y-81631694D01*
X153895957Y-81650000D01*
X153200000Y-81650000D01*
X153200000Y-83553585D01*
X153195254Y-83577474D01*
X153025318Y-83988309D01*
X153011804Y-84008567D01*
X152943374Y-84077132D01*
X152876720Y-84143917D01*
X152876719Y-84143919D01*
X152693000Y-84328000D01*
X152690739Y-84581990D01*
X152690685Y-84588066D01*
X152677490Y-86070286D01*
X152658989Y-86114120D01*
X152439272Y-86331890D01*
X152395275Y-86350000D01*
X151525000Y-86350000D01*
X151525000Y-83500000D01*
X147425000Y-83500000D01*
X146775000Y-84100000D01*
X146775000Y-81026000D01*
X147769318Y-81026000D01*
X147789956Y-81182762D01*
X147850464Y-81328841D01*
X147946718Y-81454282D01*
X148072159Y-81550536D01*
X148075942Y-81552103D01*
X148214452Y-81609476D01*
X148214453Y-81609476D01*
X148218238Y-81611044D01*
X148222300Y-81611579D01*
X148222301Y-81611579D01*
X148370936Y-81631147D01*
X148375000Y-81631682D01*
X148379064Y-81631147D01*
X148527699Y-81611579D01*
X148527700Y-81611579D01*
X148531762Y-81611044D01*
X148535547Y-81609476D01*
X148535548Y-81609476D01*
X148674058Y-81552103D01*
X148677841Y-81550536D01*
X148681087Y-81548045D01*
X148681091Y-81548043D01*
X148798953Y-81457605D01*
X148845158Y-81445225D01*
X148886585Y-81469143D01*
X148899500Y-81507190D01*
X148899500Y-82353834D01*
X148902481Y-82385369D01*
X148947366Y-82513184D01*
X149027850Y-82622150D01*
X149136816Y-82702634D01*
X149141224Y-82704182D01*
X149141226Y-82704183D01*
X149168088Y-82713616D01*
X149264631Y-82747519D01*
X149281058Y-82749072D01*
X149294702Y-82750362D01*
X149294710Y-82750362D01*
X149296166Y-82750500D01*
X150503834Y-82750500D01*
X150505290Y-82750362D01*
X150505298Y-82750362D01*
X150518942Y-82749072D01*
X150535369Y-82747519D01*
X150631912Y-82713616D01*
X150658774Y-82704183D01*
X150658776Y-82704182D01*
X150663184Y-82702634D01*
X150772150Y-82622150D01*
X150852634Y-82513184D01*
X150897519Y-82385369D01*
X150900500Y-82353834D01*
X150900500Y-79746166D01*
X150897519Y-79714631D01*
X150866458Y-79626181D01*
X150854183Y-79591226D01*
X150854181Y-79591222D01*
X150852634Y-79586816D01*
X150772150Y-79477850D01*
X150663184Y-79397366D01*
X150658776Y-79395818D01*
X150658774Y-79395817D01*
X150589176Y-79371377D01*
X150535369Y-79352481D01*
X150518942Y-79350928D01*
X150505298Y-79349638D01*
X150505290Y-79349638D01*
X150503834Y-79349500D01*
X149296166Y-79349500D01*
X149294710Y-79349638D01*
X149294702Y-79349638D01*
X149281058Y-79350928D01*
X149264631Y-79352481D01*
X149210824Y-79371377D01*
X149141226Y-79395817D01*
X149141224Y-79395818D01*
X149136816Y-79397366D01*
X149027850Y-79477850D01*
X149025075Y-79481607D01*
X148952971Y-79579228D01*
X148947366Y-79586816D01*
X148943256Y-79598518D01*
X148941616Y-79603189D01*
X148909701Y-79638821D01*
X148861938Y-79641449D01*
X148833062Y-79620528D01*
X148805772Y-79584963D01*
X148803282Y-79581718D01*
X148677841Y-79485464D01*
X148652760Y-79475075D01*
X148535548Y-79426524D01*
X148535547Y-79426524D01*
X148531762Y-79424956D01*
X148527700Y-79424421D01*
X148527699Y-79424421D01*
X148379064Y-79404853D01*
X148375000Y-79404318D01*
X148370936Y-79404853D01*
X148222301Y-79424421D01*
X148222300Y-79424421D01*
X148218238Y-79424956D01*
X148214453Y-79426524D01*
X148214452Y-79426524D01*
X148097240Y-79475075D01*
X148072159Y-79485464D01*
X147946718Y-79581718D01*
X147850464Y-79707159D01*
X147848897Y-79710942D01*
X147801455Y-79825478D01*
X147789956Y-79853238D01*
X147769318Y-80010000D01*
X147789956Y-80166762D01*
X147850464Y-80312841D01*
X147887629Y-80361276D01*
X147939768Y-80429224D01*
X147946718Y-80438282D01*
X147985990Y-80468416D01*
X148009906Y-80509842D01*
X147997526Y-80556048D01*
X147985991Y-80567583D01*
X147946718Y-80597718D01*
X147850464Y-80723159D01*
X147789956Y-80869238D01*
X147769318Y-81026000D01*
X146775000Y-81026000D01*
X146775000Y-78529888D01*
X146793306Y-78485694D01*
X147010694Y-78268306D01*
X147054888Y-78250000D01*
X155291431Y-78250000D01*
X155335625Y-78268306D01*
G37*
%TD.AperFunction*%
%TD*%
%TA.AperFunction,Conductor*%
%TO.N,+VSW*%
G36*
X205767121Y-78270002D02*
G01*
X205813614Y-78323658D01*
X205825000Y-78376000D01*
X205825000Y-120624000D01*
X205804998Y-120692121D01*
X205751342Y-120738614D01*
X205699000Y-120750000D01*
X193076000Y-120750000D01*
X193007879Y-120729998D01*
X192961386Y-120676342D01*
X192950000Y-120624000D01*
X192950000Y-116925096D01*
X193812500Y-116925096D01*
X193812837Y-116931611D01*
X193822756Y-117027203D01*
X193825650Y-117040602D01*
X193877088Y-117194783D01*
X193883262Y-117207962D01*
X193968563Y-117345807D01*
X193977599Y-117357208D01*
X194092330Y-117471739D01*
X194103741Y-117480751D01*
X194241745Y-117565818D01*
X194254923Y-117571962D01*
X194409216Y-117623139D01*
X194422581Y-117626005D01*
X194516939Y-117635672D01*
X194523355Y-117636000D01*
X195602385Y-117636000D01*
X195617624Y-117631525D01*
X195618829Y-117630135D01*
X195620500Y-117622452D01*
X195620500Y-117617885D01*
X196620500Y-117617885D01*
X196624975Y-117633124D01*
X196626365Y-117634329D01*
X196634048Y-117636000D01*
X197717596Y-117636000D01*
X197724111Y-117635663D01*
X197819703Y-117625744D01*
X197833102Y-117622850D01*
X197987283Y-117571412D01*
X198000462Y-117565238D01*
X198138307Y-117479937D01*
X198149708Y-117470901D01*
X198264239Y-117356170D01*
X198273251Y-117344759D01*
X198358318Y-117206755D01*
X198364462Y-117193577D01*
X198415639Y-117039284D01*
X198418505Y-117025919D01*
X198428172Y-116931561D01*
X198428500Y-116925145D01*
X198428500Y-116596115D01*
X198424025Y-116580876D01*
X198422635Y-116579671D01*
X198414952Y-116578000D01*
X196638615Y-116578000D01*
X196623376Y-116582475D01*
X196622171Y-116583865D01*
X196620500Y-116591548D01*
X196620500Y-117617885D01*
X195620500Y-117617885D01*
X195620500Y-116596115D01*
X195616025Y-116580876D01*
X195614635Y-116579671D01*
X195606952Y-116578000D01*
X193830615Y-116578000D01*
X193815376Y-116582475D01*
X193814171Y-116583865D01*
X193812500Y-116591548D01*
X193812500Y-116925096D01*
X192950000Y-116925096D01*
X192950000Y-115559885D01*
X193812500Y-115559885D01*
X193816975Y-115575124D01*
X193818365Y-115576329D01*
X193826048Y-115578000D01*
X195602385Y-115578000D01*
X195617624Y-115573525D01*
X195618829Y-115572135D01*
X195620500Y-115564452D01*
X195620500Y-115559885D01*
X196620500Y-115559885D01*
X196624975Y-115575124D01*
X196626365Y-115576329D01*
X196634048Y-115578000D01*
X198410385Y-115578000D01*
X198425624Y-115573525D01*
X198426829Y-115572135D01*
X198428500Y-115564452D01*
X198428500Y-115230904D01*
X198428163Y-115224389D01*
X198418244Y-115128797D01*
X198415350Y-115115398D01*
X198363912Y-114961217D01*
X198357738Y-114948038D01*
X198272437Y-114810193D01*
X198263401Y-114798792D01*
X198148670Y-114684261D01*
X198137259Y-114675249D01*
X197999255Y-114590182D01*
X197986077Y-114584038D01*
X197831784Y-114532861D01*
X197818419Y-114529995D01*
X197724061Y-114520328D01*
X197717644Y-114520000D01*
X196638615Y-114520000D01*
X196623376Y-114524475D01*
X196622171Y-114525865D01*
X196620500Y-114533548D01*
X196620500Y-115559885D01*
X195620500Y-115559885D01*
X195620500Y-114538115D01*
X195616025Y-114522876D01*
X195614635Y-114521671D01*
X195606952Y-114520000D01*
X194523404Y-114520000D01*
X194516889Y-114520337D01*
X194421297Y-114530256D01*
X194407898Y-114533150D01*
X194253717Y-114584588D01*
X194240538Y-114590762D01*
X194102693Y-114676063D01*
X194091292Y-114685099D01*
X193976761Y-114799830D01*
X193967749Y-114811241D01*
X193882682Y-114949245D01*
X193876538Y-114962423D01*
X193825361Y-115116716D01*
X193822495Y-115130081D01*
X193812828Y-115224439D01*
X193812500Y-115230856D01*
X193812500Y-115559885D01*
X192950000Y-115559885D01*
X192950000Y-111226000D01*
X192970002Y-111157879D01*
X193023658Y-111111386D01*
X193076000Y-111100000D01*
X198550000Y-111100000D01*
X199675000Y-109975000D01*
X199675000Y-91050000D01*
X196100000Y-87475000D01*
X169050786Y-87475000D01*
X168982665Y-87454998D01*
X168963409Y-87439781D01*
X167975820Y-86489227D01*
X165000000Y-83625000D01*
X164988866Y-83624950D01*
X159549851Y-83600560D01*
X159481821Y-83580252D01*
X159435569Y-83526389D01*
X159424417Y-83475150D01*
X159422832Y-83136089D01*
X159442516Y-83067876D01*
X159495954Y-83021132D01*
X159548831Y-83009500D01*
X161303112Y-83009500D01*
X161330737Y-83004005D01*
X161375683Y-82995065D01*
X161375687Y-82995064D01*
X161381754Y-82993857D01*
X161425948Y-82975551D01*
X161459022Y-82953451D01*
X161487476Y-82934439D01*
X161487479Y-82934436D01*
X161492616Y-82931004D01*
X161710004Y-82713616D01*
X161754551Y-82646948D01*
X161772857Y-82602754D01*
X161788500Y-82524112D01*
X161788500Y-82170534D01*
X161808502Y-82102413D01*
X161862158Y-82055920D01*
X161914141Y-82044535D01*
X161914705Y-82044533D01*
X161918000Y-82037264D01*
X161918000Y-82031513D01*
X162518000Y-82031513D01*
X162521973Y-82045044D01*
X162529871Y-82046179D01*
X162623787Y-82018894D01*
X162638223Y-82012647D01*
X162767678Y-81936088D01*
X162775770Y-81929811D01*
X162841854Y-81903861D01*
X162911477Y-81917759D01*
X162930230Y-81929811D01*
X162938322Y-81936088D01*
X163067777Y-82012647D01*
X163082213Y-82018894D01*
X163170605Y-82044574D01*
X163184705Y-82044534D01*
X163188000Y-82037264D01*
X163188000Y-82031513D01*
X163788000Y-82031513D01*
X163791973Y-82045044D01*
X163799871Y-82046179D01*
X163893787Y-82018894D01*
X163908223Y-82012647D01*
X164037678Y-81936089D01*
X164050104Y-81926449D01*
X164156449Y-81820104D01*
X164166089Y-81807678D01*
X164242648Y-81678221D01*
X164248893Y-81663790D01*
X164291269Y-81517935D01*
X164293570Y-81505333D01*
X164295807Y-81476916D01*
X164296000Y-81471986D01*
X164296000Y-81467095D01*
X200720028Y-81467095D01*
X200745534Y-81734431D01*
X200746619Y-81738865D01*
X200746620Y-81738871D01*
X200763457Y-81807678D01*
X200809364Y-81995285D01*
X200811076Y-81999511D01*
X200811077Y-81999515D01*
X200829978Y-82046179D01*
X200910182Y-82244192D01*
X201045875Y-82475938D01*
X201048728Y-82479505D01*
X201160225Y-82618925D01*
X201213601Y-82685669D01*
X201409846Y-82868991D01*
X201492929Y-82926628D01*
X201626746Y-83019461D01*
X201626751Y-83019464D01*
X201630499Y-83022064D01*
X201634584Y-83024096D01*
X201634587Y-83024098D01*
X201722585Y-83067876D01*
X201870938Y-83141680D01*
X201875272Y-83143101D01*
X201875275Y-83143102D01*
X202121793Y-83223915D01*
X202121798Y-83223916D01*
X202126126Y-83225335D01*
X202130617Y-83226115D01*
X202130618Y-83226115D01*
X202386936Y-83270620D01*
X202386944Y-83270621D01*
X202390717Y-83271276D01*
X202394554Y-83271467D01*
X202473996Y-83275422D01*
X202474004Y-83275422D01*
X202475567Y-83275500D01*
X202643223Y-83275500D01*
X202645491Y-83275335D01*
X202645503Y-83275335D01*
X202775823Y-83265879D01*
X202842846Y-83261016D01*
X202847301Y-83260032D01*
X202847304Y-83260032D01*
X203100620Y-83204105D01*
X203100624Y-83204104D01*
X203105080Y-83203120D01*
X203272617Y-83139646D01*
X203351941Y-83109593D01*
X203351944Y-83109592D01*
X203356211Y-83107975D01*
X203590976Y-82977574D01*
X203733254Y-82868991D01*
X203800833Y-82817417D01*
X203800837Y-82817413D01*
X203804458Y-82814650D01*
X203992185Y-82622614D01*
X204150225Y-82405491D01*
X204237313Y-82239963D01*
X204273140Y-82171868D01*
X204273143Y-82171862D01*
X204275265Y-82167828D01*
X204298366Y-82102413D01*
X204363165Y-81918916D01*
X204363165Y-81918915D01*
X204364688Y-81914603D01*
X204411279Y-81678221D01*
X204415739Y-81655594D01*
X204415740Y-81655588D01*
X204416620Y-81651122D01*
X204418034Y-81622717D01*
X204429745Y-81387474D01*
X204429745Y-81387468D01*
X204429972Y-81382905D01*
X204404466Y-81115569D01*
X204395098Y-81077282D01*
X204341721Y-80859149D01*
X204340636Y-80854715D01*
X204239818Y-80605808D01*
X204104125Y-80374062D01*
X203993211Y-80235371D01*
X203939251Y-80167897D01*
X203939250Y-80167895D01*
X203936399Y-80164331D01*
X203740154Y-79981009D01*
X203580436Y-79870208D01*
X203523254Y-79830539D01*
X203523249Y-79830536D01*
X203519501Y-79827936D01*
X203515416Y-79825904D01*
X203515413Y-79825902D01*
X203343560Y-79740407D01*
X203279062Y-79708320D01*
X203274728Y-79706899D01*
X203274725Y-79706898D01*
X203028207Y-79626085D01*
X203028202Y-79626084D01*
X203023874Y-79624665D01*
X203019382Y-79623885D01*
X202763064Y-79579380D01*
X202763056Y-79579379D01*
X202759283Y-79578724D01*
X202750622Y-79578293D01*
X202676004Y-79574578D01*
X202675996Y-79574578D01*
X202674433Y-79574500D01*
X202506777Y-79574500D01*
X202504509Y-79574665D01*
X202504497Y-79574665D01*
X202374177Y-79584121D01*
X202307154Y-79588984D01*
X202302699Y-79589968D01*
X202302696Y-79589968D01*
X202049380Y-79645895D01*
X202049376Y-79645896D01*
X202044920Y-79646880D01*
X202008538Y-79660664D01*
X201798059Y-79740407D01*
X201798056Y-79740408D01*
X201793789Y-79742025D01*
X201559024Y-79872426D01*
X201555392Y-79875198D01*
X201349167Y-80032583D01*
X201349163Y-80032587D01*
X201345542Y-80035350D01*
X201157815Y-80227386D01*
X201155130Y-80231075D01*
X201012314Y-80427283D01*
X200999775Y-80444509D01*
X200997651Y-80448547D01*
X200876860Y-80678132D01*
X200876857Y-80678138D01*
X200874735Y-80682172D01*
X200873215Y-80686477D01*
X200873213Y-80686481D01*
X200813804Y-80854715D01*
X200785312Y-80935397D01*
X200760222Y-81062694D01*
X200757347Y-81077282D01*
X200733380Y-81198878D01*
X200733153Y-81203431D01*
X200733153Y-81203434D01*
X200723992Y-81387474D01*
X200720028Y-81467095D01*
X164296000Y-81467095D01*
X164296000Y-80901115D01*
X164291525Y-80885876D01*
X164290135Y-80884671D01*
X164282452Y-80883000D01*
X163806115Y-80883000D01*
X163790876Y-80887475D01*
X163789671Y-80888865D01*
X163788000Y-80896548D01*
X163788000Y-82031513D01*
X163188000Y-82031513D01*
X163188000Y-80901115D01*
X163183525Y-80885876D01*
X163182135Y-80884671D01*
X163174452Y-80883000D01*
X162536115Y-80883000D01*
X162520876Y-80887475D01*
X162519671Y-80888865D01*
X162518000Y-80896548D01*
X162518000Y-82031513D01*
X161918000Y-82031513D01*
X161918000Y-80264885D01*
X162518000Y-80264885D01*
X162522475Y-80280124D01*
X162523865Y-80281329D01*
X162531548Y-80283000D01*
X163169885Y-80283000D01*
X163185124Y-80278525D01*
X163186329Y-80277135D01*
X163188000Y-80269452D01*
X163188000Y-80264885D01*
X163788000Y-80264885D01*
X163792475Y-80280124D01*
X163793865Y-80281329D01*
X163801548Y-80283000D01*
X164277884Y-80283000D01*
X164293123Y-80278525D01*
X164294328Y-80277135D01*
X164295999Y-80269452D01*
X164295999Y-79694017D01*
X164295805Y-79689080D01*
X164293570Y-79660664D01*
X164291270Y-79648069D01*
X164248893Y-79502210D01*
X164242648Y-79487779D01*
X164166089Y-79358322D01*
X164156449Y-79345896D01*
X164050104Y-79239551D01*
X164037678Y-79229911D01*
X163908223Y-79153353D01*
X163893787Y-79147106D01*
X163805395Y-79121426D01*
X163791295Y-79121466D01*
X163788000Y-79128736D01*
X163788000Y-80264885D01*
X163188000Y-80264885D01*
X163188000Y-79134487D01*
X163184027Y-79120956D01*
X163176129Y-79119821D01*
X163082213Y-79147106D01*
X163067777Y-79153353D01*
X162938322Y-79229912D01*
X162930230Y-79236189D01*
X162864146Y-79262139D01*
X162794523Y-79248241D01*
X162775770Y-79236189D01*
X162767678Y-79229912D01*
X162638223Y-79153353D01*
X162623787Y-79147106D01*
X162535395Y-79121426D01*
X162521295Y-79121466D01*
X162518000Y-79128736D01*
X162518000Y-80264885D01*
X161918000Y-80264885D01*
X161918000Y-79134487D01*
X161914027Y-79120956D01*
X161896568Y-79118446D01*
X161831987Y-79088953D01*
X161793604Y-79029227D01*
X161788500Y-78993729D01*
X161788500Y-78511888D01*
X161772857Y-78433246D01*
X161770488Y-78427527D01*
X161770486Y-78427520D01*
X161769118Y-78424217D01*
X161768917Y-78422347D01*
X161768691Y-78421602D01*
X161768832Y-78421559D01*
X161761529Y-78353627D01*
X161793309Y-78290140D01*
X161854368Y-78253914D01*
X161885527Y-78250000D01*
X205699000Y-78250000D01*
X205767121Y-78270002D01*
G37*
%TD.AperFunction*%
%TD*%
%TA.AperFunction,Conductor*%
%TO.N,Net-(J1-Pad1)*%
G36*
X146390712Y-89933692D02*
G01*
X146390961Y-89933091D01*
X146396654Y-89935449D01*
X146401769Y-89938867D01*
X146407803Y-89940067D01*
X146407805Y-89940068D01*
X146457239Y-89949901D01*
X146457242Y-89949901D01*
X146460252Y-89950500D01*
X146999748Y-89950500D01*
X147037809Y-89942929D01*
X147062191Y-89942929D01*
X147100252Y-89950500D01*
X147639748Y-89950500D01*
X147687809Y-89940940D01*
X147712191Y-89940940D01*
X147760252Y-89950500D01*
X148299748Y-89950500D01*
X148337809Y-89942929D01*
X148362191Y-89942929D01*
X148400252Y-89950500D01*
X148939748Y-89950500D01*
X148942758Y-89949901D01*
X148942761Y-89949901D01*
X148992195Y-89940068D01*
X148992197Y-89940067D01*
X148998231Y-89938867D01*
X149003346Y-89935449D01*
X149009039Y-89933091D01*
X149009288Y-89933692D01*
X149037945Y-89925000D01*
X149162500Y-89925000D01*
X149206694Y-89943306D01*
X149225000Y-89987500D01*
X149225000Y-93024112D01*
X149206694Y-93068306D01*
X147443306Y-94831694D01*
X147399112Y-94850000D01*
X142339042Y-94850000D01*
X142294848Y-94831694D01*
X141945806Y-94482652D01*
X141927500Y-94438458D01*
X141927500Y-90811542D01*
X141945806Y-90767348D01*
X142374905Y-90338250D01*
X142376837Y-90336318D01*
X142380309Y-90331360D01*
X142387310Y-90323016D01*
X142767020Y-89943306D01*
X142811214Y-89925000D01*
X146362055Y-89925000D01*
X146390712Y-89933692D01*
G37*
%TD.AperFunction*%
%TD*%
%TA.AperFunction,Conductor*%
%TO.N,+3V3*%
G36*
X158006789Y-90634591D02*
G01*
X158068238Y-90660044D01*
X158225000Y-90680682D01*
X158233188Y-90679604D01*
X158373574Y-90661122D01*
X158381762Y-90660044D01*
X158443211Y-90634591D01*
X158491429Y-90625000D01*
X158572810Y-90625000D01*
X158640931Y-90645002D01*
X158661905Y-90661905D01*
X160025000Y-92025000D01*
X160460930Y-92021697D01*
X160546015Y-92021053D01*
X160614285Y-92040538D01*
X160661183Y-92093840D01*
X160671819Y-92164035D01*
X160664951Y-92191278D01*
X160630467Y-92283265D01*
X160626842Y-92298510D01*
X160621369Y-92348892D01*
X160621000Y-92355706D01*
X160621000Y-93377885D01*
X160625475Y-93393124D01*
X160626865Y-93394329D01*
X160634548Y-93396000D01*
X162710884Y-93396000D01*
X162726123Y-93391525D01*
X162727328Y-93390135D01*
X162728999Y-93382452D01*
X162728999Y-92355708D01*
X162728630Y-92348890D01*
X162723159Y-92298518D01*
X162719531Y-92283262D01*
X162678659Y-92174236D01*
X162673476Y-92103429D01*
X162707397Y-92041060D01*
X162769652Y-92006930D01*
X162795687Y-92004010D01*
X163272252Y-92000400D01*
X163340522Y-92019885D01*
X163362301Y-92037301D01*
X164288095Y-92963095D01*
X164322121Y-93025407D01*
X164325000Y-93052190D01*
X164325000Y-95947810D01*
X164304998Y-96015931D01*
X164288095Y-96036905D01*
X163361905Y-96963095D01*
X163299593Y-96997121D01*
X163272810Y-97000000D01*
X159939888Y-97000000D01*
X159871767Y-96979998D01*
X159825274Y-96926342D01*
X159815161Y-96891864D01*
X159814481Y-96887115D01*
X159810323Y-96858082D01*
X159750984Y-96727572D01*
X159733047Y-96706755D01*
X159703733Y-96642092D01*
X159702500Y-96624507D01*
X159702500Y-96620058D01*
X159722502Y-96551937D01*
X159744323Y-96529231D01*
X159743316Y-96528224D01*
X159828224Y-96443316D01*
X159878972Y-96334487D01*
X159885500Y-96284901D01*
X159885499Y-95925100D01*
X159878972Y-95875513D01*
X159828224Y-95766684D01*
X159813465Y-95751925D01*
X159779439Y-95689613D01*
X159784504Y-95618798D01*
X159813465Y-95573735D01*
X159860715Y-95526485D01*
X159872226Y-95510642D01*
X159919885Y-95417107D01*
X159922149Y-95410138D01*
X159921253Y-95403211D01*
X159907281Y-95399000D01*
X158842260Y-95399000D01*
X158829024Y-95402887D01*
X158827980Y-95410534D01*
X158830115Y-95417107D01*
X158877774Y-95510642D01*
X158889285Y-95526485D01*
X158936535Y-95573735D01*
X158970561Y-95636047D01*
X158965496Y-95706862D01*
X158936535Y-95751925D01*
X158921776Y-95766684D01*
X158871028Y-95875513D01*
X158864500Y-95925099D01*
X158864501Y-96284900D01*
X158871028Y-96334487D01*
X158921776Y-96443316D01*
X158958614Y-96480154D01*
X158992640Y-96542466D01*
X158987575Y-96613281D01*
X158963961Y-96652656D01*
X158919438Y-96703070D01*
X158902377Y-96722388D01*
X158841447Y-96852163D01*
X158840066Y-96861035D01*
X158835029Y-96893384D01*
X158804785Y-96957617D01*
X158744616Y-96995302D01*
X158710529Y-97000000D01*
X155726000Y-97000000D01*
X155657879Y-96979998D01*
X155611386Y-96926342D01*
X155600000Y-96874000D01*
X155600000Y-96572725D01*
X155620002Y-96504604D01*
X155673658Y-96458111D01*
X155750582Y-96449146D01*
X155768917Y-96452793D01*
X155781170Y-96454000D01*
X156702885Y-96454000D01*
X156718124Y-96449525D01*
X156719329Y-96448135D01*
X156721000Y-96440452D01*
X156721000Y-96435884D01*
X157229000Y-96435884D01*
X157233475Y-96451123D01*
X157234865Y-96452328D01*
X157242548Y-96453999D01*
X158168828Y-96453999D01*
X158181088Y-96452791D01*
X158236931Y-96441685D01*
X158259427Y-96432367D01*
X158322808Y-96390017D01*
X158340017Y-96372808D01*
X158382368Y-96309425D01*
X158391684Y-96286934D01*
X158402793Y-96231085D01*
X158404000Y-96218830D01*
X158404000Y-94944292D01*
X160621001Y-94944292D01*
X160621370Y-94951110D01*
X160626841Y-95001482D01*
X160630470Y-95016741D01*
X160675222Y-95136118D01*
X160683754Y-95151704D01*
X160759572Y-95252867D01*
X160772133Y-95265428D01*
X160873296Y-95341246D01*
X160888882Y-95349778D01*
X161008265Y-95394533D01*
X161023510Y-95398158D01*
X161073892Y-95403631D01*
X161080706Y-95404000D01*
X161402885Y-95404000D01*
X161418124Y-95399525D01*
X161419329Y-95398135D01*
X161421000Y-95390452D01*
X161421000Y-95385884D01*
X161929000Y-95385884D01*
X161933475Y-95401123D01*
X161934865Y-95402328D01*
X161942548Y-95403999D01*
X162269292Y-95403999D01*
X162276110Y-95403630D01*
X162326482Y-95398159D01*
X162341741Y-95394530D01*
X162461118Y-95349778D01*
X162476704Y-95341246D01*
X162577867Y-95265428D01*
X162590428Y-95252867D01*
X162666246Y-95151704D01*
X162674778Y-95136118D01*
X162719533Y-95016735D01*
X162723158Y-95001490D01*
X162728631Y-94951108D01*
X162729000Y-94944294D01*
X162729000Y-93922115D01*
X162724525Y-93906876D01*
X162723135Y-93905671D01*
X162715452Y-93904000D01*
X161947115Y-93904000D01*
X161931876Y-93908475D01*
X161930671Y-93909865D01*
X161929000Y-93917548D01*
X161929000Y-95385884D01*
X161421000Y-95385884D01*
X161421000Y-93922115D01*
X161416525Y-93906876D01*
X161415135Y-93905671D01*
X161407452Y-93904000D01*
X160639116Y-93904000D01*
X160623877Y-93908475D01*
X160622672Y-93909865D01*
X160621001Y-93917548D01*
X160621001Y-94944292D01*
X158404000Y-94944292D01*
X158404000Y-94879862D01*
X158827851Y-94879862D01*
X158828747Y-94886789D01*
X158842719Y-94891000D01*
X159102885Y-94891000D01*
X159118124Y-94886525D01*
X159119329Y-94885135D01*
X159121000Y-94877452D01*
X159121000Y-94872885D01*
X159629000Y-94872885D01*
X159633475Y-94888124D01*
X159634865Y-94889329D01*
X159642548Y-94891000D01*
X159907740Y-94891000D01*
X159920976Y-94887113D01*
X159922020Y-94879466D01*
X159919885Y-94872893D01*
X159872226Y-94779358D01*
X159860715Y-94763515D01*
X159786485Y-94689285D01*
X159770642Y-94677774D01*
X159677103Y-94630114D01*
X159658478Y-94624062D01*
X159646892Y-94622227D01*
X159633211Y-94623995D01*
X159629000Y-94637967D01*
X159629000Y-94872885D01*
X159121000Y-94872885D01*
X159121000Y-94637509D01*
X159117113Y-94624273D01*
X159102655Y-94622299D01*
X159091527Y-94624062D01*
X159072893Y-94630115D01*
X158979358Y-94677774D01*
X158963515Y-94689285D01*
X158889285Y-94763515D01*
X158877774Y-94779358D01*
X158830115Y-94872893D01*
X158827851Y-94879862D01*
X158404000Y-94879862D01*
X158404000Y-94722115D01*
X158399525Y-94706876D01*
X158398135Y-94705671D01*
X158390452Y-94704000D01*
X157247115Y-94704000D01*
X157231876Y-94708475D01*
X157230671Y-94709865D01*
X157229000Y-94717548D01*
X157229000Y-96435884D01*
X156721000Y-96435884D01*
X156721000Y-94177885D01*
X157229000Y-94177885D01*
X157233475Y-94193124D01*
X157234865Y-94194329D01*
X157242548Y-94196000D01*
X158385884Y-94196000D01*
X158401123Y-94191525D01*
X158402328Y-94190135D01*
X158403999Y-94182452D01*
X158403999Y-92681172D01*
X158402791Y-92668912D01*
X158391685Y-92613069D01*
X158382367Y-92590573D01*
X158340017Y-92527192D01*
X158322808Y-92509983D01*
X158259425Y-92467632D01*
X158236934Y-92458316D01*
X158181085Y-92447207D01*
X158168830Y-92446000D01*
X157247115Y-92446000D01*
X157231876Y-92450475D01*
X157230671Y-92451865D01*
X157229000Y-92459548D01*
X157229000Y-94177885D01*
X156721000Y-94177885D01*
X156721000Y-92464116D01*
X156716525Y-92448877D01*
X156715135Y-92447672D01*
X156707452Y-92446001D01*
X155781172Y-92446001D01*
X155768912Y-92447209D01*
X155750579Y-92450855D01*
X155679865Y-92444526D01*
X155623799Y-92400971D01*
X155600000Y-92327276D01*
X155600000Y-90751000D01*
X155620002Y-90682879D01*
X155673658Y-90636386D01*
X155726000Y-90625000D01*
X157958571Y-90625000D01*
X158006789Y-90634591D01*
G37*
%TD.AperFunction*%
%TD*%
%TA.AperFunction,Conductor*%
%TO.N,Net-(C4-Pad2)*%
G36*
X153089306Y-88668306D02*
G01*
X153306694Y-88885694D01*
X153325000Y-88929888D01*
X153325000Y-90658569D01*
X153320242Y-90682487D01*
X153150152Y-91093120D01*
X153136604Y-91113396D01*
X152475000Y-91775000D01*
X152475000Y-96420112D01*
X152456694Y-96464306D01*
X152239306Y-96681694D01*
X152195112Y-96700000D01*
X149804888Y-96700000D01*
X149760694Y-96681694D01*
X149543306Y-96464306D01*
X149525000Y-96420112D01*
X149525000Y-90729888D01*
X149543306Y-90685694D01*
X149760694Y-90468306D01*
X149804888Y-90450000D01*
X150396200Y-90450000D01*
X150420118Y-90454757D01*
X150489457Y-90483478D01*
X150493238Y-90485044D01*
X150497294Y-90485578D01*
X150497298Y-90485579D01*
X150645936Y-90505147D01*
X150650000Y-90505682D01*
X150654064Y-90505147D01*
X150802702Y-90485579D01*
X150802706Y-90485578D01*
X150806762Y-90485044D01*
X150810543Y-90483478D01*
X150879882Y-90454757D01*
X150903800Y-90450000D01*
X151625000Y-90450000D01*
X151625000Y-88929888D01*
X151643306Y-88885694D01*
X151830194Y-88698806D01*
X151874388Y-88680500D01*
X152750989Y-88680500D01*
X152751665Y-88680471D01*
X152751672Y-88680471D01*
X152767853Y-88679780D01*
X152768509Y-88679752D01*
X152789919Y-88677920D01*
X152862959Y-88657638D01*
X152865564Y-88656359D01*
X152868277Y-88655327D01*
X152868424Y-88655715D01*
X152893032Y-88650000D01*
X153045112Y-88650000D01*
X153089306Y-88668306D01*
G37*
%TD.AperFunction*%
%TD*%
M02*
