%TF.GenerationSoftware,KiCad,Pcbnew,(6.0.4)*%
%TF.CreationDate,2022-07-19T00:25:02+02:00*%
%TF.ProjectId,Controller_Room,436f6e74-726f-46c6-9c65-725f526f6f6d,rev?*%
%TF.SameCoordinates,Original*%
%TF.FileFunction,Paste,Top*%
%TF.FilePolarity,Positive*%
%FSLAX46Y46*%
G04 Gerber Fmt 4.6, Leading zero omitted, Abs format (unit mm)*
G04 Created by KiCad (PCBNEW (6.0.4)) date 2022-07-19 00:25:02*
%MOMM*%
%LPD*%
G01*
G04 APERTURE LIST*
G04 Aperture macros list*
%AMRoundRect*
0 Rectangle with rounded corners*
0 $1 Rounding radius*
0 $2 $3 $4 $5 $6 $7 $8 $9 X,Y pos of 4 corners*
0 Add a 4 corners polygon primitive as box body*
4,1,4,$2,$3,$4,$5,$6,$7,$8,$9,$2,$3,0*
0 Add four circle primitives for the rounded corners*
1,1,$1+$1,$2,$3*
1,1,$1+$1,$4,$5*
1,1,$1+$1,$6,$7*
1,1,$1+$1,$8,$9*
0 Add four rect primitives between the rounded corners*
20,1,$1+$1,$2,$3,$4,$5,0*
20,1,$1+$1,$4,$5,$6,$7,0*
20,1,$1+$1,$6,$7,$8,$9,0*
20,1,$1+$1,$8,$9,$2,$3,0*%
G04 Aperture macros list end*
%ADD10R,0.570000X0.738000*%
%ADD11R,0.630000X0.500000*%
%ADD12R,0.738000X0.570000*%
%ADD13R,0.500000X0.630000*%
%ADD14R,1.100000X1.300000*%
%ADD15RoundRect,0.140000X-0.140000X-0.170000X0.140000X-0.170000X0.140000X0.170000X-0.140000X0.170000X0*%
%ADD16RoundRect,0.147500X0.147500X0.172500X-0.147500X0.172500X-0.147500X-0.172500X0.147500X-0.172500X0*%
%ADD17RoundRect,0.135000X-0.185000X0.135000X-0.185000X-0.135000X0.185000X-0.135000X0.185000X0.135000X0*%
%ADD18RoundRect,0.140000X0.021213X-0.219203X0.219203X-0.021213X-0.021213X0.219203X-0.219203X0.021213X0*%
%ADD19RoundRect,0.140000X-0.170000X0.140000X-0.170000X-0.140000X0.170000X-0.140000X0.170000X0.140000X0*%
%ADD20RoundRect,0.135000X0.185000X-0.135000X0.185000X0.135000X-0.185000X0.135000X-0.185000X-0.135000X0*%
%ADD21RoundRect,0.140000X0.140000X0.170000X-0.140000X0.170000X-0.140000X-0.170000X0.140000X-0.170000X0*%
%ADD22RoundRect,0.250000X0.550000X-1.250000X0.550000X1.250000X-0.550000X1.250000X-0.550000X-1.250000X0*%
%ADD23RoundRect,0.140000X-0.021213X0.219203X-0.219203X0.021213X0.021213X-0.219203X0.219203X-0.021213X0*%
%ADD24R,1.700000X1.000000*%
%ADD25RoundRect,0.140000X-0.219203X-0.021213X-0.021213X-0.219203X0.219203X0.021213X0.021213X0.219203X0*%
%ADD26RoundRect,0.140000X0.170000X-0.140000X0.170000X0.140000X-0.170000X0.140000X-0.170000X-0.140000X0*%
%ADD27RoundRect,0.140000X0.219203X0.021213X0.021213X0.219203X-0.219203X-0.021213X-0.021213X-0.219203X0*%
%ADD28RoundRect,0.135000X0.135000X0.185000X-0.135000X0.185000X-0.135000X-0.185000X0.135000X-0.185000X0*%
%ADD29RoundRect,0.147500X-0.172500X0.147500X-0.172500X-0.147500X0.172500X-0.147500X0.172500X0.147500X0*%
%ADD30RoundRect,0.150000X0.512500X0.150000X-0.512500X0.150000X-0.512500X-0.150000X0.512500X-0.150000X0*%
%ADD31RoundRect,0.150000X-0.150000X0.825000X-0.150000X-0.825000X0.150000X-0.825000X0.150000X0.825000X0*%
%ADD32R,2.000000X0.900000*%
%ADD33R,0.900000X2.000000*%
%ADD34R,5.000000X5.000000*%
%ADD35R,2.350000X3.500000*%
%ADD36R,1.000000X1.700000*%
%ADD37RoundRect,0.150000X0.587500X0.150000X-0.587500X0.150000X-0.587500X-0.150000X0.587500X-0.150000X0*%
%ADD38RoundRect,0.250000X0.000000X-0.388909X0.388909X0.000000X0.000000X0.388909X-0.388909X0.000000X0*%
%ADD39RoundRect,0.062500X-0.203293X-0.291682X0.291682X0.203293X0.203293X0.291682X-0.291682X-0.203293X0*%
%ADD40RoundRect,0.062500X0.203293X-0.291682X0.291682X-0.203293X-0.203293X0.291682X-0.291682X0.203293X0*%
G04 APERTURE END LIST*
D10*
%TO.C,M2*%
X157360000Y-80415000D03*
D11*
X157940000Y-80055000D03*
X157940000Y-80695000D03*
D10*
X156410000Y-80415000D03*
X157360000Y-81635000D03*
D11*
X157940000Y-81355000D03*
X157940000Y-81995000D03*
D10*
X156410000Y-81635000D03*
D11*
X155060000Y-81995000D03*
X155060000Y-81355000D03*
X155060000Y-80695000D03*
X155060000Y-80055000D03*
%TD*%
D12*
%TO.C,M1*%
X148310000Y-91735000D03*
D13*
X148670000Y-92315000D03*
X148030000Y-92315000D03*
D12*
X148310000Y-90785000D03*
X147090000Y-91735000D03*
D13*
X147370000Y-92315000D03*
X146730000Y-92315000D03*
D12*
X147090000Y-90785000D03*
D13*
X146730000Y-89435000D03*
X147370000Y-89435000D03*
X148030000Y-89435000D03*
X148670000Y-89435000D03*
%TD*%
D14*
%TO.C,X1*%
X164425000Y-113725000D03*
X164425000Y-111625000D03*
X166075000Y-111625000D03*
X166075000Y-113725000D03*
%TD*%
D15*
%TO.C,C18*%
X165570000Y-110050000D03*
X166530000Y-110050000D03*
%TD*%
%TO.C,C15*%
X152195000Y-108350000D03*
X153155000Y-108350000D03*
%TD*%
D16*
%TO.C,D4*%
X146940000Y-86925000D03*
X147910000Y-86925000D03*
%TD*%
D17*
%TO.C,R7*%
X185325000Y-92080001D03*
X185325000Y-93100001D03*
%TD*%
D15*
%TO.C,R21*%
X152170000Y-111375000D03*
X153130000Y-111375000D03*
%TD*%
D18*
%TO.C,C9*%
X160760589Y-112264411D03*
X161439411Y-111585589D03*
%TD*%
D19*
%TO.C,R13*%
X191675000Y-119140000D03*
X191675000Y-120100000D03*
%TD*%
D15*
%TO.C,R26*%
X164603000Y-87630000D03*
X163643000Y-87630000D03*
%TD*%
%TO.C,C16*%
X164420001Y-115250000D03*
X165380001Y-115250000D03*
%TD*%
D19*
%TO.C,C1*%
X150650000Y-89030000D03*
X150650000Y-88070000D03*
%TD*%
D15*
%TO.C,C14*%
X152200000Y-107200000D03*
X153160000Y-107200000D03*
%TD*%
D20*
%TO.C,R8*%
X185300000Y-96135000D03*
X185300000Y-95115000D03*
%TD*%
D21*
%TO.C,R12*%
X165455000Y-123550000D03*
X164495000Y-123550000D03*
%TD*%
%TO.C,R20*%
X153155000Y-116950000D03*
X152195000Y-116950000D03*
%TD*%
D22*
%TO.C,C2*%
X149900000Y-81050000D03*
X149900000Y-85450000D03*
%TD*%
D17*
%TO.C,R10*%
X156125000Y-90085000D03*
X156125000Y-89065000D03*
%TD*%
D20*
%TO.C,R2*%
X143675000Y-83990000D03*
X143675000Y-85010000D03*
%TD*%
D23*
%TO.C,C11*%
X159514411Y-117385589D03*
X158835589Y-118064411D03*
%TD*%
D17*
%TO.C,R6*%
X153750000Y-82285000D03*
X153750000Y-81265000D03*
%TD*%
D24*
%TO.C,SW2*%
X190500000Y-126125000D03*
X196800000Y-126125000D03*
X190500000Y-122325000D03*
X196800000Y-122325000D03*
%TD*%
D25*
%TO.C,C13*%
X156010589Y-117585589D03*
X156689411Y-118264411D03*
%TD*%
D23*
%TO.C,R16*%
X162339411Y-112460589D03*
X161660589Y-113139411D03*
%TD*%
D20*
%TO.C,R11*%
X157275000Y-89065000D03*
X157275000Y-90085000D03*
%TD*%
D23*
%TO.C,C10*%
X160271015Y-118149264D03*
X159592193Y-118828086D03*
%TD*%
%TO.C,R18*%
X160589411Y-110760589D03*
X159910589Y-111439411D03*
%TD*%
D26*
%TO.C,C8*%
X190500000Y-120100000D03*
X190500000Y-119140000D03*
%TD*%
D27*
%TO.C,R14*%
X160914411Y-117314411D03*
X160235589Y-116635589D03*
%TD*%
D15*
%TO.C,R17*%
X152195000Y-119400000D03*
X153155000Y-119400000D03*
%TD*%
D28*
%TO.C,R9*%
X189535000Y-103349999D03*
X188515000Y-103349999D03*
%TD*%
%TO.C,R4*%
X145915000Y-88050000D03*
X146935000Y-88050000D03*
%TD*%
D15*
%TO.C,C7*%
X164495001Y-124725000D03*
X165455001Y-124725000D03*
%TD*%
D29*
%TO.C,D2*%
X143675000Y-82610000D03*
X143675000Y-81640000D03*
%TD*%
D15*
%TO.C,R24*%
X152170000Y-112750000D03*
X153130000Y-112750000D03*
%TD*%
D19*
%TO.C,C5*%
X159375000Y-96105000D03*
X159375000Y-95145000D03*
%TD*%
D15*
%TO.C,R23*%
X152170000Y-114275000D03*
X153130000Y-114275000D03*
%TD*%
D30*
%TO.C,IC1*%
X152262500Y-89000000D03*
X152262500Y-88050000D03*
X152262500Y-87100000D03*
X154537500Y-87100000D03*
X154537500Y-88050000D03*
X154537500Y-89000000D03*
%TD*%
D22*
%TO.C,C6*%
X161675000Y-89250000D03*
X161675000Y-93650000D03*
%TD*%
D31*
%TO.C,U3*%
X190930000Y-96525000D03*
X189660000Y-96525000D03*
X188390000Y-96525000D03*
X187120000Y-96525000D03*
X187120000Y-101475000D03*
X188390000Y-101475000D03*
X189660000Y-101475000D03*
X190930000Y-101475000D03*
%TD*%
D21*
%TO.C,R19*%
X153155000Y-118300000D03*
X152195000Y-118300000D03*
%TD*%
D27*
%TO.C,R15*%
X162089411Y-116164411D03*
X161410589Y-115485589D03*
%TD*%
D32*
%TO.C,U1*%
X187300000Y-124480000D03*
X187300000Y-123210000D03*
X187300000Y-121940000D03*
X187300000Y-120670000D03*
X187300000Y-119400000D03*
X187300000Y-118130000D03*
X187300000Y-116860000D03*
X187300000Y-115590000D03*
X187300000Y-114320000D03*
X187300000Y-113050000D03*
X187300000Y-111780000D03*
X187300000Y-110510000D03*
X187300000Y-109240000D03*
X187300000Y-107970000D03*
D33*
X184515000Y-106970000D03*
X183245000Y-106970000D03*
X181975000Y-106970000D03*
X180705000Y-106970000D03*
X179435000Y-106970000D03*
X178165000Y-106970000D03*
X176895000Y-106970000D03*
X175625000Y-106970000D03*
X174355000Y-106970000D03*
X173085000Y-106970000D03*
D32*
X170300000Y-107970000D03*
X170300000Y-109240000D03*
X170300000Y-110510000D03*
X170300000Y-111780000D03*
X170300000Y-113050000D03*
X170300000Y-114320000D03*
X170300000Y-115590000D03*
X170300000Y-116860000D03*
X170300000Y-118130000D03*
X170300000Y-119400000D03*
X170300000Y-120670000D03*
X170300000Y-121940000D03*
X170300000Y-123210000D03*
X170300000Y-124480000D03*
D34*
X179800000Y-116980000D03*
%TD*%
D20*
%TO.C,R1*%
X142450000Y-83990000D03*
X142450000Y-85010000D03*
%TD*%
%TO.C,R5*%
X157450000Y-85475000D03*
X157450000Y-86495000D03*
%TD*%
D25*
%TO.C,C12*%
X155246914Y-118342193D03*
X155925736Y-119021015D03*
%TD*%
D26*
%TO.C,C3*%
X192450000Y-101480000D03*
X192450000Y-100520000D03*
%TD*%
D35*
%TO.C,L1*%
X156975000Y-94450000D03*
X150925000Y-94450000D03*
%TD*%
D19*
%TO.C,C17*%
X165800000Y-88580000D03*
X165800000Y-87620000D03*
%TD*%
D29*
%TO.C,D3*%
X144900000Y-82610000D03*
X144900000Y-81640000D03*
%TD*%
D31*
%TO.C,U4*%
X163488000Y-85533000D03*
X162218000Y-85533000D03*
X160948000Y-85533000D03*
X159678000Y-85533000D03*
X159678000Y-80583000D03*
X160948000Y-80583000D03*
X162218000Y-80583000D03*
X163488000Y-80583000D03*
%TD*%
D21*
%TO.C,L2*%
X153155000Y-106050000D03*
X152195000Y-106050000D03*
%TD*%
%TO.C,R25*%
X153130000Y-115825000D03*
X152170000Y-115825000D03*
%TD*%
D15*
%TO.C,R22*%
X152185000Y-109650000D03*
X153145000Y-109650000D03*
%TD*%
D21*
%TO.C,C4*%
X152920000Y-90375000D03*
X153880000Y-90375000D03*
%TD*%
D20*
%TO.C,R3*%
X144900000Y-83990000D03*
X144900000Y-85010000D03*
%TD*%
D36*
%TO.C,SW1*%
X158925000Y-124175000D03*
X158925000Y-130475000D03*
X162725000Y-130475000D03*
X162725000Y-124175000D03*
%TD*%
D29*
%TO.C,D1*%
X142450000Y-82610000D03*
X142450000Y-81640000D03*
%TD*%
D37*
%TO.C,Q1*%
X153887500Y-84525000D03*
X155762500Y-83575000D03*
X155762500Y-85475000D03*
%TD*%
D38*
%TO.C,U2*%
X157525000Y-113380761D03*
X157525000Y-115219239D03*
X156605761Y-114300000D03*
X158444239Y-114300000D03*
D39*
X155271097Y-114786136D03*
X155624651Y-115139689D03*
X155978204Y-115493243D03*
X156331757Y-115846796D03*
X156685311Y-116200349D03*
X157038864Y-116553903D03*
D40*
X158011136Y-116553903D03*
X158364689Y-116200349D03*
X158718243Y-115846796D03*
X159071796Y-115493243D03*
X159425349Y-115139689D03*
X159778903Y-114786136D03*
D39*
X159778903Y-113813864D03*
X159425349Y-113460311D03*
X159071796Y-113106757D03*
X158718243Y-112753204D03*
X158364689Y-112399651D03*
X158011136Y-112046097D03*
D40*
X157038864Y-112046097D03*
X156685311Y-112399651D03*
X156331757Y-112753204D03*
X155978204Y-113106757D03*
X155624651Y-113460311D03*
X155271097Y-113813864D03*
%TD*%
M02*
